<?xml version="1.0" encoding="utf-8"?>
<!-- Generator: Adobe Illustrator 21.0.2, SVG Export Plug-In . SVG Version: 6.00 Build 0)  -->
<svg version="1.1" id="Layer_1" xmlns="http://www.w3.org/2000/svg" xmlns:xlink="http://www.w3.org/1999/xlink" x="0px" y="0px"
	 viewBox="0 0 672 351.9" style="enable-background:new 0 0 672 351.9;" xml:space="preserve">
<style type="text/css">
	.st0{fill:#FFFFFF;}
	.st1{stroke:#000000;stroke-width:0.5;stroke-miterlimit:10;}
	.st2{display:none;fill:none;stroke:#3C519B;stroke-width:5;stroke-miterlimit:10;}
	.st3{fill:#C52B21;}
	.st4{fill:#868685;}
	.st5{fill:url(#SVGID_1_);}
	.st6{fill:#F1CA30;}
</style>
<rect x="69.3" y="189.2" class="st1" width="532" height="103.3"/>
<path d="M96.1,103.2c0,0.2,0,0.4,0.1,0.6v0.7l0,0.1c0.1,0.2,0.1,0.4,0.1,0.5c0,0.3,0,0.5,0.1,0.8c0.1,0.1,0.1,0.2,0.1,0.3
	c0,0.1,0,0.3,0.1,0.4c0.1,0.3,0.2,0.6,0.3,1c0.1,0.3,0.2,0.7,0.4,0.9c0.6,1.4,1.4,2.6,2.4,3.6c1,1,2.2,1.7,3.6,2.3
	c0.3,0.1,0.6,0.2,0.9,0.3c0.3,0.1,0.6,0.2,1,0.3c0.2,0,0.3,0.1,0.5,0.1c0.1,0,0.3,0,0.4,0.1c0.2,0.1,0.5,0.1,0.7,0.1
	c0.2,0,0.3,0,0.6,0.1c0.2,0,0.4,0.1,0.7,0.1c0.1,0,0.1,0,0.2,0c0.2,0,0.4,0,0.6-0.1l0.5,0c0.4-0.1,0.7,0,1.1-0.1
	c0.3-0.1,0.6-0.1,0.9-0.2c0.3,0,0.7-0.1,1-0.2c2.7-0.9,4.7-2.6,6-4.9c0.4-0.8,0.7-1.7,1-2.7c0.1-0.3,0.1-0.6,0-0.8
	c-0.1-0.3-0.2-0.5-0.4-0.7c-0.1-0.1-0.3-0.2-0.5-0.2c-0.1,0-0.2,0-0.3-0.1l-0.4,0c-0.2-0.1-0.4-0.1-0.6-0.1c-0.2,0-0.4,0-0.6,0
	c-0.4,0-0.9,0-1.5,0c-0.6,0-1.1,0-1.4,0.2c-0.4,0.2-0.7,0.5-0.8,0.8l-0.3,0.9c-0.1,0.1-0.1,0.3-0.2,0.5c-0.1,0.2-0.2,0.3-0.3,0.5
	c-0.4,0.7-1.1,1.2-1.9,1.5c-0.2,0.1-0.3,0.1-0.5,0.1c-0.2,0-0.4,0.1-0.6,0.1l-0.4,0l-0.1,0c0,0,0,0-0.1,0l-0.2,0
	c-0.5-0.1-0.9-0.1-1.2-0.2c-0.3-0.1-0.6-0.2-0.9-0.4c-0.3-0.1-0.4-0.2-0.5-0.3c-0.5-0.4-0.9-0.8-1.2-1.3c-0.3-0.5-0.6-1.1-0.8-1.8
	c-0.1-0.2-0.1-0.4-0.1-0.6c0-0.2-0.1-0.5-0.1-0.7c0,0,0-0.1,0-0.4c-0.1-0.3-0.1-0.7-0.1-1.2c0-0.5,0-0.9,0.1-1.1
	c0-0.1,0.1-0.3,0.1-0.4c0-0.1,0-0.2,0-0.3c0.1-0.4,0.2-0.8,0.2-1.2c0.1-0.3,0.2-0.7,0.3-1c0.3-0.7,0.7-1.4,1.2-1.9
	c0.5-0.5,1.1-0.9,1.9-1.1c0.3-0.1,0.8-0.2,1.3-0.2h0.4c0.3,0.1,0.6,0,1,0.2c0.5,0.1,0.9,0.3,1.3,0.6c0.2,0.2,0.5,0.4,0.6,0.6
	c0.2,0.3,0.4,0.5,0.5,0.8c0.1,0.2,0.2,0.5,0.3,0.7c0.1,0.3,0.3,0.6,0.6,0.7c0.2,0.2,0.5,0.2,0.9,0.2h3.1c0.4,0,0.8,0,1.1-0.1
	c0.3,0,0.7-0.2,0.9-0.8c0.1-0.2,0.1-0.5,0-0.8c0-0.2-0.1-0.5-0.2-0.6c-0.2-1-0.6-1.8-1.1-2.5c-1-1.5-2.3-2.6-4-3.4
	c-1.7-0.8-3.7-1.2-6.2-1.1l0,0c-0.5,0.1-0.8,0-1.4,0.1c-0.5,0.1-0.9,0.2-1.3,0.3c-0.5,0.1-0.9,0.2-1.4,0.4c-1.6,0.6-2.9,1.5-3.9,2.5
	c-1,1-1.9,2.3-2.5,3.9c-0.2,0.5-0.3,1-0.4,1.5c-0.1,0.5-0.2,1-0.3,1.5c-0.1,0.2-0.1,0.4-0.1,0.7c0,0.1,0,0.3-0.1,0.5
	c0,0.2,0,0.3,0,0.5c0,0.1,0,0.2,0,0.2C96.2,102.8,96.1,103,96.1,103.2z"/>
<path d="M142,112.6L142,112.6c0-0.1,0-0.2,0-0.2c0-0.1,0-0.3-0.1-0.4c-0.1-0.4-0.2-0.9-0.2-1.5V98.9c0-0.7,0-1.4,0-2
	c0-0.7-0.2-1.3-0.4-1.8c-0.4-0.9-0.9-1.7-1.6-2.2c-0.7-0.6-1.5-1-2.4-1.4c-0.9-0.3-2-0.6-3.1-0.7c-1.1-0.1-2.3-0.2-3.5-0.1l-0.1,0
	l-0.1,0.1c0,0-0.1,0-0.2,0c-0.3,0-0.5,0-0.7,0c-0.4,0.1-0.7,0.1-1.1,0.2c-0.4,0-0.8,0.1-1.2,0.2c-0.6,0.2-1.2,0.4-1.7,0.6
	c-0.6,0.2-1.1,0.5-1.7,0.8c-0.2,0.1-0.3,0.2-0.4,0.3c-0.1,0.1-0.3,0.2-0.4,0.3c-0.1,0.1-0.2,0.2-0.2,0.2l-0.1,0
	c-0.4,0.3-0.7,0.6-1,1l-0.5,0.9c-0.2,0.3-0.3,0.5-0.4,0.8c-0.1,0.3-0.2,0.6-0.3,0.9c0,0.1-0.1,0.3-0.1,0.4c0,0.2,0,0.4,0,0.6
	c0.1,0.5,0.4,0.7,0.6,0.8c0.1,0.1,0.2,0.1,0.4,0.1c0,0,0.1,0,0.1,0l0.5,0c0.1,0,0.3,0,0.5,0c0.1,0,0.3,0,0.4,0h2.5
	c0.3,0,0.6,0,0.8-0.1c0.5-0.1,0.8-0.5,0.9-0.7c0.1-0.3,0.2-0.5,0.4-0.9c0-0.1,0.1-0.3,0.3-0.5c0.1-0.2,0.3-0.3,0.4-0.4
	c0.1-0.1,0.3-0.2,0.4-0.3c0.1-0.1,0.3-0.2,0.4-0.2c0.2-0.1,0.5-0.1,0.9-0.2c0.3-0.1,0.7-0.1,1.1-0.1c0.4,0,0.7,0,1.1,0
	c0.3,0,0.6,0.1,0.9,0.2c0.8,0.3,1.4,0.8,1.7,1.6c0,0.1,0,0.2,0.1,0.2c0,0.1,0,0.2,0.1,0.4v0.2c0,0.1,0,0.1,0,0.1
	c-0.1,0.1-0.1,0.3,0,0.4l0,0.1c-0.1,0.3-0.2,0.5-0.4,0.7c-0.4,0.4-0.8,0.6-1.2,0.7c-0.5,0.1-1.1,0.2-1.7,0.4
	c-0.5,0.1-0.9,0.1-1.3,0.2c-0.2,0.1-0.4,0.1-0.6,0.1c-0.2,0-0.5,0-0.7,0.1c-0.2,0.1-0.5,0.1-0.7,0.1c-0.3,0-0.6,0.1-0.8,0.1
	c-0.4,0.1-0.8,0.2-1.2,0.2c-0.4,0.1-0.9,0.2-1.3,0.3c-1,0.3-1.9,0.7-2.6,1.2c-0.7,0.5-1.3,1.2-1.8,2.1c-0.2,0.3-0.3,0.6-0.4,1
	c-0.1,0.3-0.2,0.7-0.3,1l0,0.1c0,0.2,0,0.4-0.1,0.7c0,0.2,0,0.4,0,0.7c0,0.3,0,0.5,0.1,0.6c0,0.1,0,0.2,0,0.3c0,0.2,0,0.4,0.1,0.5
	c0.1,0.3,0.1,0.5,0.2,0.8c0.1,0.2,0.2,0.5,0.3,0.7c0.4,0.9,0.9,1.6,1.5,2.2c0.6,0.5,1.4,1,2.3,1.3c0.3,0.1,0.6,0.2,0.8,0.3
	c0.3,0,0.5,0.1,0.8,0.1c0.2,0.1,0.4,0.1,0.7,0.1c0.2,0,0.3,0,0.5,0.1l0,0l0.4,0c0.2,0,0.3,0.1,0.5,0.1c0.2,0,0.3,0,0.4,0h0.5
	c0.1,0,0.2,0,0.3,0c0.1,0,0.1,0,0.3,0c0.2,0,0.4,0,0.6-0.1c0.2,0,0.4-0.1,0.7-0.1c0.4-0.1,0.9-0.2,1.3-0.3c0.4-0.1,0.9-0.3,1.3-0.4
	l0.5-0.3c0.2-0.1,0.4-0.2,0.5-0.3c0.2-0.1,0.3-0.1,0.4-0.2c0.1-0.1,0.2-0.1,0.3-0.2c0.1,0,0.1,0,0.1,0c0.1,0,0.1,0.1,0.2,0.1
	c0.1,0.1,0.2,0.3,0.3,0.4c0.1,0.3,0.3,0.5,0.6,0.6c0.2,0.2,0.5,0.3,0.8,0.3c0.3,0,0.5,0,0.8,0h3.1c0.3,0,0.5-0.1,0.7-0.2
	c0.5-0.2,0.7-0.5,0.7-1C142.1,113.3,142.1,112.9,142,112.6z M134.9,105.3c0,0.2,0,0.3,0,0.4l0,0.4c-0.1,0.2-0.1,0.5-0.1,0.7
	c0,0.2,0,0.4-0.1,0.6c-0.2,0.7-0.5,1.3-1,1.8c-0.4,0.5-1,0.8-1.7,1c-0.4,0.1-0.9,0.2-1.5,0.3c-0.5,0-1,0-1.5-0.1
	c-0.5-0.1-0.9-0.2-1.3-0.4c-0.4-0.2-0.6-0.4-0.8-0.7c-0.2-0.3-0.4-0.6-0.4-1.1c-0.1-0.8,0-1.5,0.4-2c0.4-0.5,0.9-0.9,1.4-1.1
	c0.2-0.1,0.4-0.1,0.6-0.2c0.2,0,0.4-0.1,0.7-0.2c0.3-0.1,0.7-0.2,1-0.2c0.4,0,0.8-0.1,1.2-0.2c0.2,0,0.3,0,0.4-0.1
	c0.2-0.1,0.4-0.1,0.7-0.1c0.3,0,0.5-0.1,0.7-0.1c0.1,0,0.2,0,0.3-0.1c0.1,0,0.2,0,0.3-0.1c0.2,0,0.4,0.1,0.4,0.1c0,0,0,0,0,0.1
	c0,0.2,0,0.4,0.1,0.6C134.9,105,134.9,105.2,134.9,105.3z"/>
<path d="M142.2,95.3c0.1,0.2,0.2,0.5,0.6,0.6c0.4,0.2,0.9,0.2,1.5,0.2c0.4-0.1,0.8,0,1.1,0.1c0.2,0.1,0.3,0.3,0.4,0.6
	c0,0.1,0.1,0.3,0,0.5c0,0.2,0,0.4,0,0.6v10.6c0,0.1,0,0.3,0,0.4c0,0.2,0,0.3,0,0.5v0.5l0,0.1c0,0,0,0,0,0.1c0,0.1,0,0.2,0.1,0.3
	c0,0.1,0,0.2,0,0.2c0,0.2,0,0.4,0.1,0.5c0.2,0.7,0.5,1.4,1,2c0.1,0.1,0.1,0.1,0.2,0.2c0.1,0.1,0.1,0.1,0.2,0.2
	c0.1,0.1,0.2,0.2,0.3,0.2c0.1,0.1,0.2,0.2,0.3,0.2c0.3,0.2,0.6,0.3,0.9,0.4c0.3,0.1,0.6,0.2,1,0.3l0.5,0.1c0.2,0,0.4,0.1,0.6,0.1
	c0.3,0.1,0.6,0,1,0.1h0.5c0.1,0,0.2,0,0.3,0c0.1,0,0.1,0,0.2,0c0.3,0,0.5,0,0.8,0c0.2,0,0.4,0,0.6,0c0,0,0.1,0,0.2,0
	c0.1,0,0.2,0,0.3,0h0.4l0.1,0c0.1,0,0.2-0.1,0.2,0c0.2,0,0.4,0,0.6-0.1c0.6-0.2,0.9-0.7,0.9-1.3c0-0.5,0-1.1,0-1.7v-0.9
	c0-0.3-0.1-0.6-0.2-0.9c-0.2-0.3-0.5-0.4-0.8-0.5c-0.2,0-0.5,0-0.9,0h-0.4c-0.1,0-0.2,0-0.4,0c0,0-0.1,0-0.2,0
	c-0.3-0.1-0.5-0.1-0.8-0.2c-0.2-0.1-0.3-0.1-0.4-0.3c-0.3-0.4-0.4-0.8-0.5-1.3c0-0.5-0.1-1.2-0.1-1.9l0-7.9c0-0.2,0-0.4,0-0.6
	c0-0.1,0-0.3,0-0.4c0-0.2,0.1-0.4,0.2-0.6c0-0.1,0.1-0.2,0.3-0.2l0.1-0.1c0.1,0,0.3,0,0.5,0c0,0,0.1,0,0.2,0c0.1,0,0.3,0,0.4,0
	c0.6,0,1.1,0,1.6,0c0.6,0,1-0.4,1.2-1c0.1-0.2,0.1-0.4,0.1-0.7c0-0.2,0-0.4,0-0.6c0-0.5,0-0.9-0.1-1.3c-0.1-0.5-0.3-0.9-0.8-1.1
	c-0.2-0.1-0.4-0.1-0.6-0.1h-0.5c-0.5,0-1,0-1.6,0c-0.3,0-0.7-0.1-0.9-0.3c-0.1-0.1-0.1-0.2-0.2-0.4c0-0.2,0-0.4,0-0.6v-0.5l0-0.1
	c0-0.1,0-0.3,0-0.4c0-0.2,0-0.4,0-0.5v-2.6c0-0.2,0-0.5-0.1-0.7c-0.2-0.4-0.5-0.7-1-0.7c-0.4,0-0.7-0.1-1.2-0.1h-3l-0.1,0l-0.1,0
	c-0.2,0-0.3,0-0.4,0c-0.4,0.1-0.7,0.4-0.9,0.8c-0.1,0.2-0.1,0.5-0.1,0.8v3.5c0,0.3,0,0.5,0,0.8c0,0.2-0.1,0.4-0.1,0.6
	c-0.1,0.1-0.2,0.3-0.5,0.3c-0.4,0-0.8,0.1-1.2,0.1c-0.1,0-0.2,0-0.4,0c-0.2,0-0.3,0-0.5,0.1c-0.7,0.2-0.9,0.6-1,0.9
	c-0.1,0.3-0.1,0.8-0.1,1.3v0.9l0,0.1C142.1,94.9,142.1,95.1,142.2,95.3z"/>
<path d="M165.6,115.3c0.2,0,0.3,0,0.4,0h0.5c0.1,0,0.2,0,0.3,0c0.1,0,0.1,0,0.3,0c0.2,0,0.4,0,0.6-0.1c0.2,0,0.4-0.1,0.7-0.1
	c0.4-0.1,0.9-0.2,1.3-0.3c0.4-0.1,0.9-0.3,1.3-0.4l0.5-0.3c0.2-0.1,0.4-0.2,0.5-0.3c0.2-0.1,0.3-0.1,0.4-0.2
	c0.1-0.1,0.2-0.1,0.3-0.2c0.1,0,0.1,0,0.1,0c0.1,0,0.1,0.1,0.2,0.1c0.1,0.1,0.2,0.3,0.3,0.4c0.1,0.3,0.3,0.5,0.6,0.6
	c0.2,0.2,0.5,0.3,0.8,0.3c0.3,0,0.5,0,0.8,0h3.1c0.3,0,0.5-0.1,0.7-0.2c0.5-0.2,0.7-0.5,0.7-1c0-0.3-0.1-0.7-0.1-1l0-0.1
	c0-0.1,0-0.1,0-0.2c0-0.1,0-0.3-0.1-0.4c-0.1-0.4-0.2-0.9-0.2-1.5V98.9c0-0.7,0-1.4,0-2c0-0.7-0.2-1.3-0.4-1.8
	c-0.4-0.9-0.9-1.7-1.6-2.2c-0.7-0.6-1.5-1-2.4-1.4c-0.9-0.3-2-0.6-3.1-0.7c-1.1-0.1-2.3-0.2-3.5-0.1l-0.1,0l-0.1,0.1
	c0,0-0.1,0-0.2,0c-0.3,0-0.5,0-0.7,0c-0.4,0.1-0.7,0.1-1.1,0.2c-0.4,0-0.8,0.1-1.2,0.2c-0.6,0.2-1.2,0.4-1.7,0.6
	c-0.6,0.2-1.1,0.5-1.7,0.8c-0.2,0.1-0.3,0.2-0.4,0.3c-0.1,0.1-0.3,0.2-0.4,0.3c-0.1,0.1-0.2,0.2-0.2,0.2l-0.1,0
	c-0.4,0.3-0.7,0.6-1,1l-0.5,0.9c-0.2,0.3-0.3,0.5-0.4,0.8c-0.1,0.3-0.2,0.6-0.3,0.9c0,0.1-0.1,0.3-0.1,0.4c0,0.2,0,0.4,0,0.6
	c0.1,0.5,0.4,0.7,0.6,0.8c0.1,0.1,0.2,0.1,0.4,0.1c0,0,0.1,0,0.1,0l0.5,0c0.1,0,0.3,0,0.5,0c0.1,0,0.3,0,0.4,0h2.5
	c0.3,0,0.6,0,0.8-0.1c0.5-0.1,0.8-0.5,0.9-0.7c0.1-0.3,0.2-0.5,0.4-0.9c0-0.1,0.1-0.3,0.3-0.5c0.1-0.2,0.3-0.3,0.4-0.4
	c0.1-0.1,0.3-0.2,0.4-0.3c0.1-0.1,0.3-0.2,0.4-0.2c0.2-0.1,0.5-0.1,0.9-0.2c0.3-0.1,0.7-0.1,1.1-0.1c0.4,0,0.7,0,1.1,0
	c0.3,0,0.6,0.1,0.9,0.2c0.8,0.3,1.4,0.8,1.6,1.6c0,0.1,0,0.2,0.1,0.2c0,0.1,0,0.2,0.1,0.4v0.2c0,0.1,0,0.1,0,0.1
	c-0.1,0.1-0.1,0.3,0,0.4l0,0.1c-0.1,0.3-0.2,0.5-0.4,0.7c-0.4,0.4-0.8,0.6-1.2,0.7c-0.5,0.1-1.1,0.2-1.7,0.4
	c-0.5,0.1-0.9,0.1-1.3,0.2c-0.2,0.1-0.4,0.1-0.6,0.1c-0.2,0-0.5,0-0.7,0.1c-0.2,0.1-0.5,0.1-0.7,0.1c-0.3,0-0.6,0.1-0.8,0.1
	c-0.4,0.1-0.8,0.2-1.2,0.2c-0.4,0.1-0.9,0.2-1.3,0.3c-1,0.3-1.9,0.7-2.6,1.2c-0.7,0.5-1.3,1.2-1.8,2.1c-0.2,0.3-0.3,0.6-0.4,1
	c-0.1,0.3-0.2,0.7-0.3,1l0,0.1c0,0.2,0,0.4-0.1,0.7c0,0.2,0,0.4,0,0.7c0,0.3,0,0.5,0.1,0.6c0,0.1,0,0.2,0,0.3c0,0.2,0,0.4,0.1,0.5
	c0.1,0.3,0.1,0.5,0.2,0.8c0.1,0.2,0.2,0.5,0.3,0.7c0.4,0.9,0.9,1.6,1.5,2.2c0.6,0.5,1.4,1,2.3,1.3c0.3,0.1,0.6,0.2,0.8,0.3
	c0.3,0,0.5,0.1,0.8,0.1c0.2,0.1,0.4,0.1,0.7,0.1c0.1,0,0.3,0,0.5,0.1l0,0l0.4,0C165.3,115.3,165.4,115.3,165.6,115.3z M165.7,110.1
	c-0.4-0.2-0.6-0.4-0.8-0.7c-0.2-0.3-0.4-0.6-0.4-1.1c-0.1-0.8,0-1.5,0.4-2c0.4-0.5,0.9-0.9,1.4-1.1c0.2-0.1,0.4-0.1,0.6-0.2
	c0.2,0,0.4-0.1,0.7-0.2c0.3-0.1,0.7-0.2,1-0.2c0.4,0,0.8-0.1,1.2-0.2c0.2,0,0.3,0,0.4-0.1c0.2-0.1,0.4-0.1,0.7-0.1
	c0.3,0,0.5-0.1,0.7-0.1c0.1,0,0.2,0,0.3-0.1c0.1,0,0.2,0,0.3-0.1c0.2,0,0.3,0,0.4,0.1c0,0,0,0,0,0.1c0,0.2,0,0.4,0.1,0.6
	c0,0.1,0,0.3,0,0.4c0,0.2,0,0.3,0,0.4l0,0.4c-0.1,0.2-0.1,0.5-0.1,0.7c0,0.2,0,0.4-0.1,0.6c-0.2,0.7-0.5,1.3-1,1.8
	c-0.4,0.5-1,0.8-1.7,1c-0.4,0.1-0.9,0.2-1.5,0.3c-0.5,0-1,0-1.5-0.1C166.5,110.4,166,110.3,165.7,110.1z"/>
<path d="M189,87c0-0.4,0-0.7,0-1.1c0-0.4-0.1-0.8-0.4-1c-0.2-0.2-0.5-0.3-0.8-0.4c-0.3,0-0.6,0-0.9,0h-3.2c-0.1,0-0.2,0-0.3,0
	c-0.1,0-0.1,0-0.2,0h-0.1l-0.1,0c-0.1,0.1-0.2,0.1-0.4,0.2c-0.2,0.1-0.3,0.2-0.4,0.4c-0.2,0.3-0.3,0.7-0.2,1.3c0,0.5,0,0.8,0,1.2
	v24.8c0,0.3,0,0.7,0,1c0,0.4,0.2,0.7,0.4,0.9c0.2,0.2,0.5,0.3,0.8,0.3c0.3,0,0.6,0,0.9,0h2.1c0.2,0,0.4,0,0.6,0c0.1,0,0.2,0,0.3,0
	c0.2,0,0.3,0,0.5-0.1c0.5-0.1,0.8-0.3,1-0.6c0.2-0.3,0.3-0.7,0.3-1.2c0-0.5,0-0.9,0-1.2V87z"/>
<path d="M224.5,96.2l0.1-0.1c0.1,0,0.3,0,0.5,0c0,0,0.1,0,0.2,0c0.1,0,0.3,0,0.4,0c0.6,0,1.1,0,1.6,0c0.6,0,1-0.4,1.2-1
	c0.1-0.2,0.1-0.4,0.1-0.7c0-0.2,0-0.4,0-0.6c0-0.5,0-0.9-0.1-1.3c-0.1-0.5-0.3-0.9-0.8-1.1c-0.2-0.1-0.4-0.1-0.6-0.1h-0.5
	c-0.5,0-1,0-1.6,0c-0.3,0-0.7-0.1-0.9-0.3c-0.1-0.1-0.1-0.2-0.2-0.4c0-0.2,0-0.4,0-0.6v-0.5l0-0.1c0-0.1,0-0.3,0-0.4
	c0-0.2,0-0.4,0-0.5v-2.6c0-0.2,0-0.5-0.1-0.7c-0.2-0.4-0.5-0.7-1-0.7c-0.4,0-0.7-0.1-1.2-0.1h-3l-0.1,0l-0.1,0c-0.2,0-0.3,0-0.4,0
	c-0.4,0.1-0.7,0.4-0.9,0.8c-0.1,0.2-0.1,0.5-0.1,0.8v3.5c0,0.3,0,0.5,0,0.8c0,0.2-0.1,0.4-0.1,0.6c-0.1,0.1-0.2,0.3-0.5,0.3
	c-0.4,0-0.8,0.1-1.2,0.1c-0.1,0-0.2,0-0.4,0c-0.2,0-0.3,0-0.5,0.1c-0.7,0.2-0.9,0.6-1,0.9c-0.1,0.3-0.1,0.8-0.1,1.3v0.9l0,0.1
	c0.1,0.3,0.1,0.5,0.2,0.7c0.1,0.2,0.2,0.5,0.6,0.6c0.4,0.2,0.9,0.2,1.5,0.2c0.4-0.1,0.8,0,1.1,0.1c0.2,0.1,0.3,0.3,0.4,0.6
	c0,0.1,0.1,0.3,0,0.4c0,0.2,0,0.4,0,0.6v10.6c0,0.1,0,0.3,0,0.4c0,0.2,0,0.3,0,0.5v0.4l0,0.1c0,0,0,0,0,0.1c0,0.1,0,0.2,0.1,0.3
	c0,0.1,0,0.2,0,0.2c0,0.2,0,0.4,0.1,0.5c0.2,0.7,0.5,1.4,1,2c0.1,0.1,0.1,0.1,0.2,0.2c0.1,0.1,0.1,0.1,0.2,0.2
	c0.1,0.1,0.2,0.2,0.3,0.2c0.1,0.1,0.2,0.2,0.3,0.2c0.3,0.2,0.6,0.3,0.9,0.4c0.3,0.1,0.6,0.2,1,0.3l0.5,0.1c0.2,0,0.4,0.1,0.6,0.1
	c0.3,0.1,0.6,0,1,0.1h0.4c0.1,0,0.2,0,0.3,0c0.1,0,0.1,0,0.2,0c0.3,0,0.5,0,0.8,0c0.2,0,0.4,0,0.6,0c0,0,0.1,0,0.2,0
	c0.1,0,0.2,0,0.3,0h0.4l0.1,0c0.1,0,0.2-0.1,0.2,0c0.2,0,0.4,0,0.6-0.1c0.6-0.2,0.9-0.7,0.9-1.3c0-0.5,0-1.1,0-1.7v-0.9
	c0-0.3-0.1-0.6-0.2-0.9c-0.2-0.3-0.5-0.4-0.8-0.5c-0.2,0-0.5,0-0.9,0h-0.4c-0.1,0-0.2,0-0.4,0c0,0-0.1,0-0.2,0
	c-0.3-0.1-0.5-0.1-0.8-0.2c-0.2-0.1-0.3-0.1-0.4-0.3c-0.3-0.4-0.4-0.8-0.5-1.3c0-0.5-0.1-1.2-0.1-1.9l0-7.9c0-0.2,0-0.4,0-0.6
	c0-0.1,0-0.3,0-0.4c0.1-0.2,0.1-0.4,0.2-0.6C224.2,96.3,224.3,96.2,224.5,96.2z"/>
<path d="M236.6,84.8c-0.2-0.2-0.5-0.3-0.8-0.4c-0.3,0-0.6,0-0.9,0h-3.2c-0.1,0-0.2,0-0.3,0c-0.1,0-0.1,0-0.2,0h-0.1l-0.1,0
	c-0.1,0.1-0.2,0.1-0.4,0.2c-0.2,0.1-0.3,0.2-0.4,0.4c-0.1,0.2-0.2,0.4-0.2,0.7c0,0.2,0,0.4,0,0.7c0,0.2,0,0.5,0,0.8c0,0.3,0,0.7,0,1
	c0,0.3,0,0.6,0.1,0.9c0.1,0.3,0.2,0.6,0.4,0.7c0.2,0.2,0.5,0.3,0.8,0.3c0.3,0,0.6,0,0.9,0h2.5c0.3,0,0.6,0,0.9,0
	c0.3,0,0.6-0.1,0.8-0.3c0.3-0.2,0.4-0.6,0.4-1.1v-2.6C237,85.6,236.9,85.2,236.6,84.8L236.6,84.8z"/>
<path d="M236.8,91.7c-0.1-0.2-0.3-0.4-0.6-0.4c-0.1,0-0.3-0.1-0.4-0.1l-0.1,0l-0.3,0c-0.2,0-0.4,0-0.6,0c-0.2,0-0.4,0-0.6,0h-2.2
	l-0.1,0l-0.1,0c-0.1,0-0.3,0-0.4,0c-0.4,0.1-0.7,0.2-0.9,0.5c-0.2,0.2-0.2,0.5-0.2,0.9v19.7c0,0.4,0,0.7,0,1c0,0.4,0.1,0.7,0.4,1
	c0.2,0.2,0.4,0.4,0.8,0.4c0.3,0,0.5,0,0.8,0h2.5c0.2,0,0.4,0,0.6,0c0,0,0.1,0,0.1,0c0.2,0,0.4,0,0.5-0.1c0.8-0.2,1-0.8,1-1.1
	c0-0.4,0-1,0-1.5V93.3c0-0.3,0-0.6,0-0.9C237,92.1,236.9,91.9,236.8,91.7z"/>
<path d="M261.6,106.3c-0.1-0.3-0.2-0.5-0.4-0.7c-0.1-0.1-0.3-0.2-0.5-0.2c-0.1,0-0.2,0-0.3-0.1l-0.4,0c-0.2-0.1-0.4-0.1-0.6-0.1
	c-0.2,0-0.4,0-0.6,0c-0.4,0-0.9,0-1.5,0c-0.7,0-1.1,0-1.4,0.2c-0.4,0.2-0.7,0.5-0.8,0.8l-0.3,0.9c-0.1,0.1-0.1,0.3-0.2,0.5
	c-0.1,0.2-0.2,0.3-0.3,0.5c-0.4,0.7-1.1,1.2-1.9,1.5c-0.2,0.1-0.3,0.1-0.5,0.1c-0.2,0-0.4,0.1-0.6,0.1l-0.4,0l-0.1,0c0,0,0,0-0.1,0
	l-0.2,0c-0.5-0.1-0.9-0.1-1.2-0.2c-0.3-0.1-0.6-0.2-0.9-0.4c-0.3-0.1-0.4-0.2-0.5-0.3c-0.5-0.4-0.9-0.8-1.2-1.3
	c-0.3-0.5-0.6-1.1-0.8-1.8c-0.1-0.2-0.1-0.4-0.1-0.6c0-0.2-0.1-0.5-0.1-0.7c0,0,0-0.1,0-0.4c-0.1-0.3-0.1-0.7-0.1-1.2
	c0-0.5,0-0.9,0.1-1.2c0-0.1,0.1-0.3,0.1-0.4c0-0.1,0-0.2,0-0.3c0.1-0.4,0.2-0.8,0.2-1.2c0.1-0.3,0.2-0.7,0.3-1
	c0.3-0.7,0.7-1.4,1.2-1.9c0.5-0.5,1.1-0.9,1.9-1.1c0.3-0.1,0.8-0.2,1.3-0.2h0.4c0.3,0.1,0.6,0,1,0.2c0.5,0.1,0.9,0.3,1.3,0.6
	c0.2,0.2,0.5,0.4,0.6,0.6c0.2,0.3,0.4,0.5,0.5,0.8c0.1,0.2,0.2,0.5,0.3,0.7c0.1,0.3,0.3,0.6,0.6,0.7c0.2,0.2,0.5,0.2,0.9,0.2h3.1
	c0.4,0,0.8,0,1.1-0.1c0.3,0,0.7-0.2,0.9-0.8c0.1-0.2,0.1-0.5,0-0.8c0-0.3-0.1-0.5-0.2-0.6c-0.2-1-0.6-1.8-1.1-2.5
	c-1-1.5-2.3-2.6-4-3.4c-1.7-0.8-3.7-1.2-6.2-1.1l0,0c-0.5,0.1-0.8,0-1.4,0.1c-0.5,0.1-0.9,0.2-1.3,0.3c-0.5,0.1-0.9,0.2-1.4,0.4
	c-1.6,0.6-2.9,1.5-3.9,2.5c-1,1-1.9,2.3-2.5,3.9c-0.2,0.5-0.3,1-0.4,1.5c-0.1,0.5-0.2,1-0.3,1.5c-0.1,0.2-0.1,0.4-0.1,0.7
	c0,0.1,0,0.3-0.1,0.5c0,0.2,0,0.3,0,0.5c0,0.1,0,0.2,0,0.2c-0.1,0.2-0.1,0.4-0.1,0.6c0,0.2,0,0.4,0.1,0.6v0.7l0,0.1
	c0.1,0.2,0.1,0.4,0.1,0.6c0,0.3,0,0.5,0.1,0.8c0.1,0.1,0.1,0.2,0.1,0.3c0,0.1,0,0.3,0.1,0.4l0.3,1c0.1,0.3,0.2,0.7,0.4,0.9
	c0.6,1.4,1.4,2.6,2.4,3.6c1,1,2.2,1.7,3.6,2.3c0.3,0.1,0.6,0.2,0.9,0.3c0.3,0.1,0.6,0.2,1,0.3c0.2,0,0.3,0.1,0.5,0.1
	c0.1,0,0.3,0,0.4,0.1c0.2,0.1,0.5,0.1,0.7,0.1c0.2,0,0.3,0,0.6,0.1c0.2,0,0.4,0.1,0.7,0.1c0.1,0,0.1,0,0.2,0c0.2,0,0.4,0,0.6-0.1
	l0.5,0c0.4-0.1,0.7,0,1.1-0.1c0.3-0.1,0.6-0.1,0.9-0.2c0.3,0,0.7-0.1,1-0.2c2.7-0.9,4.7-2.6,6-4.9c0.4-0.8,0.7-1.7,1-2.7
	C261.7,106.9,261.7,106.6,261.6,106.3z"/>
<path d="M293.1,106.8c0-0.4,0-0.7-0.1-0.9c-0.1-0.2-0.1-0.5-0.2-0.7c-0.1-0.2-0.1-0.4-0.2-0.7c-0.3-0.7-0.7-1.2-1.2-1.7
	c-0.5-0.4-1-0.8-1.6-1.2c-0.3-0.2-0.5-0.3-0.8-0.4c-0.2-0.1-0.5-0.2-0.7-0.3c-0.6-0.2-1.2-0.4-1.9-0.6c-0.7-0.2-1.4-0.3-2-0.4
	c-0.7-0.1-1.4-0.3-2-0.4c-0.6-0.2-1.2-0.4-1.8-0.6c-0.4-0.1-0.7-0.3-0.9-0.5c-0.2-0.2-0.5-0.4-0.6-0.7c-0.1-0.1-0.1-0.2-0.2-0.4
	c0-0.1,0-0.2,0-0.4c0.1-0.4,0.3-0.7,0.5-0.9c0.3-0.2,0.6-0.4,1.1-0.5c0.1,0,0.3,0,0.4-0.1c0.1,0,0.3,0,0.4-0.1h0.3l0.1,0
	c0.1,0,0.3-0.1,0.8,0c0.4,0,0.7,0.1,0.9,0.1c0.4,0.1,0.7,0.2,1,0.3c0.3,0.1,0.5,0.3,0.8,0.5c0.2,0.1,0.3,0.3,0.4,0.4
	c0.1,0.2,0.2,0.5,0.3,0.7c0.1,0.2,0.3,0.4,0.4,0.6c0.2,0.2,0.5,0.4,0.8,0.5c0.2,0.1,0.5,0.1,0.7,0.1c0.2,0,0.4,0,0.6,0h2.6
	c0.2,0,0.5,0,0.6-0.1c0.3-0.1,0.5-0.2,0.7-0.5l0-0.1c0.1-0.2,0.1-0.4,0.1-0.7c0-0.2,0-0.5-0.1-0.7c-0.1-0.4-0.3-0.8-0.4-1.2
	c-0.2-0.3-0.4-0.7-0.6-1c-0.9-1.4-2.2-2.4-3.9-2.9c-1.7-0.6-3.7-0.8-5.9-0.7l0,0c-0.5,0.1-1,0-1.5,0.1c-0.2,0-0.3,0-0.5,0.1
	c-0.2,0-0.4,0.1-0.6,0.1c-0.4,0.1-0.7,0.2-1.1,0.2c-0.4,0.1-0.7,0.2-1.1,0.3c-0.9,0.3-1.7,0.8-2.4,1.3c-0.7,0.6-1.3,1.3-1.7,2.2
	c-0.1,0.3-0.2,0.6-0.3,0.9c-0.1,0.3-0.1,0.6-0.2,0.9c-0.1,0.2-0.1,0.4,0,0.6c0,0,0,0.1,0,0.2c-0.1,0.3-0.1,0.6-0.1,0.9
	c0,0.3,0.1,0.6,0.1,0.8c0.1,0.4,0.1,0.7,0.2,0.9c0.4,1.1,1.1,1.9,1.9,2.5c0.7,0.5,1.6,0.9,2.4,1.2c0.9,0.2,1.8,0.5,2.7,0.8
	c0.2,0.1,0.5,0.1,0.8,0.1c0.2,0,0.5,0.1,0.7,0.1c0.7,0.2,1.3,0.4,1.9,0.5c0.6,0.1,1.2,0.3,1.7,0.6c0.4,0.2,0.7,0.4,1,0.5
	c0.3,0.2,0.5,0.4,0.7,0.8c0.1,0.1,0.1,0.2,0.2,0.4c0,0.1,0,0.2,0,0.4c-0.1,0.6-0.2,0.8-0.3,1c-0.2,0.3-0.4,0.5-0.7,0.7
	c-0.3,0.2-0.7,0.4-1.1,0.5c-0.3,0.1-0.5,0.1-0.8,0.1c-0.2,0.1-0.4,0.1-0.7,0.1c-0.2,0-0.5,0-0.7-0.1c-0.2,0-0.4,0-0.5,0
	c-0.1,0-0.2,0-0.3-0.1c-0.5-0.1-0.9-0.3-1.2-0.4c-0.3-0.2-0.6-0.4-1-0.6l-0.1,0c0,0-0.1-0.1-0.3-0.3c-0.1-0.2-0.2-0.4-0.3-0.5
	c-0.1-0.3-0.3-0.6-0.4-0.8c-0.1-0.4-0.4-0.6-0.8-0.8c-0.2-0.1-0.5-0.1-0.7-0.1h-3.5c-0.3,0-0.5,0-0.7,0.1c-0.3,0.1-0.5,0.3-0.6,0.6
	c-0.1,0.2-0.1,0.5-0.1,0.8c0,0.3,0.1,0.5,0.1,0.6c0.1,0.3,0.1,0.6,0.2,0.8c0.3,0.8,0.7,1.4,1.1,2c0.7,0.9,1.5,1.6,2.4,2
	c0.9,0.4,1.9,0.8,3.1,1.2c0.3,0.1,0.7,0.2,1.1,0.2c0.3,0,0.7,0.1,1.1,0.1c0.1,0,0.2,0,0.3,0c0.1,0,0.2,0,0.3,0
	c0.2,0.1,0.5,0.1,1,0.1c0.4,0,0.7,0,1-0.1h0.7l0.1,0c0.2-0.1,0.5-0.1,0.8-0.1c0.3,0,0.6-0.1,0.9-0.1c0.4-0.1,0.7-0.2,1.1-0.2
	c0.4-0.1,0.8-0.2,1.1-0.3c0.9-0.3,1.7-0.7,2.4-1.2c0.7-0.5,1.3-1.1,1.8-1.8c0.5-0.7,0.8-1.5,1-2.5c0-0.2,0.1-0.3,0.1-0.5
	c0-0.1,0-0.3,0.1-0.4l0-0.1l0-0.2C293.1,107.5,293.1,107.2,293.1,106.8z"/>
<path d="M317.7,101.9c0-0.1,0-0.2,0-0.3c0-0.2,0-0.5-0.1-0.6c0-0.1,0-0.2,0-0.3c0-0.1,0-0.3-0.1-0.4l-0.2-0.8
	c-0.1-0.3-0.1-0.5-0.2-0.8c-0.1-0.4-0.3-0.8-0.4-1.2c-0.1-0.4-0.3-0.8-0.5-1.1l-0.6-0.9c-0.2-0.3-0.4-0.6-0.7-0.9
	c-0.3-0.3-0.6-0.7-0.9-1c-0.3-0.3-0.7-0.5-1-0.8c-1-0.7-2.2-1.2-3.4-1.6c-1.3-0.4-2.8-0.6-4.6-0.5c-0.4,0.1-0.8,0-1.3,0.1
	c-0.4,0.1-0.8,0.2-1.2,0.3c-0.4,0.1-0.9,0.2-1.3,0.3c-0.3,0.1-0.6,0.3-1,0.4c-0.3,0.1-0.7,0.3-1,0.4c-1.1,0.7-2,1.5-2.8,2.3
	c-0.8,0.8-1.4,1.9-2,3.1c-0.2,0.4-0.3,0.7-0.4,1.1c-0.1,0.4-0.2,0.7-0.3,1.1c-0.1,0.2-0.1,0.4-0.1,0.5c0,0.1,0,0.2,0,0.3
	c-0.1,0.2-0.1,0.4-0.1,0.6c0,0.1,0,0.3,0,0.4l0,0.3c-0.1,0.2-0.1,0.5-0.1,0.8c0,0.3,0,0.6,0.1,0.8v0.3c0,0.1,0,0.3,0.1,0.5
	c0.1,0.2,0.1,0.4,0.1,0.6c0,0.3,0,0.6,0.1,0.9c0.1,0.1,0.1,0.2,0.1,0.3c0,0.2,0,0.3,0.1,0.5c0.1,0.3,0.2,0.6,0.2,0.9
	c0.1,0.3,0.2,0.6,0.4,0.9c0.5,1.2,1.2,2.2,1.9,3.1c0.8,0.8,1.7,1.6,2.7,2.2c0.3,0.2,0.7,0.3,1,0.5c0.3,0.1,0.7,0.2,1,0.3
	c0.3,0.1,0.6,0.2,0.9,0.3c0.3,0.1,0.6,0.1,0.9,0.2c0.3,0.1,0.5,0,0.7,0.1c0.2,0.1,0.4,0.1,0.6,0.1c0.1,0,0.2,0,0.4,0l0.5,0
	c0.2,0,0.4,0.1,0.6,0.1c0.1,0,0.1,0,0.2,0c0.4,0,0.6,0,0.7-0.1c0.1,0,0.2,0,0.3,0c0.1,0,0.2,0,0.3,0c0.3-0.1,0.7,0,1-0.1
	c0.4-0.1,0.8-0.2,1.1-0.2c0.4-0.1,0.8-0.2,1.1-0.4c1.4-0.6,2.7-1.4,3.7-2.3c1-0.9,1.9-2.1,2.5-3.6c0.2-0.3,0.3-0.7,0.4-1
	c0.1-0.3,0.2-0.7,0.3-1l0-0.1c0-0.2,0.1-0.4,0.1-0.6c0-0.2,0.1-0.3,0.1-0.6c0.1-0.3,0.1-0.5,0.1-0.8c0-0.2,0-0.4,0.1-0.6l0-0.5
	c0.1-0.2,0.1-0.5,0.1-0.8C317.8,102.4,317.8,102.1,317.7,101.9L317.7,101.9z M300.5,104.2c0-0.1-0.1-0.4-0.1-0.8
	c0-0.5,0-0.7,0.1-0.8l0-0.5c0-0.1,0-0.3,0-0.4c0.1-0.3,0.1-0.7,0.2-1c0-0.3,0.1-0.6,0.2-0.9c0.3-0.8,0.6-1.4,1-2
	c0.4-0.6,1-1,1.7-1.3c0.1-0.1,0.3-0.1,0.4-0.2c0.2,0,0.4-0.1,0.6-0.2c0,0,0.1,0,0.2,0c0.2,0,0.3,0,0.4-0.1c0.2,0,0.5,0,0.7,0
	c0.2,0,0.5,0,0.6,0.1c0.2,0.1,0.4,0.1,0.6,0.2c0.2,0,0.3,0.1,0.5,0.1c0.7,0.3,1.2,0.7,1.6,1.2c0.4,0.5,0.8,1.1,1.1,1.9
	c0.1,0.2,0.1,0.4,0.2,0.7c0,0.3,0.1,0.5,0.2,0.8l0,0.1c0,0,0,0,0,0.2c0,0.1,0,0.3,0,0.4c0,0.2,0,0.4,0.1,0.6l0,0.4
	c0,0.1,0,0.3,0,0.6c0,0.3,0,0.5,0,0.6c0,0.2-0.1,0.3-0.1,0.5v0.4c0,0.1,0,0.3,0,0.4c0,0.1,0,0.2,0,0.2c-0.1,0.3-0.2,0.6-0.2,1
	c-0.1,0.3-0.1,0.6-0.2,0.8c-0.3,0.7-0.7,1.3-1.1,1.8c-0.4,0.5-1,0.8-1.7,1.1c-0.2,0.1-0.4,0.1-0.6,0.2c-0.2,0-0.5,0.1-0.7,0.1h-0.3
	l-0.1,0c-0.1,0-0.2,0-0.3,0c-0.1,0-0.2,0-0.3-0.1c-0.1,0-0.2,0-0.3,0c-0.1,0-0.1,0-0.2,0c0,0-0.1,0-0.2,0c-0.3-0.1-0.5-0.1-0.7-0.2
	c-0.2-0.1-0.4-0.2-0.6-0.3c-0.7-0.4-1.2-0.9-1.5-1.4c-0.3-0.5-0.6-1.2-0.9-2.1c-0.1-0.2-0.1-0.4-0.1-0.6c0-0.2-0.1-0.4-0.1-0.7
	L300.5,104.2L300.5,104.2z"/>
<path d="M340.1,91.5c-0.2-0.2-0.5-0.2-0.8-0.2h-3.2c-0.4,0-0.8,0-1.1,0.1c-0.4,0.1-0.7,0.3-0.9,0.6c-0.2,0.2-0.2,0.5-0.2,0.9v9.1
	c0,0.8,0,1.6,0,2.4c0,0.8-0.1,1.5-0.2,2.1c-0.1,0.6-0.3,1.1-0.6,1.6c-0.3,0.5-0.7,0.9-1.2,1.2c-0.3,0.2-0.8,0.4-1.4,0.5l-0.1,0
	c0,0-0.1,0-0.1,0c-0.2-0.1-0.4,0-0.6,0c0,0-0.1,0-0.3,0c-0.2,0-0.3,0-0.4,0c-0.3-0.1-0.5,0-0.7-0.1c-0.8-0.2-1.4-0.6-1.8-1.2
	c-0.4-0.6-0.7-1.3-0.7-2.2c-0.1-0.9-0.1-1.9-0.1-3v-9.7c0-0.3,0-0.7,0-1c0-0.4-0.2-0.7-0.3-0.9c-0.1-0.2-0.4-0.4-0.8-0.5
	c-0.3,0-0.6,0-0.9,0h-3.3l-0.1,0c0,0-0.1,0-0.3,0l-0.1,0c-0.3,0.1-0.6,0.3-0.7,0.5c-0.2,0.3-0.3,0.7-0.2,1.3c0,0.5,0,1,0,1.3v6
	c0,1,0,2.1,0,3.1c0,1.1,0,2.1,0,3.1c0,1,0.2,2,0.3,2.8c0.2,0.9,0.5,1.7,0.9,2.3c0.6,1,1.5,1.9,2.6,2.5c0.1,0.1,0.3,0.1,0.4,0.2
	c0.1,0,0.2,0.1,0.4,0.2c0.3,0.1,0.7,0.2,1,0.3c0.3,0.1,0.7,0.1,1,0.2l0.1,0c0.1,0,0.3,0,0.4,0c0.1,0,0.3,0,0.4,0
	c0.1,0,0.3,0.1,0.6,0.1c0.1,0,0.2,0,0.3,0c0.2,0,0.3,0,0.4,0c0.1,0,0.2,0,0.3,0c0.2,0,0.3,0,0.5,0c0.2-0.1,0.4-0.1,0.6-0.1
	c0.2,0,0.5-0.1,0.7-0.1c0.9-0.2,1.8-0.6,2.5-1c0.2-0.1,0.3-0.2,0.4-0.3c0.1-0.1,0.2-0.2,0.3-0.2c0.2-0.1,0.4-0.3,0.5-0.4
	c0.1-0.1,0.3-0.2,0.4-0.3c0,0,0.1,0,0.1,0l0.1,0c0,0,0,0,0,0.1c0.1,0.1,0.1,0.3,0.1,0.4l0.1,0.5c0.1,0.2,0.1,0.4,0.2,0.5
	c0.2,0.3,0.5,0.5,0.8,0.5c0.3,0,0.6,0,0.9,0h2.4c0.3,0,0.7,0,1,0c0.4,0,0.7-0.2,0.9-0.5c0.2-0.2,0.2-0.5,0.2-0.9V93.5
	c0-0.4,0-0.7,0-1.1C340.6,92,340.4,91.7,340.1,91.5z"/>
<path d="M364.6,97.9c0,0,0-0.1,0-0.2l0-0.1c-0.1-0.2-0.1-0.4-0.1-0.6c0-0.2-0.1-0.5-0.1-0.7c-0.1-0.4-0.2-0.8-0.4-1.1
	c-0.1-0.4-0.3-0.8-0.5-1.1c-0.7-1.1-1.7-2-2.9-2.6c-1.2-0.6-2.8-0.8-4.6-0.8l0,0l-0.1,0c0,0,0,0-0.2,0c-0.2,0-0.4,0-0.5,0
	c-0.3,0.1-0.6,0.1-0.9,0.1c-0.3,0-0.6,0.1-0.9,0.2c-1,0.4-1.9,0.9-2.7,1.4c-0.3,0.2-0.5,0.4-0.7,0.7c-0.1,0.1-0.3,0.2-0.4,0.2
	l-0.1,0c0,0,0,0-0.1-0.1l0-0.1c0-0.1,0-0.3,0-0.4c-0.1-0.2-0.1-0.5-0.2-0.7c-0.1-0.3-0.3-0.5-0.6-0.6c-0.2-0.1-0.4-0.1-0.7-0.1
	c-0.2,0-0.5,0-0.7,0h-2.3c-0.2,0-0.4,0-0.5,0H344l-0.1,0c-0.2,0-0.3,0.1-0.5,0.1c-0.2,0.1-0.4,0.2-0.4,0.3c-0.2,0.2-0.3,0.5-0.3,0.9
	c0,0.3,0,0.6,0,0.9v18c0,0.4,0,0.9,0,1.4c0,0.6,0.1,1,0.4,1.4c0.2,0.2,0.5,0.4,0.9,0.4c0.3,0,0.7,0,1,0h2.2c0.5,0,0.9,0,1.3-0.1
	c0.4-0.1,0.8-0.3,0.9-0.8c0.1-0.2,0.2-0.5,0.2-0.8v-9c0-1.6,0.1-3.1,0.3-4.3c0.2-1.2,0.7-2.1,1.5-2.7c0.4-0.3,0.9-0.5,1.5-0.7
	c0.2-0.1,0.4,0,0.6-0.1c0.1,0,0.3,0,0.5-0.1c0.2,0,0.3,0,0.4,0c0.2,0.1,0.4,0.1,0.6,0.1c0.1,0,0.2,0,0.4,0.1
	c0.7,0.2,1.3,0.6,1.6,1.1c0.4,0.6,0.7,1.3,0.7,2.2c0.1,0.9,0.1,1.9,0.1,3v9.7c0,0.3,0,0.6,0,0.9c0,0.3,0.1,0.6,0.3,0.9
	c0.2,0.3,0.5,0.5,0.9,0.5c0.3,0,0.6,0.1,1,0.1h3.1c0.3,0,0.5,0,0.7-0.1c0.4-0.1,0.8-0.5,0.9-1.3c0-0.5,0-1.1,0-1.6V99.3
	C364.7,98.8,364.7,98.4,364.6,97.9L364.6,97.9z"/>
<path d="M388.3,84.4c-0.3,0-0.6,0-1,0h-3.1l0,0l-0.1,0c-0.1,0-0.2,0-0.4,0c-0.5,0.1-0.8,0.4-0.8,0.6c-0.2,0.3-0.3,0.6-0.3,1.1
	c0,0.4,0,0.8,0,1.1v4.6c0,0.1,0,0.1,0,0.2l0,0.5c-0.1,0.2-0.1,0.3-0.1,0.5c-0.1,0.1-0.1,0.1-0.3,0c-0.2-0.1-0.4-0.3-0.5-0.4
	c-0.2-0.1-0.4-0.3-0.6-0.4c-0.2-0.1-0.4-0.3-0.6-0.4c-0.4-0.2-0.8-0.4-1.2-0.5c-0.4-0.1-0.8-0.2-1.3-0.4c-0.2-0.1-0.5-0.1-0.8-0.1
	c-0.7-0.1-1.3-0.1-2,0c-0.4,0-0.6,0.1-0.9,0.1c-0.2,0.1-0.4,0.1-0.6,0.1c-0.2,0-0.5,0.1-0.7,0.1c-1,0.3-1.9,0.8-2.6,1.3
	c-0.2,0.1-0.3,0.2-0.4,0.3c-0.1,0.1-0.1,0.1-0.2,0.2l-0.1,0c-0.2,0.1-0.3,0.3-0.4,0.4c-0.1,0.1-0.3,0.3-0.4,0.4
	c0,0.1-0.1,0.1-0.2,0.2c-0.1,0.1-0.2,0.2-0.3,0.3c-0.6,0.8-1.2,1.7-1.6,2.6c-0.2,0.3-0.3,0.7-0.4,1c-0.1,0.3-0.2,0.7-0.3,1
	c-0.1,0.3-0.2,0.6-0.2,0.9c0,0.3-0.1,0.6-0.1,0.9c-0.1,0.2-0.1,0.4-0.1,0.6c0,0.1,0,0.2,0,0.4v0.4c0,0.1,0,0.2,0,0.3
	c0,0.1-0.1,0.3-0.1,0.5c0,0.2,0,0.4,0.1,0.6c0,0.1,0,0.2,0,0.4v0.4l0,0.1c0,0,0,0.1,0,0.2c0,0.2,0,0.3,0,0.4
	c0.1,0.3,0.1,0.6,0.2,0.8c0,0.3,0.1,0.6,0.2,0.8c0.1,0.1,0.1,0.2,0.1,0.3c0,0.1,0,0.3,0.1,0.4c0.1,0.3,0.2,0.6,0.3,0.9
	c0.1,0.3,0.2,0.7,0.4,1c0.5,1.1,1.2,2.1,2,3c0.8,1,1.8,1.7,2.9,2.1c0.3,0.2,0.7,0.3,1,0.4c0.3,0.1,0.7,0.2,1,0.3
	c0.2,0.1,0.4,0.1,0.6,0.1c0.1,0,0.3,0,0.4,0c0.2,0.1,0.5,0.1,0.9,0.1c0.1,0,0.1,0,0.2,0c0.3,0,0.5,0,0.6-0.1h0.3c0.2,0,0.3,0,0.4,0
	c0.1,0,0.2,0,0.3,0l0.1,0c0.2-0.1,0.5,0,0.8-0.1c0.5-0.1,0.9-0.3,1.4-0.4c0.2-0.1,0.3-0.1,0.4-0.2c0.1-0.1,0.3-0.1,0.4-0.2
	c0.2-0.1,0.4-0.3,0.6-0.4c0.2-0.1,0.4-0.2,0.6-0.4l0.4-0.4c0.1-0.1,0.2-0.1,0.3-0.1l0.2,0.2c0.1,0.2,0.1,0.4,0.1,0.6
	c0,0.3,0.2,0.6,0.5,0.8c0.2,0.2,0.5,0.3,0.8,0.3c0.3,0,0.5,0,0.8,0h2.4c0.3,0,0.6,0,0.9-0.1c0.3-0.1,0.6-0.2,0.8-0.4
	c0.2-0.3,0.3-0.7,0.3-1.2V86c0-0.4-0.1-0.8-0.3-1.1C389,84.6,388.7,84.4,388.3,84.4z M382.8,102.9c0,0.1,0,0.2,0,0.3l0,0.9
	c0,0.1,0,0.2,0,0.2c-0.1,0.2-0.1,0.4-0.1,0.6c0,0.1,0,0.2,0,0.3c-0.1,0.3-0.1,0.6-0.2,0.9c-0.1,0.3-0.1,0.5-0.2,0.8
	c-0.3,0.7-0.7,1.3-1.1,1.8c-0.4,0.5-1,0.9-1.6,1.1c-0.2,0.1-0.4,0.1-0.6,0.2c-0.3,0-0.5,0.1-0.7,0.1c-0.1,0-0.2,0-0.4,0
	c-0.2,0-0.3,0-0.3-0.1l-0.1,0c-0.3,0-0.4,0-0.5,0c-0.6-0.1-1.1-0.3-1.5-0.6c-1.1-0.7-2-1.8-2.4-3.2c-0.1-0.2-0.1-0.4-0.2-0.7
	c0-0.2-0.1-0.4-0.1-0.6c0-0.1,0-0.1,0-0.2c0-0.1,0-0.1,0-0.2l0-0.1c0-0.1-0.1-0.4-0.1-0.9c0-0.4,0-0.8,0-1l0-0.6
	c0.1-0.3,0.1-0.6,0.2-0.9c0-0.3,0.1-0.5,0.2-0.8c0.3-0.8,0.6-1.6,1-2.2c0.4-0.6,1-1.1,1.7-1.4c0.2-0.1,0.3-0.1,0.5-0.2l0.1,0
	c0.2,0,0.4-0.1,0.6-0.1c0.3-0.1,0.5-0.1,0.6-0.1c1.4,0,2.5,0.3,3.2,0.9c0.7,0.6,1.3,1.4,1.7,2.4c0.1,0.2,0.2,0.4,0.2,0.7
	c0,0.3,0.1,0.6,0.2,0.9c0.1,0.2,0.1,0.5,0.1,0.8c0,0.3,0,0.6,0,0.9C382.8,102.6,382.8,102.7,382.8,102.9z"/>
<path d="M211.9,91.2c-0.3,0-0.6,0-0.9,0h-2.7c-0.3,0-0.6,0-0.9,0c-0.4,0-0.7,0.1-0.9,0.3c-0.3,0.2-0.5,0.5-0.6,0.8
	c-0.1,0.2-0.2,0.4-0.2,0.7c-0.2,0.4-0.3,0.8-0.4,1.2c-0.1,0.4-0.2,0.8-0.4,1.2c-0.4,1.2-0.8,2.5-1.2,3.7c-0.4,1.2-0.8,2.4-1.2,3.7
	c-0.1,0.4-0.2,0.7-0.3,1.1c-0.1,0.3-0.2,0.7-0.3,1l-0.2,0.4c0,0.1-0.1,0.2-0.1,0.3c0,0,0,0-0.1,0c0,0,0,0,0,0
	c-0.1-0.3-0.2-0.6-0.3-0.8c-0.1-0.2-0.2-0.5-0.3-0.7c-0.1-0.3-0.2-0.6-0.3-0.9l-0.9-2.8c-0.2-0.6-0.5-1.3-0.7-1.9
	c-0.2-0.7-0.4-1.3-0.7-2.1c-0.1-0.3-0.3-0.7-0.4-1c-0.1-0.4-0.2-0.8-0.4-1.1c-0.1-0.4-0.3-0.9-0.4-1.3c-0.2-0.6-0.5-1.1-1-1.4
	c-0.3-0.2-0.6-0.2-1-0.2h-4.4l0,0c-0.1,0-0.2,0-0.3,0c-0.5,0.1-0.8,0.5-0.9,0.7c-0.1,0.4-0.1,0.8,0.1,1.2c0.1,0.3,0.2,0.6,0.3,0.8
	c0.2,0.5,0.4,1,0.6,1.5c0.2,0.6,0.4,1.1,0.7,1.7c0,0.2,0,0.3,0.1,0.5c0.5,1.1,0.9,2.3,1.3,3.4c0.4,1.2,0.8,2.4,1.3,3.5
	c0.1,0.3,0.3,0.7,0.4,1c0.1,0.4,0.2,0.7,0.4,1.1c0.2,0.5,0.4,1.1,0.6,1.7c0.2,0.6,0.4,1.1,0.7,1.7c0.2,0.5,0.9,2.3,1.4,4.3
	c0.1,0.5,0.1,1,0.2,1.5l0,0.2c0,2-1.3,2.4-2.4,2.6c-0.5,0.1-1.4,0.1-2,0.1c-0.3,0-0.5,0-0.5,0c-0.3,0-0.6,0.1-0.8,0.1
	c-0.4,0.2-0.8,0.6-0.8,1.5v2.7l0,0.1c0.1,0.2,0.1,0.4,0.2,0.6c0.1,0.3,0.2,0.5,0.5,0.7c0.2,0.1,0.4,0.2,0.8,0.3
	c0.3,0,0.6,0.1,0.9,0.1c0.3,0,1.6,0,1.8,0h1.2l0.1,0c0.1,0,0.4-0.1,0.6-0.1c0.4,0,0.6-0.1,0.8-0.1c0.5-0.2,1.1-0.3,1.5-0.5
	c0.5-0.2,1-0.4,1.4-0.7c0.5-0.4,1-0.8,1.3-1.2c0.3-0.4,0.6-0.9,0.9-1.4c0.3-0.6,0.5-1.1,0.7-1.6c0.1-0.4,0.8-2.4,1.5-4.3
	c0.4-1.3,0.8-2.4,1-3c0.2-0.5,0.4-1.1,0.6-1.8c0.5-1.5,1.1-3.3,1.5-4.4c0.1-0.4,0.3-0.8,0.4-1.2c0.1-0.4,0.3-0.8,0.4-1.2
	c0.2-0.5,0.4-0.9,0.5-1.4c0.1-0.5,0.3-0.9,0.5-1.3c0.4-1,0.8-2.1,1.2-3.2c0.4-1.1,0.8-2.1,1.2-3.2l0.3-0.7c0.1-0.3,0.2-0.5,0.2-0.7
	c0.2-0.7,0-1.1-0.2-1.3C212.6,91.4,212.3,91.2,211.9,91.2z"/>
<g>
	<path class="st1" d="M405.4,104.1c-0.2,0.2-0.4,0.3-0.7,0.4c-0.6,0.2-1.3,0.2-1.8-0.1c-0.3-0.1-0.5-0.3-0.7-0.5
		c-0.2-0.2-0.4-0.5-0.5-0.8c-0.1-0.3-0.2-0.6-0.2-1c0-0.3,0.1-0.7,0.2-1c0.1-0.3,0.3-0.6,0.5-0.8c0.2-0.2,0.4-0.4,0.7-0.5
		c0.5-0.2,1.2-0.3,1.8,0c0.3,0.1,0.5,0.3,0.7,0.5l0.2,0.2l0.6-0.5l-0.2-0.2c-0.3-0.3-0.6-0.5-0.9-0.6c-0.8-0.3-1.7-0.3-2.4,0
		c-0.4,0.2-0.7,0.4-1,0.7c-0.3,0.3-0.5,0.6-0.7,1c-0.2,0.4-0.2,0.8-0.2,1.3c0,0.5,0.1,0.9,0.2,1.3c0.2,0.4,0.4,0.7,0.7,1
		c0.3,0.3,0.6,0.5,1,0.7c0.4,0.2,0.8,0.2,1.2,0.2c0.4,0,0.7-0.1,1.1-0.2c0.4-0.1,0.7-0.3,1-0.6l0.2-0.2l-0.5-0.5L405.4,104.1z"/>
	<path class="st1" d="M410.8,99h-0.1c-0.5,0-0.9,0.1-1.3,0.4c-0.2,0.1-0.3,0.3-0.4,0.4l0-0.2c0-0.1,0-0.2,0-0.3l0-0.2h-0.8l0,0.3
		c0,0.1,0,0.2,0,0.3c0,0.1,0,0.2,0,0.4l0,0.4c0,0.1,0,0.2,0,0.3v4.4h0.8v-3.2c0-0.3,0-0.6,0.1-0.9c0.1-0.3,0.2-0.5,0.3-0.8
		c0.1-0.2,0.3-0.4,0.5-0.5c0.2-0.1,0.5-0.2,0.8-0.2l0.4,0.1V99l-0.2,0C410.8,99,410.8,99,410.8,99z"/>
	<path class="st1" d="M417.4,99.9c-0.2-0.3-0.5-0.5-0.9-0.7c-0.7-0.3-1.6-0.4-2.4,0c-0.4,0.2-0.7,0.4-0.9,0.7
		c-0.3,0.3-0.5,0.6-0.6,1c-0.1,0.4-0.2,0.8-0.2,1.3c0,0.5,0.1,0.9,0.2,1.3c0.1,0.4,0.4,0.8,0.6,1c0.3,0.3,0.6,0.5,1,0.7
		c0.4,0.2,0.8,0.2,1.2,0.2c0.5,0,1-0.1,1.4-0.3c0.4-0.2,0.8-0.5,1.1-0.9l0.1-0.2l-0.6-0.5l-0.2,0.2c-0.2,0.3-0.5,0.5-0.8,0.7
		c-0.6,0.3-1.5,0.3-2.1,0c-0.3-0.1-0.5-0.3-0.7-0.6c-0.2-0.2-0.3-0.5-0.4-0.8c-0.1-0.2-0.1-0.5-0.1-0.7h5v-0.5
		c0-0.4-0.1-0.7-0.2-1.1C417.8,100.5,417.6,100.2,417.4,99.9z M414.2,100c0.5-0.3,1.3-0.3,1.8-0.1c0.3,0.1,0.5,0.2,0.6,0.4
		c0.2,0.2,0.3,0.4,0.4,0.7c0.1,0.2,0.1,0.4,0.2,0.7h-4.2c0-0.1,0.1-0.3,0.1-0.4c0.1-0.3,0.2-0.5,0.4-0.7
		C413.8,100.3,414,100.1,414.2,100z"/>
	<path class="st1" d="M424.9,104.4c0-0.2,0-0.4,0-0.7v-2.5c0-0.8-0.2-1.4-0.6-1.7c-0.4-0.4-1-0.6-1.7-0.6c-0.3,0-0.7,0.1-1.1,0.2
		c-0.4,0.1-0.7,0.3-1,0.6l-0.2,0.1l0.4,0.6l0.2-0.2c0.2-0.2,0.4-0.3,0.7-0.4c0.3-0.1,0.5-0.2,0.8-0.2c0.5,0,0.9,0.1,1.1,0.4
		c0.3,0.2,0.4,0.6,0.4,1.2v0.2h-0.7c-0.3,0-0.6,0-1,0.1c-0.4,0-0.7,0.1-1.1,0.3c-0.3,0.1-0.6,0.4-0.9,0.6c-0.2,0.3-0.4,0.7-0.4,1.1
		c0,0.3,0.1,0.6,0.2,0.8c0.1,0.2,0.3,0.4,0.5,0.6c0.2,0.1,0.4,0.3,0.7,0.3c0.2,0.1,0.5,0.1,0.7,0.1c0.5,0,1-0.1,1.4-0.4
		c0.2-0.1,0.4-0.3,0.5-0.5c0,0.1,0,0.1,0,0.2c0,0.1,0,0.2,0,0.3l0,0.2h0.8l0-0.3C424.9,104.8,424.9,104.6,424.9,104.4z M424.1,102.2
		v0.3c0,0.3,0,0.5-0.1,0.8c-0.1,0.3-0.2,0.5-0.3,0.7c-0.1,0.2-0.3,0.4-0.6,0.5c-0.3,0.2-0.8,0.3-1.4,0.1c-0.2,0-0.3-0.1-0.4-0.2
		c-0.1-0.1-0.2-0.2-0.3-0.3c-0.1-0.1-0.1-0.3-0.1-0.5c0-0.3,0.1-0.5,0.2-0.7c0.2-0.2,0.4-0.3,0.6-0.4c0.3-0.1,0.5-0.2,0.9-0.2
		c0.3,0,0.6-0.1,0.9-0.1H424.1z"/>
	<path class="st1" d="M429.9,104.6c-0.4,0.1-0.9,0.1-1.1-0.1c-0.1-0.1-0.2-0.3-0.2-0.6v-4h1.6v-0.7h-1.6v-1.6h-0.8v1.6h-1.2v0.7h1.2
		v4c0,0.4,0.1,0.8,0.3,1.1c0.2,0.3,0.6,0.5,1.1,0.5c0.1,0,0.3,0,0.4,0c0.1,0,0.3-0.1,0.4-0.1l0.2-0.1l-0.1-0.7L429.9,104.6z"/>
	<path class="st1" d="M432.3,97.4c-0.1,0.1-0.2,0.2-0.2,0.4c0,0.2,0.1,0.3,0.2,0.4c0.1,0.1,0.2,0.2,0.4,0.2c0.1,0,0.2,0,0.4-0.2
		c0.1-0.1,0.2-0.2,0.2-0.4c0-0.2-0.1-0.3-0.2-0.4C432.9,97.2,432.5,97.2,432.3,97.4z"/>
	<rect x="432.3" y="99.2" class="st1" width="0.8" height="6.1"/>
	<polygon class="st1" points="437.8,104.1 435.8,99.2 435,99.2 437.4,105.3 438.1,105.3 440.5,99.2 439.6,99.2 	"/>
	<path class="st1" d="M447,99.9c-0.2-0.3-0.5-0.5-0.9-0.7c-0.7-0.3-1.6-0.4-2.4,0c-0.4,0.2-0.7,0.4-0.9,0.7c-0.3,0.3-0.5,0.6-0.6,1
		c-0.1,0.4-0.2,0.8-0.2,1.3c0,0.5,0.1,0.9,0.2,1.3c0.1,0.4,0.4,0.8,0.6,1c0.3,0.3,0.6,0.5,1,0.7c0.4,0.2,0.8,0.2,1.2,0.2
		c0.5,0,1-0.1,1.4-0.3c0.4-0.2,0.8-0.5,1.1-0.9l0.1-0.2l-0.6-0.5l-0.2,0.2c-0.2,0.3-0.5,0.5-0.8,0.7c-0.6,0.3-1.5,0.3-2.1,0
		c-0.3-0.1-0.5-0.3-0.7-0.6c-0.2-0.2-0.3-0.5-0.4-0.8c-0.1-0.2-0.1-0.5-0.1-0.7h5v-0.5c0-0.4-0.1-0.7-0.2-1.1
		C447.4,100.5,447.2,100.2,447,99.9z M443.8,100c0.5-0.3,1.3-0.3,1.8-0.1c0.3,0.1,0.5,0.3,0.6,0.4c0.2,0.2,0.3,0.4,0.4,0.7
		c0.1,0.2,0.1,0.4,0.2,0.7h-4.2c0-0.1,0.1-0.3,0.1-0.4c0.1-0.2,0.2-0.5,0.4-0.7C443.3,100.3,443.6,100.1,443.8,100z"/>
	<path class="st1" d="M462.7,99.9c-0.2-0.3-0.4-0.5-0.7-0.6c-0.3-0.2-0.6-0.2-1.1-0.2c-0.5,0-1,0.2-1.5,0.5
		c-0.3,0.2-0.5,0.4-0.6,0.7c0,0,0,0,0-0.1c-0.1-0.2-0.2-0.4-0.4-0.6c-0.2-0.2-0.4-0.3-0.6-0.4c-0.4-0.2-1.1-0.2-1.6,0
		c-0.2,0.1-0.5,0.2-0.7,0.4c-0.2,0.1-0.3,0.3-0.5,0.5l0-0.3c0-0.1,0-0.2,0-0.3l0-0.2h-0.8l0,0.3c0,0.1,0,0.2,0,0.3
		c0,0.1,0,0.2,0,0.4l0,0.4c0,0.1,0,0.2,0,0.3v4.4h0.8v-3.1c0-0.4,0.1-0.8,0.2-1.1c0.1-0.3,0.2-0.6,0.4-0.8c0.2-0.2,0.4-0.4,0.6-0.5
		c0.5-0.2,1.1-0.2,1.4,0c0.2,0.1,0.3,0.3,0.4,0.4c0.1,0.2,0.2,0.4,0.2,0.6c0,0.2,0.1,0.5,0.1,0.7v3.6h0.8v-3.1
		c0-0.4,0.1-0.8,0.2-1.1c0.1-0.3,0.2-0.6,0.4-0.8c0.2-0.2,0.4-0.4,0.6-0.5c0.5-0.2,1.1-0.2,1.4,0c0.2,0.1,0.3,0.3,0.4,0.5
		c0.1,0.2,0.2,0.4,0.2,0.6c0,0.2,0.1,0.5,0.1,0.7v3.6h0.8v-3.6c0-0.3,0-0.6-0.1-0.9C463,100.4,462.8,100.1,462.7,99.9z"/>
	<path class="st1" d="M471,104.7c0-0.1,0-0.2,0-0.4l0-0.4c0-0.1,0-0.2,0-0.3v-4.4h-0.8v3.1c0,0.4-0.1,0.8-0.2,1.1
		c-0.1,0.3-0.3,0.6-0.4,0.8c-0.2,0.2-0.4,0.4-0.6,0.5c-0.5,0.2-1.2,0.2-1.5,0c-0.2-0.1-0.3-0.3-0.5-0.5c-0.1-0.2-0.2-0.4-0.2-0.6
		c0-0.2-0.1-0.5-0.1-0.7v-3.6H466v3.6c0,0.3,0,0.6,0.1,0.9c0.1,0.3,0.2,0.6,0.4,0.9c0.2,0.3,0.4,0.5,0.7,0.6
		c0.3,0.2,0.7,0.2,1.1,0.2c0.3,0,0.5,0,0.8-0.1c0.3-0.1,0.5-0.2,0.7-0.4c0.2-0.1,0.4-0.3,0.5-0.5l0,0.3c0,0.1,0,0.2,0,0.3l0,0.2h0.5
		l0.3-0.1l0-0.3C471,104.9,471,104.8,471,104.7z"/>
	<path class="st1" d="M477.1,102.3c-0.2-0.1-0.4-0.2-0.6-0.3c-0.2-0.1-0.4-0.1-0.7-0.2c-0.2-0.1-0.4-0.1-0.6-0.2
		c-0.2-0.1-0.3-0.1-0.4-0.2c-0.1-0.1-0.2-0.1-0.2-0.3c-0.1-0.1-0.1-0.3-0.1-0.5c0-0.2,0-0.3,0.1-0.4c0.1-0.1,0.2-0.2,0.3-0.3
		c0.1-0.1,0.3-0.1,0.4-0.2c0.4-0.1,0.9-0.1,1.2,0.1c0.2,0.1,0.4,0.3,0.5,0.5l0.1,0.2l0.7-0.4l-0.2-0.2c-0.4-0.6-1.1-0.9-1.9-0.9
		c-0.2,0-0.5,0-0.7,0.1c-0.2,0.1-0.4,0.2-0.6,0.3c-0.2,0.1-0.3,0.3-0.5,0.5c-0.1,0.2-0.2,0.5-0.2,0.8c0,0.3,0,0.5,0.1,0.7
		c0.1,0.2,0.2,0.4,0.4,0.5c0.2,0.1,0.3,0.2,0.5,0.3c0.2,0.1,0.4,0.1,0.6,0.2c0.2,0,0.4,0.1,0.6,0.2c0.2,0.1,0.4,0.1,0.5,0.2
		c0.1,0.1,0.3,0.2,0.4,0.3c0.1,0.1,0.1,0.3,0.1,0.5c0,0.2,0,0.3-0.1,0.5c-0.1,0.1-0.2,0.3-0.3,0.3c-0.1,0.1-0.3,0.2-0.4,0.2
		c-0.2,0-0.3,0.1-0.5,0.1c-0.7,0-1.2-0.2-1.6-0.7l-0.1-0.2l-0.6,0.4l0.1,0.2c0.2,0.3,0.6,0.6,0.9,0.8c0.4,0.2,0.8,0.3,1.2,0.3
		c0.3,0,0.5,0,0.8-0.1c0.2-0.1,0.5-0.2,0.7-0.4c0.2-0.2,0.3-0.4,0.5-0.6c0.1-0.2,0.2-0.5,0.2-0.8c0-0.3-0.1-0.5-0.2-0.8
		C477.4,102.6,477.3,102.4,477.1,102.3z"/>
	<path class="st1" d="M480.1,97.4c-0.1,0.1-0.2,0.2-0.2,0.4c0,0.2,0.1,0.3,0.2,0.4c0.1,0.1,0.2,0.2,0.4,0.2c0.1,0,0.2,0,0.4-0.1
		c0.1-0.1,0.2-0.2,0.2-0.4c0-0.2-0.1-0.3-0.2-0.4C480.7,97.2,480.3,97.2,480.1,97.4z"/>
	<rect x="480.1" y="99.2" class="st1" width="0.8" height="6.1"/>
	<path class="st1" d="M488,104.1c-0.2,0.2-0.4,0.3-0.7,0.4c-0.6,0.2-1.3,0.2-1.8-0.1c-0.3-0.1-0.5-0.3-0.7-0.5
		c-0.2-0.2-0.4-0.5-0.5-0.8c-0.1-0.3-0.2-0.6-0.2-1c0-0.3,0.1-0.7,0.2-1c0.1-0.3,0.3-0.6,0.5-0.8c0.2-0.2,0.4-0.4,0.7-0.5
		c0.5-0.2,1.2-0.3,1.8,0c0.3,0.1,0.5,0.3,0.7,0.5l0.2,0.2l0.6-0.5l-0.2-0.2c-0.2-0.3-0.6-0.5-0.9-0.6c-0.8-0.3-1.7-0.3-2.4,0
		c-0.4,0.2-0.7,0.4-1,0.7c-0.3,0.3-0.5,0.6-0.7,1c-0.2,0.4-0.2,0.8-0.2,1.3c0,0.5,0.1,0.9,0.2,1.3c0.2,0.4,0.4,0.7,0.7,1
		c0.3,0.3,0.6,0.5,1,0.7c0.4,0.2,0.8,0.2,1.2,0.2c0.4,0,0.7-0.1,1.1-0.2c0.4-0.1,0.7-0.3,1-0.6l0.2-0.2l-0.5-0.5L488,104.1z"/>
	<path class="st1" d="M498.9,104.2c-0.2,0.2-0.4,0.3-0.7,0.4c-0.6,0.2-1.3,0.2-1.8-0.1c-0.3-0.1-0.5-0.3-0.7-0.5
		c-0.2-0.2-0.4-0.5-0.5-0.8c-0.1-0.3-0.2-0.6-0.2-1c0-0.3,0.1-0.7,0.2-1c0.1-0.3,0.3-0.6,0.5-0.8c0.2-0.2,0.4-0.4,0.7-0.5
		c0.5-0.2,1.2-0.3,1.8,0c0.3,0.1,0.5,0.3,0.7,0.5l0.2,0.2l0.6-0.5l-0.2-0.2c-0.2-0.3-0.6-0.5-0.9-0.6c-0.8-0.3-1.7-0.3-2.4,0
		c-0.4,0.2-0.7,0.4-1,0.7c-0.3,0.3-0.5,0.6-0.7,1c-0.2,0.4-0.2,0.8-0.2,1.3c0,0.5,0.1,0.9,0.2,1.3c0.2,0.4,0.4,0.7,0.7,1
		c0.3,0.3,0.6,0.5,1,0.7c0.4,0.2,0.8,0.2,1.2,0.2c0.4,0,0.7-0.1,1.1-0.2c0.4-0.1,0.7-0.3,1-0.6l0.2-0.2l-0.5-0.5L498.9,104.2z"/>
	<path class="st1" d="M506.6,99.9c-0.3-0.3-0.6-0.5-1-0.7c-0.8-0.3-1.8-0.3-2.6,0c-0.4,0.2-0.7,0.4-1,0.7c-0.3,0.3-0.5,0.6-0.7,1
		c-0.2,0.4-0.2,0.8-0.2,1.3c0,0.5,0.1,0.9,0.2,1.3c0.2,0.4,0.4,0.7,0.7,1c0.3,0.3,0.6,0.5,1,0.7c0.4,0.2,0.8,0.2,1.3,0.2
		c0.5,0,0.9-0.1,1.3-0.2c0.4-0.2,0.7-0.4,1-0.7c0.3-0.3,0.5-0.6,0.7-1c0.2-0.4,0.2-0.8,0.2-1.3c0-0.5-0.1-0.9-0.2-1.3
		C507.1,100.5,506.9,100.2,506.6,99.9z M504.3,99.7c0.4,0,0.7,0.1,1,0.2c0.3,0.1,0.5,0.3,0.8,0.5c0.2,0.2,0.4,0.5,0.5,0.8
		c0.1,0.3,0.2,0.6,0.2,1c0,0.3-0.1,0.7-0.2,1c-0.1,0.3-0.3,0.6-0.5,0.8c-0.2,0.2-0.5,0.4-0.8,0.5c-0.6,0.3-1.4,0.3-2,0
		c-0.3-0.1-0.5-0.3-0.8-0.5c-0.2-0.2-0.4-0.5-0.5-0.8c-0.1-0.3-0.2-0.6-0.2-1c0-0.3,0.1-0.7,0.2-1c0.1-0.3,0.3-0.6,0.5-0.8
		c0.2-0.2,0.5-0.4,0.8-0.5C503.6,99.8,503.9,99.7,504.3,99.7z"/>
	<path class="st1" d="M515.1,99.9c-0.3-0.3-0.6-0.5-1-0.7c-0.8-0.3-1.8-0.3-2.6,0c-0.4,0.2-0.7,0.4-1,0.7c-0.3,0.3-0.5,0.6-0.7,1
		c-0.2,0.4-0.2,0.8-0.2,1.3c0,0.5,0.1,0.9,0.2,1.3c0.2,0.4,0.4,0.7,0.7,1c0.3,0.3,0.6,0.5,1,0.7c0.4,0.2,0.8,0.2,1.3,0.2
		c0.5,0,0.9-0.1,1.3-0.2c0.4-0.2,0.7-0.4,1-0.7c0.3-0.3,0.5-0.6,0.7-1c0.2-0.4,0.2-0.8,0.2-1.3c0-0.5-0.1-0.9-0.2-1.3
		C515.6,100.5,515.4,100.2,515.1,99.9z M511.8,104.5c-0.3-0.1-0.5-0.3-0.8-0.5c-0.2-0.2-0.4-0.5-0.5-0.8c-0.1-0.3-0.2-0.6-0.2-1
		c0-0.3,0.1-0.7,0.2-1c0.1-0.3,0.3-0.6,0.5-0.8c0.2-0.2,0.5-0.4,0.8-0.5c0.3-0.1,0.6-0.2,1-0.2c0.4,0,0.7,0.1,1,0.2
		c0.3,0.1,0.6,0.3,0.8,0.5c0.2,0.2,0.4,0.5,0.5,0.8c0.1,0.3,0.2,0.6,0.2,1c0,0.3-0.1,0.7-0.2,1c-0.1,0.3-0.3,0.6-0.5,0.8
		c-0.2,0.2-0.5,0.4-0.8,0.5C513.2,104.8,512.4,104.8,511.8,104.5z"/>
	<path class="st1" d="M523.8,99.9c-0.3-0.3-0.6-0.5-1-0.7c-0.9-0.4-2-0.3-2.9,0.2c-0.3,0.2-0.5,0.4-0.7,0.6v-0.9h-0.8v9h0.8v-3.8
		c0,0,0,0,0,0c0.2,0.2,0.4,0.4,0.7,0.6c0.2,0.2,0.5,0.3,0.8,0.4c0.7,0.2,1.5,0.1,2.1-0.1c0.4-0.2,0.7-0.4,1-0.7
		c0.3-0.3,0.5-0.6,0.6-1c0.1-0.4,0.2-0.8,0.2-1.3c0-0.5-0.1-0.9-0.2-1.3C524.2,100.6,524,100.2,523.8,99.9z M520.6,104.5
		c-0.3-0.1-0.5-0.3-0.7-0.5c-0.2-0.2-0.4-0.5-0.5-0.8c-0.1-0.3-0.2-0.6-0.2-1c0-0.3,0.1-0.7,0.2-1c0.1-0.3,0.3-0.6,0.5-0.8
		c0.2-0.2,0.5-0.4,0.7-0.5c0.3-0.1,0.6-0.2,0.9-0.2c0.4,0,0.7,0.1,0.9,0.2c0.3,0.1,0.5,0.3,0.7,0.5c0.2,0.2,0.3,0.5,0.5,0.8
		c0.1,0.3,0.2,0.6,0.2,1c0,0.3-0.1,0.7-0.2,1c-0.1,0.3-0.3,0.6-0.5,0.8c-0.2,0.2-0.4,0.4-0.7,0.5C522,104.8,521.2,104.8,520.6,104.5
		z"/>
	<path class="st1" d="M531.7,99.9c-0.2-0.3-0.5-0.5-0.9-0.7c-0.7-0.3-1.6-0.4-2.4,0c-0.4,0.2-0.7,0.4-0.9,0.7
		c-0.3,0.3-0.5,0.6-0.6,1c-0.1,0.4-0.2,0.8-0.2,1.3c0,0.5,0.1,0.9,0.2,1.3c0.1,0.4,0.4,0.8,0.6,1c0.3,0.3,0.6,0.5,1,0.7
		c0.4,0.2,0.8,0.2,1.2,0.2c0.5,0,1-0.1,1.4-0.3c0.4-0.2,0.8-0.5,1.1-0.9l0.1-0.2l-0.6-0.5l-0.2,0.2c-0.2,0.3-0.5,0.5-0.8,0.7
		c-0.3,0.2-0.7,0.2-1.1,0.2c-0.4,0-0.7-0.1-1-0.2c-0.3-0.1-0.5-0.3-0.7-0.6c-0.2-0.2-0.3-0.5-0.4-0.8c-0.1-0.2-0.1-0.5-0.1-0.7h5
		v-0.5c0-0.4-0.1-0.7-0.2-1.1C532.1,100.5,531.9,100.2,531.7,99.9z M528.6,100c0.5-0.3,1.3-0.3,1.8-0.1c0.3,0.1,0.5,0.3,0.6,0.4
		c0.2,0.2,0.3,0.4,0.4,0.7c0.1,0.2,0.1,0.4,0.2,0.7h-4.2c0-0.1,0.1-0.3,0.1-0.4c0.1-0.3,0.2-0.5,0.4-0.7
		C528.1,100.3,528.3,100.1,528.6,100z"/>
	<path class="st1" d="M537.5,99h-0.1c-0.5,0-0.9,0.1-1.3,0.4c-0.2,0.1-0.3,0.3-0.4,0.4l0-0.2c0-0.1,0-0.2,0-0.3l0-0.2h-0.8l0,0.3
		c0,0.1,0,0.2,0,0.3c0,0.1,0,0.2,0,0.4l0,0.4c0,0.1,0,0.2,0,0.3v4.4h0.8v-3.2c0-0.3,0-0.6,0.1-0.9c0.1-0.3,0.2-0.5,0.3-0.8
		c0.1-0.2,0.3-0.4,0.5-0.5c0.2-0.1,0.5-0.2,0.8-0.2l0.4,0.1V99l-0.2,0C537.6,99,537.6,99,537.5,99z"/>
	<path class="st1" d="M544,104.4c0-0.2,0-0.5,0-0.7v-2.5c0-0.8-0.2-1.4-0.6-1.7c-0.4-0.4-1-0.6-1.7-0.6c-0.3,0-0.7,0.1-1.1,0.2
		c-0.4,0.1-0.7,0.3-1,0.6l-0.2,0.1l0.4,0.6l0.2-0.2c0.2-0.2,0.4-0.3,0.7-0.4c0.3-0.1,0.5-0.2,0.8-0.2c0.5,0,0.9,0.1,1.1,0.4
		c0.3,0.2,0.4,0.6,0.4,1.2v0.2h-0.7c-0.3,0-0.6,0-1,0.1c-0.4,0-0.7,0.1-1.1,0.3c-0.3,0.1-0.6,0.4-0.9,0.6c-0.2,0.3-0.4,0.7-0.4,1.1
		c0,0.3,0.1,0.6,0.2,0.8c0.1,0.2,0.3,0.4,0.5,0.6c0.2,0.1,0.4,0.3,0.7,0.3c0.2,0.1,0.5,0.1,0.7,0.1c0.5,0,1-0.1,1.4-0.4
		c0.2-0.1,0.4-0.3,0.5-0.5c0,0.1,0,0.1,0,0.2c0,0.1,0,0.2,0,0.3l0,0.2h0.7l0-0.3C544,104.8,544,104.6,544,104.4z M543.2,102.2v0.3
		c0,0.2,0,0.5-0.1,0.8c-0.1,0.3-0.2,0.5-0.3,0.7c-0.2,0.2-0.3,0.4-0.6,0.5c-0.3,0.2-0.8,0.3-1.4,0.1c-0.2,0-0.3-0.1-0.4-0.2
		c-0.1-0.1-0.2-0.2-0.3-0.3c-0.1-0.1-0.1-0.3-0.1-0.5c0-0.3,0.1-0.5,0.2-0.7c0.2-0.2,0.4-0.3,0.6-0.4c0.3-0.1,0.6-0.2,0.9-0.2
		c0.3,0,0.6-0.1,0.9-0.1H543.2z"/>
	<path class="st1" d="M549,104.6c-0.4,0.1-0.9,0.1-1.1-0.1c-0.1-0.1-0.2-0.3-0.2-0.6v-4h1.6v-0.7h-1.6v-1.6h-0.8v1.6h-1.2v0.7h1.2v4
		c0,0.4,0.1,0.8,0.3,1.1c0.2,0.3,0.6,0.5,1.1,0.5c0.1,0,0.3,0,0.4,0c0.1,0,0.3-0.1,0.4-0.1l0.2-0.1l-0.1-0.7L549,104.6z"/>
	<path class="st1" d="M551.5,97.4c-0.1,0.1-0.2,0.2-0.2,0.4c0,0.2,0.1,0.3,0.2,0.4c0.1,0.1,0.2,0.2,0.4,0.2c0.1,0,0.2,0,0.4-0.2
		c0.1-0.1,0.2-0.2,0.2-0.4c0-0.2-0.1-0.3-0.2-0.4C552,97.1,551.6,97.2,551.5,97.4z"/>
	<rect x="551.4" y="99.2" class="st1" width="0.8" height="6.1"/>
	<polygon class="st1" points="556.9,104.1 555,99.2 554.1,99.2 556.5,105.3 557.2,105.3 559.6,99.2 558.7,99.2 	"/>
	<path class="st1" d="M566.8,101.9c0-0.4-0.1-0.7-0.2-1.1c-0.1-0.4-0.3-0.7-0.5-0.9c-0.2-0.3-0.5-0.5-0.9-0.7
		c-0.7-0.3-1.6-0.4-2.4,0c-0.4,0.2-0.7,0.4-0.9,0.7c-0.3,0.3-0.5,0.6-0.6,1c-0.1,0.4-0.2,0.8-0.2,1.3c0,0.5,0.1,0.9,0.2,1.3
		c0.1,0.4,0.4,0.8,0.6,1c0.3,0.3,0.6,0.5,1,0.7c0.4,0.2,0.8,0.2,1.2,0.2c0.5,0,1-0.1,1.4-0.3c0.4-0.2,0.8-0.5,1.1-0.9l0.1-0.2
		l-0.6-0.5l-0.2,0.2c-0.2,0.3-0.5,0.5-0.8,0.7c-0.3,0.2-0.7,0.2-1.1,0.2c-0.4,0-0.7-0.1-1-0.2c-0.3-0.1-0.5-0.3-0.7-0.6
		c-0.2-0.2-0.3-0.5-0.4-0.8c-0.1-0.2-0.1-0.5-0.1-0.7h5V101.9z M563,100c0.3-0.2,0.6-0.2,1-0.2c0.3,0,0.6,0.1,0.9,0.2
		c0.3,0.1,0.5,0.2,0.6,0.4c0.2,0.2,0.3,0.4,0.4,0.7c0.1,0.2,0.1,0.4,0.2,0.7h-4.2c0-0.1,0.1-0.3,0.1-0.4c0.1-0.2,0.2-0.5,0.4-0.7
		C562.5,100.3,562.7,100.1,563,100z"/>
</g>
<path class="st0" d="M96.1,241.2c0,0.2,0,0.4,0.1,0.6v0.7l0,0.1c0.1,0.2,0.1,0.4,0.1,0.5c0,0.3,0,0.5,0.1,0.8
	c0.1,0.1,0.1,0.2,0.1,0.3c0,0.1,0,0.3,0.1,0.4c0.1,0.3,0.2,0.6,0.3,1c0.1,0.3,0.2,0.7,0.4,0.9c0.6,1.4,1.4,2.6,2.4,3.6
	c1,1,2.2,1.7,3.6,2.3c0.3,0.1,0.6,0.2,0.9,0.3c0.3,0.1,0.6,0.2,1,0.3c0.2,0,0.3,0.1,0.5,0.1c0.1,0,0.3,0,0.4,0.1
	c0.2,0.1,0.5,0.1,0.7,0.1c0.2,0,0.3,0,0.6,0.1c0.2,0,0.4,0.1,0.7,0.1c0.1,0,0.1,0,0.2,0c0.2,0,0.4,0,0.6-0.1l0.5,0
	c0.4-0.1,0.7,0,1.1-0.1c0.3-0.1,0.6-0.1,0.9-0.2c0.3,0,0.7-0.1,1-0.2c2.7-0.9,4.7-2.6,6-4.9c0.4-0.8,0.7-1.7,1-2.7
	c0.1-0.3,0.1-0.6,0-0.8c-0.1-0.3-0.2-0.5-0.4-0.7c-0.1-0.1-0.3-0.2-0.5-0.2c-0.1,0-0.2,0-0.3-0.1l-0.4,0c-0.2-0.1-0.4-0.1-0.6-0.1
	c-0.2,0-0.4,0-0.6,0c-0.4,0-0.9,0-1.5,0c-0.6,0-1.1,0-1.4,0.2c-0.4,0.2-0.7,0.5-0.8,0.8l-0.3,0.9c-0.1,0.1-0.1,0.3-0.2,0.5
	c-0.1,0.2-0.2,0.3-0.3,0.5c-0.4,0.7-1.1,1.2-1.9,1.5c-0.2,0.1-0.3,0.1-0.5,0.1c-0.2,0-0.4,0.1-0.6,0.1l-0.4,0l-0.1,0c0,0,0,0-0.1,0
	l-0.2,0c-0.5-0.1-0.9-0.1-1.2-0.2c-0.3-0.1-0.6-0.2-0.9-0.4c-0.3-0.1-0.4-0.2-0.5-0.3c-0.5-0.4-0.9-0.8-1.2-1.3
	c-0.3-0.5-0.6-1.1-0.8-1.8c-0.1-0.2-0.1-0.4-0.1-0.6c0-0.2-0.1-0.5-0.1-0.7c0,0,0-0.1,0-0.4c-0.1-0.3-0.1-0.7-0.1-1.2
	c0-0.5,0-0.9,0.1-1.1c0-0.1,0.1-0.3,0.1-0.4c0-0.1,0-0.2,0-0.3c0.1-0.4,0.2-0.8,0.2-1.2c0.1-0.3,0.2-0.7,0.3-1
	c0.3-0.7,0.7-1.4,1.2-1.9c0.5-0.5,1.1-0.9,1.9-1.1c0.3-0.1,0.8-0.2,1.3-0.2h0.4c0.3,0.1,0.6,0,1,0.2c0.5,0.1,0.9,0.3,1.3,0.6
	c0.2,0.2,0.5,0.4,0.6,0.6c0.2,0.3,0.4,0.5,0.5,0.8c0.1,0.2,0.2,0.5,0.3,0.7c0.1,0.3,0.3,0.6,0.6,0.7c0.2,0.2,0.5,0.2,0.9,0.2h3.1
	c0.4,0,0.8,0,1.1-0.1c0.3,0,0.7-0.2,0.9-0.8c0.1-0.2,0.1-0.5,0-0.8c0-0.2-0.1-0.5-0.2-0.6c-0.2-1-0.6-1.8-1.1-2.5
	c-1-1.5-2.3-2.6-4-3.4c-1.7-0.8-3.7-1.2-6.2-1.1l0,0c-0.5,0.1-0.8,0-1.4,0.1c-0.5,0.1-0.9,0.2-1.3,0.3c-0.5,0.1-0.9,0.2-1.4,0.4
	c-1.6,0.6-2.9,1.5-3.9,2.5c-1,1-1.9,2.3-2.5,3.9c-0.2,0.5-0.3,1-0.4,1.5c-0.1,0.5-0.2,1-0.3,1.5c-0.1,0.2-0.1,0.4-0.1,0.7
	c0,0.1,0,0.3-0.1,0.5c0,0.2,0,0.3,0,0.5c0,0.1,0,0.1,0,0.2C96.2,240.8,96.1,241,96.1,241.2z"/>
<path class="st0" d="M142,250.6L142,250.6c0-0.1,0-0.2,0-0.2c0-0.1,0-0.3-0.1-0.4c-0.1-0.4-0.2-0.9-0.2-1.5v-11.6c0-0.7,0-1.4,0-2
	c0-0.7-0.2-1.3-0.4-1.8c-0.4-0.9-0.9-1.7-1.6-2.2c-0.7-0.6-1.5-1-2.4-1.4c-0.9-0.3-2-0.6-3.1-0.7c-1.1-0.1-2.3-0.2-3.5-0.1l-0.1,0
	l-0.1,0.1c0,0-0.1,0-0.2,0c-0.3,0-0.5,0-0.7,0c-0.4,0.1-0.7,0.1-1.1,0.2c-0.4,0-0.8,0.1-1.2,0.2c-0.6,0.2-1.2,0.4-1.7,0.6
	c-0.6,0.2-1.1,0.5-1.7,0.8c-0.2,0.1-0.3,0.2-0.4,0.3c-0.1,0.1-0.3,0.2-0.4,0.3c-0.1,0.1-0.2,0.2-0.2,0.2l-0.1,0
	c-0.4,0.3-0.7,0.6-1,1l-0.5,0.9c-0.2,0.3-0.3,0.5-0.4,0.8c-0.1,0.3-0.2,0.6-0.3,0.9c0,0.1-0.1,0.3-0.1,0.4c0,0.2,0,0.4,0,0.6
	c0.1,0.5,0.4,0.7,0.6,0.8c0.1,0.1,0.2,0.1,0.4,0.1c0,0,0.1,0,0.1,0l0.5,0c0.1,0,0.3,0,0.5,0c0.1,0,0.3,0,0.4,0h2.5
	c0.3,0,0.6,0,0.8-0.1c0.5-0.1,0.8-0.5,0.9-0.7c0.1-0.3,0.2-0.5,0.4-0.9c0-0.1,0.1-0.3,0.3-0.5c0.1-0.2,0.3-0.3,0.4-0.4
	c0.1-0.1,0.3-0.2,0.4-0.3c0.1-0.1,0.3-0.2,0.4-0.2c0.2-0.1,0.5-0.1,0.9-0.2c0.3-0.1,0.7-0.1,1.1-0.1c0.4,0,0.7,0,1.1,0
	c0.3,0,0.6,0.1,0.9,0.2c0.8,0.3,1.4,0.8,1.7,1.6c0,0.1,0,0.2,0.1,0.2c0,0.1,0,0.2,0.1,0.4v0.2c0,0.1,0,0.1,0,0.1
	c-0.1,0.1-0.1,0.3,0,0.4l0,0.1c-0.1,0.3-0.2,0.5-0.4,0.7c-0.4,0.4-0.8,0.6-1.2,0.7c-0.5,0.1-1.1,0.2-1.7,0.4
	c-0.5,0.1-0.9,0.1-1.3,0.2c-0.2,0.1-0.4,0.1-0.6,0.1c-0.2,0-0.5,0-0.7,0.1c-0.2,0.1-0.5,0.1-0.7,0.1c-0.3,0-0.6,0.1-0.8,0.1
	c-0.4,0.1-0.8,0.2-1.2,0.2c-0.4,0.1-0.9,0.2-1.3,0.3c-1,0.3-1.9,0.7-2.6,1.2c-0.7,0.5-1.3,1.2-1.8,2.1c-0.2,0.3-0.3,0.6-0.4,1
	c-0.1,0.3-0.2,0.7-0.3,1l0,0.1c0,0.2,0,0.4-0.1,0.7c0,0.2,0,0.4,0,0.7c0,0.3,0,0.5,0.1,0.6c0,0.1,0,0.2,0,0.3c0,0.2,0,0.4,0.1,0.5
	c0.1,0.3,0.1,0.5,0.2,0.8c0.1,0.2,0.2,0.5,0.3,0.7c0.4,0.9,0.9,1.6,1.5,2.2c0.6,0.5,1.4,1,2.3,1.3c0.3,0.1,0.6,0.2,0.8,0.3
	c0.3,0,0.5,0.1,0.8,0.1c0.2,0.1,0.4,0.1,0.7,0.1c0.2,0,0.3,0,0.5,0.1l0,0l0.4,0c0.2,0,0.3,0.1,0.5,0.1c0.2,0,0.3,0,0.4,0h0.5
	c0.1,0,0.2,0,0.3,0c0.1,0,0.1,0,0.3,0c0.2,0,0.4,0,0.6-0.1c0.2,0,0.4-0.1,0.7-0.1c0.4-0.1,0.9-0.2,1.3-0.3c0.4-0.1,0.9-0.3,1.3-0.4
	l0.5-0.3c0.2-0.1,0.4-0.2,0.5-0.3c0.2-0.1,0.3-0.1,0.4-0.2c0.1-0.1,0.2-0.1,0.3-0.2c0.1,0,0.1,0,0.1,0c0.1,0,0.1,0.1,0.2,0.1
	c0.1,0.1,0.2,0.3,0.3,0.4c0.1,0.3,0.3,0.5,0.6,0.6c0.2,0.2,0.5,0.3,0.8,0.3c0.3,0,0.5,0,0.8,0h3.1c0.3,0,0.5-0.1,0.7-0.2
	c0.5-0.2,0.7-0.5,0.7-1C142.1,251.3,142.1,250.9,142,250.6z M134.9,243.3c0,0.2,0,0.3,0,0.4l0,0.4c-0.1,0.2-0.1,0.5-0.1,0.7
	c0,0.2,0,0.4-0.1,0.6c-0.2,0.7-0.5,1.3-1,1.8c-0.4,0.5-1,0.8-1.7,1c-0.4,0.1-0.9,0.2-1.5,0.3c-0.5,0-1,0-1.5-0.1
	c-0.5-0.1-0.9-0.2-1.3-0.4c-0.4-0.2-0.6-0.4-0.8-0.7c-0.2-0.3-0.4-0.6-0.4-1.1c-0.1-0.8,0-1.5,0.4-2c0.4-0.5,0.9-0.9,1.4-1.1
	c0.2-0.1,0.4-0.1,0.6-0.2c0.2,0,0.4-0.1,0.7-0.2c0.3-0.1,0.7-0.2,1-0.2c0.4,0,0.8-0.1,1.2-0.2c0.2,0,0.3,0,0.4-0.1
	c0.2-0.1,0.4-0.1,0.7-0.1c0.3,0,0.5-0.1,0.7-0.1c0.1,0,0.2,0,0.3-0.1c0.1,0,0.2,0,0.3-0.1c0.2,0,0.4,0.1,0.4,0.1c0,0,0,0,0,0.1
	c0,0.2,0,0.4,0.1,0.6C134.9,243,134.9,243.2,134.9,243.3z"/>
<path class="st0" d="M142.2,233.3c0.1,0.2,0.2,0.5,0.6,0.6c0.4,0.2,0.9,0.2,1.5,0.2c0.4-0.1,0.8,0,1.1,0.1c0.2,0.1,0.3,0.3,0.4,0.6
	c0,0.1,0.1,0.3,0,0.5c0,0.2,0,0.4,0,0.6v10.6c0,0.1,0,0.3,0,0.4c0,0.2,0,0.3,0,0.5v0.5l0,0.1c0,0,0,0,0,0.1c0,0.1,0,0.2,0.1,0.3
	c0,0.1,0,0.2,0,0.2c0,0.2,0,0.4,0.1,0.5c0.2,0.7,0.5,1.4,1,2c0.1,0.1,0.1,0.1,0.2,0.2c0.1,0.1,0.1,0.1,0.2,0.2
	c0.1,0.1,0.2,0.2,0.3,0.2c0.1,0.1,0.2,0.2,0.3,0.2c0.3,0.2,0.6,0.3,0.9,0.4c0.3,0.1,0.6,0.2,1,0.3l0.5,0.1c0.2,0,0.4,0.1,0.6,0.1
	c0.3,0.1,0.6,0,1,0.1h0.5c0.1,0,0.2,0,0.3,0c0.1,0,0.1,0,0.2,0c0.3,0,0.5,0,0.8,0c0.2,0,0.4,0,0.6,0c0,0,0.1,0,0.2,0
	c0.1,0,0.2,0,0.3,0h0.4l0.1,0c0.1,0,0.2-0.1,0.2,0c0.2,0,0.4,0,0.6-0.1c0.6-0.2,0.9-0.7,0.9-1.3c0-0.5,0-1.1,0-1.7v-0.9
	c0-0.3-0.1-0.6-0.2-0.9c-0.2-0.3-0.5-0.4-0.8-0.5c-0.2,0-0.5,0-0.9,0h-0.4c-0.1,0-0.2,0-0.4,0c0,0-0.1,0-0.2,0
	c-0.3-0.1-0.5-0.1-0.8-0.2c-0.2-0.1-0.3-0.1-0.4-0.3c-0.3-0.4-0.4-0.8-0.5-1.3c0-0.5-0.1-1.2-0.1-1.9l0-7.9c0-0.2,0-0.4,0-0.6
	c0-0.1,0-0.3,0-0.4c0-0.2,0.1-0.4,0.2-0.6c0-0.1,0.1-0.2,0.3-0.2l0.1-0.1c0.1,0,0.3,0,0.5,0c0,0,0.1,0,0.2,0c0.1,0,0.3,0,0.4,0
	c0.6,0,1.1,0,1.6,0c0.6,0,1-0.4,1.2-1c0.1-0.2,0.1-0.4,0.1-0.7c0-0.2,0-0.4,0-0.6c0-0.5,0-0.9-0.1-1.3c-0.1-0.5-0.3-0.9-0.8-1.1
	c-0.2-0.1-0.4-0.1-0.6-0.1h-0.5c-0.5,0-1,0-1.6,0c-0.3,0-0.7-0.1-0.9-0.3c-0.1-0.1-0.1-0.2-0.2-0.4c0-0.2,0-0.4,0-0.6v-0.5l0-0.1
	c0-0.1,0-0.3,0-0.4c0-0.2,0-0.4,0-0.5v-2.6c0-0.2,0-0.5-0.1-0.7c-0.2-0.4-0.5-0.7-1-0.7c-0.4,0-0.7-0.1-1.2-0.1h-3l-0.1,0l-0.1,0
	c-0.2,0-0.3,0-0.4,0c-0.4,0.1-0.7,0.4-0.9,0.8c-0.1,0.2-0.1,0.5-0.1,0.8v3.5c0,0.3,0,0.5,0,0.8c0,0.2-0.1,0.4-0.1,0.6
	c-0.1,0.1-0.2,0.3-0.5,0.3c-0.4,0-0.8,0.1-1.2,0.1c-0.1,0-0.2,0-0.4,0c-0.2,0-0.3,0-0.5,0.1c-0.7,0.2-0.9,0.6-1,0.9
	c-0.1,0.3-0.1,0.8-0.1,1.3v0.9l0,0.1C142.1,232.9,142.1,233.1,142.2,233.3z"/>
<path class="st0" d="M165.6,253.3c0.2,0,0.3,0,0.4,0h0.5c0.1,0,0.2,0,0.3,0c0.1,0,0.1,0,0.3,0c0.2,0,0.4,0,0.6-0.1
	c0.2,0,0.4-0.1,0.7-0.1c0.4-0.1,0.9-0.2,1.3-0.3c0.4-0.1,0.9-0.3,1.3-0.4l0.5-0.3c0.2-0.1,0.4-0.2,0.5-0.3c0.2-0.1,0.3-0.1,0.4-0.2
	c0.1-0.1,0.2-0.1,0.3-0.2c0.1,0,0.1,0,0.1,0c0.1,0,0.1,0.1,0.2,0.1c0.1,0.1,0.2,0.3,0.3,0.4c0.1,0.3,0.3,0.5,0.6,0.6
	c0.2,0.2,0.5,0.3,0.8,0.3c0.3,0,0.5,0,0.8,0h3.1c0.3,0,0.5-0.1,0.7-0.2c0.5-0.2,0.7-0.5,0.7-1c0-0.3-0.1-0.7-0.1-1l0-0.1
	c0-0.1,0-0.1,0-0.2c0-0.1,0-0.3-0.1-0.4c-0.1-0.4-0.2-0.9-0.2-1.5v-11.6c0-0.7,0-1.4,0-2c0-0.7-0.2-1.3-0.4-1.8
	c-0.4-0.9-0.9-1.7-1.6-2.2c-0.7-0.6-1.5-1-2.4-1.4c-0.9-0.3-2-0.6-3.1-0.7c-1.1-0.1-2.3-0.2-3.5-0.1l-0.1,0l-0.1,0.1
	c0,0-0.1,0-0.2,0c-0.3,0-0.5,0-0.7,0c-0.4,0.1-0.7,0.1-1.1,0.2c-0.4,0-0.8,0.1-1.2,0.2c-0.6,0.2-1.2,0.4-1.7,0.6
	c-0.6,0.2-1.1,0.5-1.7,0.8c-0.2,0.1-0.3,0.2-0.4,0.3c-0.1,0.1-0.3,0.2-0.4,0.3c-0.1,0.1-0.2,0.2-0.2,0.2l-0.1,0
	c-0.4,0.3-0.7,0.6-1,1l-0.5,0.9c-0.2,0.3-0.3,0.5-0.4,0.8c-0.1,0.3-0.2,0.6-0.3,0.9c0,0.1-0.1,0.3-0.1,0.4c0,0.2,0,0.4,0,0.6
	c0.1,0.5,0.4,0.7,0.6,0.8c0.1,0.1,0.2,0.1,0.4,0.1c0,0,0.1,0,0.1,0l0.5,0c0.1,0,0.3,0,0.5,0c0.1,0,0.3,0,0.4,0h2.5
	c0.3,0,0.6,0,0.8-0.1c0.5-0.1,0.8-0.5,0.9-0.7c0.1-0.3,0.2-0.5,0.4-0.9c0-0.1,0.1-0.3,0.3-0.5c0.1-0.2,0.3-0.3,0.4-0.4
	c0.1-0.1,0.3-0.2,0.4-0.3c0.1-0.1,0.3-0.2,0.4-0.2c0.2-0.1,0.5-0.1,0.9-0.2c0.3-0.1,0.7-0.1,1.1-0.1c0.4,0,0.7,0,1.1,0
	c0.3,0,0.6,0.1,0.9,0.2c0.8,0.3,1.4,0.8,1.6,1.6c0,0.1,0,0.2,0.1,0.2c0,0.1,0,0.2,0.1,0.4v0.2c0,0.1,0,0.1,0,0.1
	c-0.1,0.1-0.1,0.3,0,0.4l0,0.1c-0.1,0.3-0.2,0.5-0.4,0.7c-0.4,0.4-0.8,0.6-1.2,0.7c-0.5,0.1-1.1,0.2-1.7,0.4
	c-0.5,0.1-0.9,0.1-1.3,0.2c-0.2,0.1-0.4,0.1-0.6,0.1c-0.2,0-0.5,0-0.7,0.1c-0.2,0.1-0.5,0.1-0.7,0.1c-0.3,0-0.6,0.1-0.8,0.1
	c-0.4,0.1-0.8,0.2-1.2,0.2c-0.4,0.1-0.9,0.2-1.3,0.3c-1,0.3-1.9,0.7-2.6,1.2c-0.7,0.5-1.3,1.2-1.8,2.1c-0.2,0.3-0.3,0.6-0.4,1
	c-0.1,0.3-0.2,0.7-0.3,1l0,0.1c0,0.2,0,0.4-0.1,0.7c0,0.2,0,0.4,0,0.7c0,0.3,0,0.5,0.1,0.6c0,0.1,0,0.2,0,0.3c0,0.2,0,0.4,0.1,0.5
	c0.1,0.3,0.1,0.5,0.2,0.8c0.1,0.2,0.2,0.5,0.3,0.7c0.4,0.9,0.9,1.6,1.5,2.2c0.6,0.5,1.4,1,2.3,1.3c0.3,0.1,0.6,0.2,0.8,0.3
	c0.3,0,0.5,0.1,0.8,0.1c0.2,0.1,0.4,0.1,0.7,0.1c0.1,0,0.3,0,0.5,0.1l0,0l0.4,0C165.3,253.3,165.4,253.3,165.6,253.3z M165.7,248.1
	c-0.4-0.2-0.6-0.4-0.8-0.7c-0.2-0.3-0.4-0.6-0.4-1.1c-0.1-0.8,0-1.5,0.4-2c0.4-0.5,0.9-0.9,1.4-1.1c0.2-0.1,0.4-0.1,0.6-0.2
	c0.2,0,0.4-0.1,0.7-0.2c0.3-0.1,0.7-0.2,1-0.2c0.4,0,0.8-0.1,1.2-0.2c0.2,0,0.3,0,0.4-0.1c0.2-0.1,0.4-0.1,0.7-0.1
	c0.3,0,0.5-0.1,0.7-0.1c0.1,0,0.2,0,0.3-0.1c0.1,0,0.2,0,0.3-0.1c0.2,0,0.3,0,0.4,0.1c0,0,0,0,0,0.1c0,0.2,0,0.4,0.1,0.6
	c0,0.1,0,0.3,0,0.4c0,0.2,0,0.3,0,0.4l0,0.4c-0.1,0.2-0.1,0.5-0.1,0.7c0,0.2,0,0.4-0.1,0.6c-0.2,0.7-0.5,1.3-1,1.8
	c-0.4,0.5-1,0.8-1.7,1c-0.4,0.1-0.9,0.2-1.5,0.3c-0.5,0-1,0-1.5-0.1C166.5,248.4,166,248.3,165.7,248.1z"/>
<path class="st0" d="M189,225c0-0.4,0-0.7,0-1.1c0-0.4-0.1-0.8-0.4-1c-0.2-0.2-0.5-0.3-0.8-0.4c-0.3,0-0.6,0-0.9,0h-3.2
	c-0.1,0-0.2,0-0.3,0c-0.1,0-0.1,0-0.2,0h-0.1l-0.1,0c-0.1,0.1-0.2,0.1-0.4,0.2c-0.2,0.1-0.3,0.2-0.4,0.4c-0.2,0.3-0.3,0.7-0.2,1.3
	c0,0.5,0,0.8,0,1.2v24.8c0,0.3,0,0.7,0,1c0,0.4,0.2,0.7,0.4,0.9c0.2,0.2,0.5,0.3,0.8,0.3c0.3,0,0.6,0,0.9,0h2.1c0.2,0,0.4,0,0.6,0
	c0.1,0,0.2,0,0.3,0c0.2,0,0.3,0,0.5-0.1c0.5-0.1,0.8-0.3,1-0.6c0.2-0.3,0.3-0.7,0.3-1.2c0-0.5,0-0.9,0-1.2V225z"/>
<path class="st0" d="M224.5,234.2l0.1-0.1c0.1,0,0.3,0,0.5,0c0,0,0.1,0,0.2,0c0.1,0,0.3,0,0.4,0c0.6,0,1.1,0,1.6,0
	c0.6,0,1-0.4,1.2-1c0.1-0.2,0.1-0.4,0.1-0.7c0-0.2,0-0.4,0-0.6c0-0.5,0-0.9-0.1-1.3c-0.1-0.5-0.3-0.9-0.8-1.1
	c-0.2-0.1-0.4-0.1-0.6-0.1h-0.5c-0.5,0-1,0-1.6,0c-0.3,0-0.7-0.1-0.9-0.3c-0.1-0.1-0.1-0.2-0.2-0.4c0-0.2,0-0.4,0-0.6v-0.5l0-0.1
	c0-0.1,0-0.3,0-0.4c0-0.2,0-0.4,0-0.5v-2.6c0-0.2,0-0.5-0.1-0.7c-0.2-0.4-0.5-0.7-1-0.7c-0.4,0-0.7-0.1-1.2-0.1h-3l-0.1,0l-0.1,0
	c-0.2,0-0.3,0-0.4,0c-0.4,0.1-0.7,0.4-0.9,0.8c-0.1,0.2-0.1,0.5-0.1,0.8v3.5c0,0.3,0,0.5,0,0.8c0,0.2-0.1,0.4-0.1,0.6
	c-0.1,0.1-0.2,0.3-0.5,0.3c-0.4,0-0.8,0.1-1.2,0.1c-0.1,0-0.2,0-0.4,0c-0.2,0-0.3,0-0.5,0.1c-0.7,0.2-0.9,0.6-1,0.9
	c-0.1,0.3-0.1,0.8-0.1,1.3v0.9l0,0.1c0.1,0.3,0.1,0.5,0.2,0.7c0.1,0.2,0.2,0.5,0.6,0.6c0.4,0.2,0.9,0.2,1.5,0.2
	c0.4-0.1,0.8,0,1.1,0.1c0.2,0.1,0.3,0.3,0.4,0.6c0,0.1,0.1,0.3,0,0.4c0,0.2,0,0.4,0,0.6v10.6c0,0.1,0,0.3,0,0.4c0,0.2,0,0.3,0,0.5
	v0.4l0,0.1c0,0,0,0,0,0.1c0,0.1,0,0.2,0.1,0.3c0,0.1,0,0.2,0,0.2c0,0.2,0,0.4,0.1,0.5c0.2,0.7,0.5,1.4,1,2c0.1,0.1,0.1,0.1,0.2,0.2
	c0.1,0.1,0.1,0.1,0.2,0.2c0.1,0.1,0.2,0.2,0.3,0.2c0.1,0.1,0.2,0.2,0.3,0.2c0.3,0.2,0.6,0.3,0.9,0.4c0.3,0.1,0.6,0.2,1,0.3l0.5,0.1
	c0.2,0,0.4,0.1,0.6,0.1c0.3,0.1,0.6,0,1,0.1h0.4c0.1,0,0.2,0,0.3,0c0.1,0,0.1,0,0.2,0c0.3,0,0.5,0,0.8,0c0.2,0,0.4,0,0.6,0
	c0,0,0.1,0,0.2,0c0.1,0,0.2,0,0.3,0h0.4l0.1,0c0.1,0,0.2-0.1,0.2,0c0.2,0,0.4,0,0.6-0.1c0.6-0.2,0.9-0.7,0.9-1.3c0-0.5,0-1.1,0-1.7
	v-0.9c0-0.3-0.1-0.6-0.2-0.9c-0.2-0.3-0.5-0.4-0.8-0.5c-0.2,0-0.5,0-0.9,0h-0.4c-0.1,0-0.2,0-0.4,0c0,0-0.1,0-0.2,0
	c-0.3-0.1-0.5-0.1-0.8-0.2c-0.2-0.1-0.3-0.1-0.4-0.3c-0.3-0.4-0.4-0.8-0.5-1.3c0-0.5-0.1-1.2-0.1-1.9l0-7.9c0-0.2,0-0.4,0-0.6
	c0-0.1,0-0.3,0-0.4c0.1-0.2,0.1-0.4,0.2-0.6C224.2,234.3,224.3,234.2,224.5,234.2z"/>
<path class="st0" d="M236.6,222.8c-0.2-0.2-0.5-0.3-0.8-0.4c-0.3,0-0.6,0-0.9,0h-3.2c-0.1,0-0.2,0-0.3,0c-0.1,0-0.1,0-0.2,0h-0.1
	l-0.1,0c-0.1,0.1-0.2,0.1-0.4,0.2c-0.2,0.1-0.3,0.2-0.4,0.4c-0.1,0.2-0.2,0.4-0.2,0.7c0,0.2,0,0.4,0,0.7c0,0.2,0,0.5,0,0.8
	c0,0.3,0,0.7,0,1c0,0.3,0,0.6,0.1,0.9c0.1,0.3,0.2,0.6,0.4,0.7c0.2,0.2,0.5,0.3,0.8,0.3c0.3,0,0.6,0,0.9,0h2.5c0.3,0,0.6,0,0.9,0
	c0.3,0,0.6-0.1,0.8-0.3c0.3-0.2,0.4-0.6,0.4-1.1v-2.6C237,223.6,236.9,223.2,236.6,222.8L236.6,222.8z"/>
<path class="st0" d="M236.8,229.7c-0.1-0.2-0.3-0.4-0.6-0.4c-0.1,0-0.3-0.1-0.4-0.1l-0.1,0l-0.3,0c-0.2,0-0.4,0-0.6,0
	c-0.2,0-0.4,0-0.6,0h-2.2l-0.1,0l-0.1,0c-0.1,0-0.3,0-0.4,0c-0.4,0.1-0.7,0.2-0.9,0.5c-0.2,0.2-0.2,0.5-0.2,0.9v19.7
	c0,0.4,0,0.7,0,1c0,0.4,0.1,0.7,0.4,1c0.2,0.2,0.4,0.4,0.8,0.4c0.3,0,0.5,0,0.8,0h2.5c0.2,0,0.4,0,0.6,0c0,0,0.1,0,0.1,0
	c0.2,0,0.4,0,0.5-0.1c0.8-0.2,1-0.8,1-1.1c0-0.4,0-1,0-1.5v-18.7c0-0.3,0-0.6,0-0.9C237,230.1,236.9,229.9,236.8,229.7z"/>
<path class="st0" d="M261.6,244.3c-0.1-0.3-0.2-0.5-0.4-0.7c-0.1-0.1-0.3-0.2-0.5-0.2c-0.1,0-0.2,0-0.3-0.1l-0.4,0
	c-0.2-0.1-0.4-0.1-0.6-0.1c-0.2,0-0.4,0-0.6,0c-0.4,0-0.9,0-1.5,0c-0.7,0-1.1,0-1.4,0.2c-0.4,0.2-0.7,0.5-0.8,0.8l-0.3,0.9
	c-0.1,0.1-0.1,0.3-0.2,0.5c-0.1,0.2-0.2,0.3-0.3,0.5c-0.4,0.7-1.1,1.2-1.9,1.5c-0.2,0.1-0.3,0.1-0.5,0.1c-0.2,0-0.4,0.1-0.6,0.1
	l-0.4,0l-0.1,0c0,0,0,0-0.1,0l-0.2,0c-0.5-0.1-0.9-0.1-1.2-0.2c-0.3-0.1-0.6-0.2-0.9-0.4c-0.3-0.1-0.4-0.2-0.5-0.3
	c-0.5-0.4-0.9-0.8-1.2-1.3c-0.3-0.5-0.6-1.1-0.8-1.8c-0.1-0.2-0.1-0.4-0.1-0.6c0-0.2-0.1-0.5-0.1-0.7c0,0,0-0.1,0-0.4
	c-0.1-0.3-0.1-0.7-0.1-1.2c0-0.5,0-0.9,0.1-1.2c0-0.1,0.1-0.3,0.1-0.4c0-0.1,0-0.2,0-0.3c0.1-0.4,0.2-0.8,0.2-1.2
	c0.1-0.3,0.2-0.7,0.3-1c0.3-0.7,0.7-1.4,1.2-1.9c0.5-0.5,1.1-0.9,1.9-1.1c0.3-0.1,0.8-0.2,1.3-0.2h0.4c0.3,0.1,0.6,0,1,0.2
	c0.5,0.1,0.9,0.3,1.3,0.6c0.2,0.2,0.5,0.4,0.6,0.6c0.2,0.3,0.4,0.5,0.5,0.8c0.1,0.2,0.2,0.5,0.3,0.7c0.1,0.3,0.3,0.6,0.6,0.7
	c0.2,0.2,0.5,0.2,0.9,0.2h3.1c0.4,0,0.8,0,1.1-0.1c0.3,0,0.7-0.2,0.9-0.8c0.1-0.2,0.1-0.5,0-0.8c0-0.3-0.1-0.5-0.2-0.6
	c-0.2-1-0.6-1.8-1.1-2.5c-1-1.5-2.3-2.6-4-3.4c-1.7-0.8-3.7-1.2-6.2-1.1l0,0c-0.5,0.1-0.8,0-1.4,0.1c-0.5,0.1-0.9,0.2-1.3,0.3
	c-0.5,0.1-0.9,0.2-1.4,0.4c-1.6,0.6-2.9,1.5-3.9,2.5c-1,1-1.9,2.3-2.5,3.9c-0.2,0.5-0.3,1-0.4,1.5c-0.1,0.5-0.2,1-0.3,1.5
	c-0.1,0.2-0.1,0.4-0.1,0.7c0,0.1,0,0.3-0.1,0.5c0,0.2,0,0.3,0,0.5c0,0.1,0,0.1,0,0.2c-0.1,0.2-0.1,0.4-0.1,0.6c0,0.2,0,0.4,0.1,0.6
	v0.7l0,0.1c0.1,0.2,0.1,0.4,0.1,0.6c0,0.3,0,0.5,0.1,0.8c0.1,0.1,0.1,0.2,0.1,0.3c0,0.1,0,0.3,0.1,0.4l0.3,1
	c0.1,0.3,0.2,0.7,0.4,0.9c0.6,1.4,1.4,2.6,2.4,3.6c1,1,2.2,1.7,3.6,2.3c0.3,0.1,0.6,0.2,0.9,0.3c0.3,0.1,0.6,0.2,1,0.3
	c0.2,0,0.3,0.1,0.5,0.1c0.1,0,0.3,0,0.4,0.1c0.2,0.1,0.5,0.1,0.7,0.1c0.2,0,0.3,0,0.6,0.1c0.2,0,0.4,0.1,0.7,0.1c0.1,0,0.1,0,0.2,0
	c0.2,0,0.4,0,0.6-0.1l0.5,0c0.4-0.1,0.7,0,1.1-0.1c0.3-0.1,0.6-0.1,0.9-0.2c0.3,0,0.7-0.1,1-0.2c2.7-0.9,4.7-2.6,6-4.9
	c0.4-0.8,0.7-1.7,1-2.7C261.7,244.9,261.7,244.6,261.6,244.3z"/>
<path class="st0" d="M293.1,244.8c0-0.4,0-0.7-0.1-0.9c-0.1-0.2-0.1-0.5-0.2-0.7c-0.1-0.2-0.1-0.4-0.2-0.7c-0.3-0.7-0.7-1.2-1.2-1.7
	c-0.5-0.4-1-0.8-1.6-1.2c-0.3-0.2-0.5-0.3-0.8-0.4c-0.2-0.1-0.5-0.2-0.7-0.3c-0.6-0.2-1.2-0.4-1.9-0.6c-0.7-0.2-1.4-0.3-2-0.4
	c-0.7-0.1-1.4-0.3-2-0.4c-0.6-0.2-1.2-0.4-1.8-0.6c-0.4-0.1-0.7-0.3-0.9-0.5c-0.2-0.2-0.5-0.4-0.6-0.7c-0.1-0.1-0.1-0.2-0.2-0.4
	c0-0.1,0-0.2,0-0.4c0.1-0.4,0.3-0.7,0.5-0.9c0.3-0.2,0.6-0.4,1.1-0.5c0.1,0,0.3,0,0.4-0.1c0.1,0,0.3,0,0.4-0.1h0.3l0.1,0
	c0.1,0,0.3-0.1,0.8,0c0.4,0,0.7,0.1,0.9,0.1c0.4,0.1,0.7,0.2,1,0.3c0.3,0.1,0.5,0.3,0.8,0.5c0.2,0.1,0.3,0.3,0.4,0.4
	c0.1,0.2,0.2,0.5,0.3,0.7c0.1,0.2,0.3,0.4,0.4,0.6c0.2,0.2,0.5,0.4,0.8,0.5c0.2,0.1,0.5,0.1,0.7,0.1c0.2,0,0.4,0,0.6,0h2.6
	c0.2,0,0.5,0,0.6-0.1c0.3-0.1,0.5-0.2,0.7-0.5l0-0.1c0.1-0.2,0.1-0.4,0.1-0.7c0-0.2,0-0.5-0.1-0.7c-0.1-0.4-0.3-0.8-0.4-1.2
	c-0.2-0.3-0.4-0.7-0.6-1c-0.9-1.4-2.2-2.4-3.9-2.9c-1.7-0.6-3.7-0.8-5.9-0.7l0,0c-0.5,0.1-1,0-1.5,0.1c-0.2,0-0.3,0-0.5,0.1
	c-0.2,0-0.4,0.1-0.6,0.1c-0.4,0.1-0.7,0.2-1.1,0.2c-0.4,0.1-0.7,0.2-1.1,0.3c-0.9,0.3-1.7,0.8-2.4,1.3c-0.7,0.6-1.3,1.3-1.7,2.2
	c-0.1,0.3-0.2,0.6-0.3,0.9c-0.1,0.3-0.1,0.6-0.2,0.9c-0.1,0.2-0.1,0.4,0,0.6c0,0,0,0.1,0,0.2c-0.1,0.3-0.1,0.6-0.1,0.9
	c0,0.3,0.1,0.6,0.1,0.8c0.1,0.4,0.1,0.7,0.2,0.9c0.4,1.1,1.1,1.9,1.9,2.5c0.7,0.5,1.6,0.9,2.4,1.2c0.9,0.2,1.8,0.5,2.7,0.8
	c0.2,0.1,0.5,0.1,0.8,0.1c0.2,0,0.5,0.1,0.7,0.1c0.7,0.2,1.3,0.4,1.9,0.5c0.6,0.1,1.2,0.3,1.7,0.6c0.4,0.2,0.7,0.4,1,0.5
	c0.3,0.2,0.5,0.4,0.7,0.8c0.1,0.1,0.1,0.2,0.2,0.4c0,0.1,0,0.2,0,0.4c-0.1,0.6-0.2,0.8-0.3,1c-0.2,0.3-0.4,0.5-0.7,0.7
	c-0.3,0.2-0.7,0.4-1.1,0.5c-0.3,0.1-0.5,0.1-0.8,0.1c-0.2,0.1-0.4,0.1-0.7,0.1c-0.2,0-0.5,0-0.7-0.1c-0.2,0-0.4,0-0.5,0
	c-0.1,0-0.2,0-0.3-0.1c-0.5-0.1-0.9-0.3-1.2-0.4c-0.3-0.2-0.6-0.4-1-0.6l-0.1,0c0,0-0.1-0.1-0.3-0.3c-0.1-0.2-0.2-0.4-0.3-0.5
	c-0.1-0.3-0.3-0.6-0.4-0.8c-0.1-0.4-0.4-0.6-0.8-0.8c-0.2-0.1-0.5-0.1-0.7-0.1h-3.5c-0.3,0-0.5,0-0.7,0.1c-0.3,0.1-0.5,0.3-0.6,0.6
	c-0.1,0.2-0.1,0.5-0.1,0.8c0,0.3,0.1,0.5,0.1,0.6c0.1,0.3,0.1,0.6,0.2,0.8c0.3,0.8,0.7,1.4,1.1,2c0.7,0.9,1.5,1.6,2.4,2
	c0.9,0.4,1.9,0.8,3.1,1.2c0.3,0.1,0.7,0.2,1.1,0.2c0.3,0,0.7,0.1,1.1,0.1c0.1,0,0.2,0,0.3,0c0.1,0,0.2,0,0.3,0
	c0.2,0.1,0.5,0.1,1,0.1c0.4,0,0.7,0,1-0.1h0.7l0.1,0c0.2-0.1,0.5-0.1,0.8-0.1c0.3,0,0.6-0.1,0.9-0.1c0.4-0.1,0.7-0.2,1.1-0.2
	c0.4-0.1,0.8-0.2,1.1-0.3c0.9-0.3,1.7-0.7,2.4-1.2c0.7-0.5,1.3-1.1,1.8-1.8c0.5-0.7,0.8-1.5,1-2.5c0-0.2,0.1-0.3,0.1-0.5
	c0-0.1,0-0.3,0.1-0.4l0-0.1l0-0.2C293.1,245.5,293.1,245.2,293.1,244.8z"/>
<path class="st0" d="M317.7,239.9c0-0.1,0-0.2,0-0.3c0-0.2,0-0.5-0.1-0.6c0-0.1,0-0.2,0-0.3c0-0.1,0-0.3-0.1-0.4l-0.2-0.8
	c-0.1-0.3-0.1-0.5-0.2-0.8c-0.1-0.4-0.3-0.8-0.4-1.2c-0.1-0.4-0.3-0.8-0.5-1.1l-0.6-0.9c-0.2-0.3-0.4-0.6-0.7-0.9
	c-0.3-0.3-0.6-0.7-0.9-1c-0.3-0.3-0.7-0.5-1-0.8c-1-0.7-2.2-1.2-3.4-1.6c-1.3-0.4-2.8-0.6-4.6-0.5c-0.4,0.1-0.8,0-1.3,0.1
	c-0.4,0.1-0.8,0.2-1.2,0.3c-0.4,0.1-0.9,0.2-1.3,0.3c-0.3,0.1-0.6,0.3-1,0.4c-0.3,0.1-0.7,0.3-1,0.4c-1.1,0.7-2,1.5-2.8,2.3
	c-0.8,0.8-1.4,1.9-2,3.1c-0.2,0.4-0.3,0.7-0.4,1.1c-0.1,0.4-0.2,0.7-0.3,1.1c-0.1,0.2-0.1,0.4-0.1,0.5c0,0.1,0,0.2,0,0.3
	c-0.1,0.2-0.1,0.4-0.1,0.6c0,0.1,0,0.3,0,0.4l0,0.3c-0.1,0.2-0.1,0.5-0.1,0.8c0,0.3,0,0.6,0.1,0.8v0.3c0,0.1,0,0.3,0.1,0.5
	c0.1,0.2,0.1,0.4,0.1,0.6c0,0.3,0,0.6,0.1,0.9c0.1,0.1,0.1,0.2,0.1,0.3c0,0.2,0,0.3,0.1,0.5c0.1,0.3,0.2,0.6,0.2,0.9
	c0.1,0.3,0.2,0.6,0.4,0.9c0.5,1.2,1.2,2.2,1.9,3.1c0.8,0.8,1.7,1.6,2.7,2.2c0.3,0.2,0.7,0.3,1,0.5c0.3,0.1,0.7,0.2,1,0.3
	c0.3,0.1,0.6,0.2,0.9,0.3c0.3,0.1,0.6,0.1,0.9,0.2c0.3,0.1,0.5,0,0.7,0.1c0.2,0.1,0.4,0.1,0.6,0.1c0.1,0,0.2,0,0.4,0l0.5,0
	c0.2,0,0.4,0.1,0.6,0.1c0.1,0,0.1,0,0.2,0c0.4,0,0.6,0,0.7-0.1c0.1,0,0.2,0,0.3,0c0.1,0,0.2,0,0.3,0c0.3-0.1,0.7,0,1-0.1
	c0.4-0.1,0.8-0.2,1.1-0.2c0.4-0.1,0.8-0.2,1.1-0.4c1.4-0.6,2.7-1.4,3.7-2.3c1-0.9,1.9-2.1,2.5-3.6c0.2-0.3,0.3-0.7,0.4-1
	c0.1-0.3,0.2-0.7,0.3-1l0-0.1c0-0.2,0.1-0.4,0.1-0.6c0-0.2,0.1-0.3,0.1-0.6c0.1-0.3,0.1-0.5,0.1-0.8c0-0.2,0-0.4,0.1-0.6l0-0.5
	c0.1-0.2,0.1-0.5,0.1-0.8C317.8,240.4,317.8,240.2,317.7,239.9L317.7,239.9z M300.5,242.2c0-0.1-0.1-0.4-0.1-0.8
	c0-0.5,0-0.7,0.1-0.8l0-0.5c0-0.1,0-0.3,0-0.4c0.1-0.3,0.1-0.7,0.2-1c0-0.3,0.1-0.6,0.2-0.9c0.3-0.8,0.6-1.4,1-2
	c0.4-0.6,1-1,1.7-1.3c0.1-0.1,0.3-0.1,0.4-0.2c0.2,0,0.4-0.1,0.6-0.2c0,0,0.1,0,0.2,0c0.2,0,0.3,0,0.4-0.1c0.2,0,0.5,0,0.7,0
	c0.2,0,0.5,0,0.6,0.1c0.2,0.1,0.4,0.1,0.6,0.2c0.2,0,0.3,0.1,0.5,0.1c0.7,0.3,1.2,0.7,1.6,1.2c0.4,0.5,0.8,1.1,1.1,1.9
	c0.1,0.2,0.1,0.4,0.2,0.7c0,0.3,0.1,0.5,0.2,0.8l0,0.1c0,0,0,0,0,0.2c0,0.1,0,0.3,0,0.4c0,0.2,0,0.4,0.1,0.6l0,0.4
	c0,0.1,0,0.3,0,0.6c0,0.3,0,0.5,0,0.6c0,0.2-0.1,0.3-0.1,0.5v0.4c0,0.1,0,0.3,0,0.4c0,0.1,0,0.2,0,0.2c-0.1,0.3-0.2,0.6-0.2,1
	c-0.1,0.3-0.1,0.6-0.2,0.8c-0.3,0.7-0.7,1.3-1.1,1.8c-0.4,0.5-1,0.8-1.7,1.1c-0.2,0.1-0.4,0.1-0.6,0.2c-0.2,0-0.5,0.1-0.7,0.1h-0.3
	l-0.1,0c-0.1,0-0.2,0-0.3,0c-0.1,0-0.2,0-0.3-0.1c-0.1,0-0.2,0-0.3,0c-0.1,0-0.1,0-0.2,0c0,0-0.1,0-0.2,0c-0.3-0.1-0.5-0.1-0.7-0.2
	c-0.2-0.1-0.4-0.2-0.6-0.3c-0.7-0.4-1.2-0.9-1.5-1.4c-0.3-0.5-0.6-1.2-0.9-2.1c-0.1-0.2-0.1-0.4-0.1-0.6c0-0.2-0.1-0.4-0.1-0.7
	L300.5,242.2L300.5,242.2z"/>
<path class="st0" d="M340.1,229.5c-0.2-0.2-0.5-0.2-0.8-0.2h-3.2c-0.4,0-0.8,0-1.1,0.1c-0.4,0.1-0.7,0.3-0.9,0.6
	c-0.2,0.2-0.2,0.5-0.2,0.9v9.1c0,0.8,0,1.6,0,2.4c0,0.8-0.1,1.5-0.2,2.1c-0.1,0.6-0.3,1.1-0.6,1.6c-0.3,0.5-0.7,0.9-1.2,1.2
	c-0.3,0.2-0.8,0.4-1.4,0.5l-0.1,0c0,0-0.1,0-0.1,0c-0.2-0.1-0.4,0-0.6,0c0,0-0.1,0-0.3,0c-0.2,0-0.3,0-0.4,0c-0.3-0.1-0.5,0-0.7-0.1
	c-0.8-0.2-1.4-0.6-1.8-1.2c-0.4-0.6-0.7-1.3-0.7-2.2c-0.1-0.9-0.1-1.9-0.1-3v-9.7c0-0.3,0-0.7,0-1c0-0.4-0.2-0.7-0.3-0.9
	c-0.1-0.2-0.4-0.4-0.8-0.5c-0.3,0-0.6,0-0.9,0h-3.3l-0.1,0c0,0-0.1,0-0.3,0l-0.1,0c-0.3,0.1-0.6,0.3-0.7,0.5
	c-0.2,0.3-0.3,0.7-0.2,1.3c0,0.5,0,1,0,1.3v6c0,1,0,2.1,0,3.1c0,1.1,0,2.1,0,3.1c0,1,0.2,2,0.3,2.8c0.2,0.9,0.5,1.7,0.9,2.3
	c0.6,1,1.5,1.9,2.6,2.5c0.1,0.1,0.3,0.1,0.4,0.2c0.1,0,0.2,0.1,0.4,0.2c0.3,0.1,0.7,0.2,1,0.3c0.3,0.1,0.7,0.1,1,0.2l0.1,0
	c0.1,0,0.3,0,0.4,0c0.1,0,0.3,0,0.4,0c0.1,0,0.3,0.1,0.6,0.1c0.1,0,0.2,0,0.3,0c0.2,0,0.3,0,0.4,0c0.1,0,0.2,0,0.3,0
	c0.2,0,0.3,0,0.5,0c0.2-0.1,0.4-0.1,0.6-0.1c0.2,0,0.5-0.1,0.7-0.1c0.9-0.2,1.8-0.6,2.5-1c0.2-0.1,0.3-0.2,0.4-0.3
	c0.1-0.1,0.2-0.2,0.3-0.2c0.2-0.1,0.4-0.3,0.5-0.4c0.1-0.1,0.3-0.2,0.4-0.3c0,0,0.1,0,0.1,0l0.1,0c0,0,0,0,0,0.1
	c0.1,0.1,0.1,0.3,0.1,0.4l0.1,0.5c0.1,0.2,0.1,0.4,0.2,0.5c0.2,0.3,0.5,0.5,0.8,0.5c0.3,0,0.6,0,0.9,0h2.4c0.3,0,0.7,0,1,0
	c0.4,0,0.7-0.2,0.9-0.5c0.2-0.2,0.2-0.5,0.2-0.9v-19.8c0-0.4,0-0.7,0-1.1C340.6,230,340.4,229.7,340.1,229.5z"/>
<path class="st0" d="M364.6,235.9c0,0,0-0.1,0-0.2l0-0.1c-0.1-0.2-0.1-0.4-0.1-0.6c0-0.2-0.1-0.5-0.1-0.7c-0.1-0.4-0.2-0.8-0.4-1.1
	c-0.1-0.4-0.3-0.8-0.5-1.1c-0.7-1.1-1.7-2-2.9-2.6c-1.2-0.6-2.8-0.8-4.6-0.8l0,0l-0.1,0c0,0,0,0-0.2,0c-0.2,0-0.4,0-0.5,0
	c-0.3,0.1-0.6,0.1-0.9,0.1c-0.3,0-0.6,0.1-0.9,0.2c-1,0.4-1.9,0.9-2.7,1.4c-0.3,0.2-0.5,0.4-0.7,0.7c-0.1,0.1-0.3,0.2-0.4,0.2
	l-0.1,0c0,0,0,0-0.1-0.1l0-0.1c0-0.1,0-0.3,0-0.4c-0.1-0.2-0.1-0.5-0.2-0.7c-0.1-0.3-0.3-0.5-0.6-0.6c-0.2-0.1-0.4-0.1-0.7-0.1
	c-0.2,0-0.5,0-0.7,0h-2.3c-0.2,0-0.4,0-0.5,0H344l-0.1,0c-0.2,0-0.3,0.1-0.5,0.1c-0.2,0.1-0.4,0.2-0.4,0.3c-0.2,0.2-0.3,0.5-0.3,0.9
	c0,0.3,0,0.6,0,0.9v18c0,0.4,0,0.9,0,1.4c0,0.6,0.1,1,0.4,1.4c0.2,0.2,0.5,0.4,0.9,0.4c0.3,0,0.7,0,1,0h2.2c0.5,0,0.9,0,1.3-0.1
	c0.4-0.1,0.8-0.3,0.9-0.8c0.1-0.2,0.2-0.5,0.2-0.8v-9c0-1.6,0.1-3.1,0.3-4.3c0.2-1.2,0.7-2.1,1.5-2.7c0.4-0.3,0.9-0.5,1.5-0.7
	c0.2-0.1,0.4,0,0.6-0.1c0.1,0,0.3,0,0.5-0.1c0.2,0,0.3,0,0.4,0c0.2,0.1,0.4,0.1,0.6,0.1c0.1,0,0.2,0,0.4,0.1
	c0.7,0.2,1.3,0.6,1.6,1.1c0.4,0.6,0.7,1.3,0.7,2.2c0.1,0.9,0.1,1.9,0.1,3v9.7c0,0.3,0,0.6,0,0.9c0,0.3,0.1,0.6,0.3,0.9
	c0.2,0.3,0.5,0.5,0.9,0.5c0.3,0,0.6,0.1,1,0.1h3.1c0.3,0,0.5,0,0.7-0.1c0.4-0.1,0.8-0.5,0.9-1.3c0-0.5,0-1.1,0-1.6v-12.4
	C364.7,236.8,364.7,236.4,364.6,235.9L364.6,235.9z"/>
<path class="st0" d="M388.3,222.4c-0.3,0-0.6,0-1,0h-3.1l0,0l-0.1,0c-0.1,0-0.2,0-0.4,0c-0.5,0.1-0.8,0.4-0.8,0.6
	c-0.2,0.3-0.3,0.6-0.3,1.1c0,0.4,0,0.8,0,1.1v4.6c0,0.1,0,0.1,0,0.2l0,0.5c-0.1,0.2-0.1,0.3-0.1,0.5c-0.1,0.1-0.1,0.1-0.3,0
	c-0.2-0.1-0.4-0.3-0.5-0.4c-0.2-0.1-0.4-0.3-0.6-0.4c-0.2-0.1-0.4-0.3-0.6-0.4c-0.4-0.2-0.8-0.4-1.2-0.5c-0.4-0.1-0.8-0.2-1.3-0.4
	c-0.2-0.1-0.5-0.1-0.8-0.1c-0.7-0.1-1.3-0.1-2,0c-0.4,0-0.6,0.1-0.9,0.1c-0.2,0.1-0.4,0.1-0.6,0.1c-0.2,0-0.5,0.1-0.7,0.1
	c-1,0.3-1.9,0.8-2.6,1.3c-0.2,0.1-0.3,0.2-0.4,0.3c-0.1,0.1-0.1,0.1-0.2,0.2l-0.1,0c-0.2,0.1-0.3,0.3-0.4,0.4
	c-0.1,0.1-0.3,0.3-0.4,0.4c0,0.1-0.1,0.1-0.2,0.2c-0.1,0.1-0.2,0.2-0.3,0.3c-0.6,0.8-1.2,1.7-1.6,2.6c-0.2,0.3-0.3,0.7-0.4,1
	c-0.1,0.3-0.2,0.7-0.3,1c-0.1,0.3-0.2,0.6-0.2,0.9c0,0.3-0.1,0.6-0.1,0.9c-0.1,0.2-0.1,0.4-0.1,0.6c0,0.1,0,0.2,0,0.4v0.4
	c0,0.1,0,0.2,0,0.3c0,0.1-0.1,0.3-0.1,0.5c0,0.2,0,0.4,0.1,0.6c0,0.1,0,0.2,0,0.4v0.4l0,0.1c0,0,0,0.1,0,0.2c0,0.2,0,0.3,0,0.4
	c0.1,0.3,0.1,0.6,0.2,0.8c0,0.3,0.1,0.6,0.2,0.8c0.1,0.1,0.1,0.2,0.1,0.3c0,0.1,0,0.3,0.1,0.4c0.1,0.3,0.2,0.6,0.3,0.9
	c0.1,0.3,0.2,0.7,0.4,1c0.5,1.1,1.2,2.1,2,3c0.8,1,1.8,1.7,2.9,2.1c0.3,0.2,0.7,0.3,1,0.4c0.3,0.1,0.7,0.2,1,0.3
	c0.2,0.1,0.4,0.1,0.6,0.1c0.1,0,0.3,0,0.4,0c0.2,0.1,0.5,0.1,0.9,0.1c0.1,0,0.1,0,0.2,0c0.3,0,0.5,0,0.6-0.1h0.3c0.2,0,0.3,0,0.4,0
	c0.1,0,0.2,0,0.3,0l0.1,0c0.2-0.1,0.5,0,0.8-0.1c0.5-0.1,0.9-0.3,1.4-0.4c0.2-0.1,0.3-0.1,0.4-0.2c0.1-0.1,0.3-0.1,0.4-0.2
	c0.2-0.1,0.4-0.3,0.6-0.4c0.2-0.1,0.4-0.2,0.6-0.4l0.4-0.4c0.1-0.1,0.2-0.1,0.3-0.1l0.2,0.2c0.1,0.2,0.1,0.4,0.1,0.6
	c0,0.3,0.2,0.6,0.5,0.8c0.2,0.2,0.5,0.3,0.8,0.3c0.3,0,0.5,0,0.8,0h2.4c0.3,0,0.6,0,0.9-0.1c0.3-0.1,0.6-0.2,0.8-0.4
	c0.2-0.3,0.3-0.7,0.3-1.2V224c0-0.4-0.1-0.8-0.3-1.1C389,222.6,388.7,222.4,388.3,222.4z M382.8,240.9c0,0.1,0,0.2,0,0.3l0,0.9
	c0,0.1,0,0.2,0,0.2c-0.1,0.2-0.1,0.4-0.1,0.6c0,0.1,0,0.2,0,0.3c-0.1,0.3-0.1,0.6-0.2,0.9c-0.1,0.3-0.1,0.5-0.2,0.8
	c-0.3,0.7-0.7,1.3-1.1,1.8c-0.4,0.5-1,0.9-1.6,1.1c-0.2,0.1-0.4,0.1-0.6,0.2c-0.3,0-0.5,0.1-0.7,0.1c-0.1,0-0.2,0-0.4,0
	c-0.2,0-0.3,0-0.3-0.1l-0.1,0c-0.3,0-0.4,0-0.5,0c-0.6-0.1-1.1-0.3-1.5-0.6c-1.1-0.7-2-1.8-2.4-3.2c-0.1-0.2-0.1-0.4-0.2-0.7
	c0-0.2-0.1-0.4-0.1-0.6c0-0.1,0-0.1,0-0.2c0-0.1,0-0.1,0-0.2l0-0.1c0-0.1-0.1-0.4-0.1-0.9c0-0.4,0-0.8,0-1l0-0.6
	c0.1-0.3,0.1-0.6,0.2-0.9c0-0.3,0.1-0.5,0.2-0.8c0.3-0.8,0.6-1.6,1-2.2c0.4-0.6,1-1.1,1.7-1.4c0.2-0.1,0.3-0.1,0.5-0.2l0.1,0
	c0.2,0,0.4-0.1,0.6-0.1c0.3-0.1,0.5-0.1,0.6-0.1c1.4,0,2.5,0.3,3.2,0.9c0.7,0.6,1.3,1.4,1.7,2.4c0.1,0.2,0.2,0.4,0.2,0.7
	c0,0.3,0.1,0.6,0.2,0.9c0.1,0.2,0.1,0.5,0.1,0.8c0,0.3,0,0.6,0,0.9C382.8,240.6,382.8,240.7,382.8,240.9z"/>
<path class="st0" d="M211.9,229.2c-0.3,0-0.6,0-0.9,0h-2.7c-0.3,0-0.6,0-0.9,0c-0.4,0-0.7,0.1-0.9,0.3c-0.3,0.2-0.5,0.5-0.6,0.8
	c-0.1,0.2-0.2,0.4-0.2,0.7c-0.2,0.4-0.3,0.8-0.4,1.2c-0.1,0.4-0.2,0.8-0.4,1.2c-0.4,1.2-0.8,2.5-1.2,3.7c-0.4,1.2-0.8,2.4-1.2,3.7
	c-0.1,0.4-0.2,0.7-0.3,1.1c-0.1,0.3-0.2,0.7-0.3,1l-0.2,0.4c0,0.1-0.1,0.2-0.1,0.3c0,0,0,0-0.1,0c0,0,0,0,0,0
	c-0.1-0.3-0.2-0.6-0.3-0.8c-0.1-0.2-0.2-0.5-0.3-0.7c-0.1-0.3-0.2-0.6-0.3-0.9l-0.9-2.8c-0.2-0.6-0.5-1.3-0.7-1.9
	c-0.2-0.7-0.4-1.3-0.7-2.1c-0.1-0.3-0.3-0.7-0.4-1c-0.1-0.4-0.2-0.8-0.4-1.1c-0.1-0.4-0.3-0.9-0.4-1.3c-0.2-0.6-0.5-1.1-1-1.4
	c-0.3-0.2-0.6-0.2-1-0.2h-4.4l0,0c-0.1,0-0.2,0-0.3,0c-0.5,0.1-0.8,0.5-0.9,0.7c-0.1,0.4-0.1,0.8,0.1,1.2c0.1,0.3,0.2,0.6,0.3,0.8
	c0.2,0.5,0.4,1,0.6,1.5c0.2,0.6,0.4,1.1,0.7,1.7c0,0.2,0,0.3,0.1,0.5c0.5,1.1,0.9,2.3,1.3,3.4c0.4,1.2,0.8,2.4,1.3,3.5
	c0.1,0.3,0.3,0.7,0.4,1c0.1,0.4,0.2,0.7,0.4,1.1c0.2,0.5,0.4,1.1,0.6,1.7c0.2,0.6,0.4,1.1,0.7,1.7c0.2,0.5,0.9,2.3,1.4,4.3
	c0.1,0.5,0.1,1,0.2,1.5l0,0.2c0,2-1.3,2.4-2.4,2.6c-0.5,0.1-1.4,0.1-2,0.1c-0.3,0-0.5,0-0.5,0c-0.3,0-0.6,0.1-0.8,0.1
	c-0.4,0.2-0.8,0.6-0.8,1.5v2.7l0,0.1c0.1,0.2,0.1,0.4,0.2,0.6c0.1,0.3,0.2,0.5,0.5,0.7c0.2,0.1,0.4,0.2,0.8,0.3
	c0.3,0,0.6,0.1,0.9,0.1c0.3,0,1.6,0,1.8,0h1.2l0.1,0c0.1,0,0.4-0.1,0.6-0.1c0.4,0,0.6-0.1,0.8-0.1c0.5-0.2,1.1-0.3,1.5-0.5
	c0.5-0.2,1-0.4,1.4-0.7c0.5-0.4,1-0.8,1.3-1.2c0.3-0.4,0.6-0.9,0.9-1.4c0.3-0.6,0.5-1.1,0.7-1.6c0.1-0.4,0.8-2.4,1.5-4.3
	c0.4-1.3,0.8-2.4,1-3c0.2-0.5,0.4-1.1,0.6-1.8c0.5-1.5,1.1-3.3,1.5-4.4c0.1-0.4,0.3-0.8,0.4-1.2c0.1-0.4,0.3-0.8,0.4-1.2
	c0.2-0.5,0.4-0.9,0.5-1.4c0.1-0.5,0.3-0.9,0.5-1.3c0.4-1,0.8-2.1,1.2-3.2c0.4-1.1,0.8-2.1,1.2-3.2l0.3-0.7c0.1-0.3,0.2-0.5,0.2-0.7
	c0.2-0.7,0-1.1-0.2-1.3C212.6,229.4,212.3,229.3,211.9,229.2z"/>
<g>
	<path class="st0" d="M405.4,242.2c-0.2,0.2-0.4,0.3-0.7,0.4c-0.6,0.2-1.3,0.2-1.8-0.1c-0.3-0.1-0.5-0.3-0.7-0.5
		c-0.2-0.2-0.4-0.5-0.5-0.8c-0.1-0.3-0.2-0.6-0.2-1c0-0.3,0.1-0.7,0.2-1c0.1-0.3,0.3-0.6,0.5-0.8c0.2-0.2,0.4-0.4,0.7-0.5
		c0.5-0.2,1.2-0.3,1.8,0c0.3,0.1,0.5,0.3,0.7,0.5l0.2,0.2l0.6-0.5l-0.2-0.2c-0.3-0.3-0.6-0.5-0.9-0.6c-0.8-0.3-1.7-0.3-2.4,0
		c-0.4,0.2-0.7,0.4-1,0.7c-0.3,0.3-0.5,0.6-0.7,1c-0.2,0.4-0.2,0.8-0.2,1.3c0,0.5,0.1,0.9,0.2,1.3c0.2,0.4,0.4,0.7,0.7,1
		c0.3,0.3,0.6,0.5,1,0.7c0.4,0.2,0.8,0.2,1.2,0.2c0.4,0,0.7-0.1,1.1-0.2c0.4-0.1,0.7-0.3,1-0.6l0.2-0.2l-0.5-0.5L405.4,242.2z"/>
	<path class="st0" d="M410.8,237h-0.1c-0.5,0-0.9,0.1-1.3,0.4c-0.2,0.1-0.3,0.3-0.4,0.4l0-0.2c0-0.1,0-0.2,0-0.3l0-0.2h-0.8l0,0.3
		c0,0.1,0,0.2,0,0.3c0,0.1,0,0.2,0,0.4l0,0.4c0,0.1,0,0.2,0,0.3v4.4h0.8v-3.2c0-0.3,0-0.6,0.1-0.9c0.1-0.3,0.2-0.5,0.3-0.8
		c0.1-0.2,0.3-0.4,0.5-0.5c0.2-0.1,0.5-0.2,0.8-0.2l0.4,0.1V237l-0.2,0C410.8,237,410.8,237,410.8,237z"/>
	<path class="st0" d="M417.4,237.9c-0.2-0.3-0.5-0.5-0.9-0.7c-0.7-0.3-1.6-0.4-2.4,0c-0.4,0.2-0.7,0.4-0.9,0.7
		c-0.3,0.3-0.5,0.6-0.6,1c-0.1,0.4-0.2,0.8-0.2,1.3c0,0.5,0.1,0.9,0.2,1.3c0.1,0.4,0.4,0.8,0.6,1c0.3,0.3,0.6,0.5,1,0.7
		c0.4,0.2,0.8,0.2,1.2,0.2c0.5,0,1-0.1,1.4-0.3c0.4-0.2,0.8-0.5,1.1-0.9l0.1-0.2l-0.6-0.5l-0.2,0.2c-0.2,0.3-0.5,0.5-0.8,0.7
		c-0.6,0.3-1.5,0.3-2.1,0c-0.3-0.1-0.5-0.3-0.7-0.6c-0.2-0.2-0.3-0.5-0.4-0.8c-0.1-0.2-0.1-0.5-0.1-0.7h5v-0.5
		c0-0.4-0.1-0.7-0.2-1.1C417.8,238.5,417.6,238.2,417.4,237.9z M414.2,238c0.5-0.3,1.3-0.3,1.8-0.1c0.3,0.1,0.5,0.2,0.6,0.4
		c0.2,0.2,0.3,0.4,0.4,0.7c0.1,0.2,0.1,0.4,0.2,0.7h-4.2c0-0.1,0.1-0.3,0.1-0.4c0.1-0.3,0.2-0.5,0.4-0.7
		C413.8,238.3,414,238.1,414.2,238z"/>
	<path class="st0" d="M424.9,242.4c0-0.2,0-0.4,0-0.7v-2.5c0-0.8-0.2-1.4-0.6-1.7c-0.4-0.4-1-0.6-1.7-0.6c-0.3,0-0.7,0.1-1.1,0.2
		c-0.4,0.1-0.7,0.3-1,0.6l-0.2,0.1l0.4,0.6l0.2-0.2c0.2-0.2,0.4-0.3,0.7-0.4c0.3-0.1,0.5-0.2,0.8-0.2c0.5,0,0.9,0.1,1.1,0.4
		c0.3,0.2,0.4,0.6,0.4,1.2v0.2h-0.7c-0.3,0-0.6,0-1,0.1c-0.4,0-0.7,0.1-1.1,0.3c-0.3,0.1-0.6,0.4-0.9,0.6c-0.2,0.3-0.4,0.7-0.4,1.1
		c0,0.3,0.1,0.6,0.2,0.8c0.1,0.2,0.3,0.4,0.5,0.6c0.2,0.1,0.4,0.3,0.7,0.3c0.2,0.1,0.5,0.1,0.7,0.1c0.5,0,1-0.1,1.4-0.4
		c0.2-0.1,0.4-0.3,0.5-0.5c0,0.1,0,0.1,0,0.2c0,0.1,0,0.2,0,0.3l0,0.2h0.8l0-0.3C424.9,242.8,424.9,242.6,424.9,242.4z M424.1,240.2
		v0.3c0,0.3,0,0.5-0.1,0.8c-0.1,0.3-0.2,0.5-0.3,0.7c-0.1,0.2-0.3,0.4-0.6,0.5c-0.3,0.2-0.8,0.3-1.4,0.1c-0.2,0-0.3-0.1-0.4-0.2
		c-0.1-0.1-0.2-0.2-0.3-0.3c-0.1-0.1-0.1-0.3-0.1-0.5c0-0.3,0.1-0.5,0.2-0.7c0.2-0.2,0.4-0.3,0.6-0.4c0.3-0.1,0.5-0.2,0.9-0.2
		c0.3,0,0.6-0.1,0.9-0.1H424.1z"/>
	<path class="st0" d="M429.9,242.6c-0.4,0.1-0.9,0.1-1.1-0.1c-0.1-0.1-0.2-0.3-0.2-0.6v-4h1.6v-0.7h-1.6v-1.6h-0.8v1.6h-1.2v0.7h1.2
		v4c0,0.4,0.1,0.8,0.3,1.1c0.2,0.3,0.6,0.5,1.1,0.5c0.1,0,0.3,0,0.4,0c0.1,0,0.3-0.1,0.4-0.1l0.2-0.1l-0.1-0.7L429.9,242.6z"/>
	<path class="st0" d="M432.3,235.4c-0.1,0.1-0.2,0.2-0.2,0.4c0,0.2,0.1,0.3,0.2,0.4c0.1,0.1,0.2,0.2,0.4,0.2c0.1,0,0.2,0,0.4-0.2
		c0.1-0.1,0.2-0.2,0.2-0.4c0-0.2-0.1-0.3-0.2-0.4C432.9,235.2,432.5,235.2,432.3,235.4z"/>
	<rect x="432.3" y="237.2" class="st0" width="0.8" height="6.1"/>
	<polygon class="st0" points="437.8,242.1 435.8,237.2 435,237.2 437.4,243.3 438.1,243.3 440.5,237.2 439.6,237.2 	"/>
	<path class="st0" d="M447,237.9c-0.2-0.3-0.5-0.5-0.9-0.7c-0.7-0.3-1.6-0.4-2.4,0c-0.4,0.2-0.7,0.4-0.9,0.7c-0.3,0.3-0.5,0.6-0.6,1
		c-0.1,0.4-0.2,0.8-0.2,1.3c0,0.5,0.1,0.9,0.2,1.3c0.1,0.4,0.4,0.8,0.6,1c0.3,0.3,0.6,0.5,1,0.7c0.4,0.2,0.8,0.2,1.2,0.2
		c0.5,0,1-0.1,1.4-0.3c0.4-0.2,0.8-0.5,1.1-0.9l0.1-0.2l-0.6-0.5l-0.2,0.2c-0.2,0.3-0.5,0.5-0.8,0.7c-0.6,0.3-1.5,0.3-2.1,0
		c-0.3-0.1-0.5-0.3-0.7-0.6c-0.2-0.2-0.3-0.5-0.4-0.8c-0.1-0.2-0.1-0.5-0.1-0.7h5v-0.5c0-0.4-0.1-0.7-0.2-1.1
		C447.4,238.5,447.2,238.2,447,237.9z M443.8,238c0.5-0.3,1.3-0.3,1.8-0.1c0.3,0.1,0.5,0.3,0.6,0.4c0.2,0.2,0.3,0.4,0.4,0.7
		c0.1,0.2,0.1,0.4,0.2,0.7h-4.2c0-0.1,0.1-0.3,0.1-0.4c0.1-0.2,0.2-0.5,0.4-0.7C443.3,238.3,443.6,238.1,443.8,238z"/>
	<path class="st0" d="M462.7,237.9c-0.2-0.3-0.4-0.5-0.7-0.6c-0.3-0.2-0.6-0.2-1.1-0.2c-0.5,0-1,0.2-1.5,0.5
		c-0.3,0.2-0.5,0.4-0.6,0.7c0,0,0,0,0-0.1c-0.1-0.2-0.2-0.4-0.4-0.6c-0.2-0.2-0.4-0.3-0.6-0.4c-0.4-0.2-1.1-0.2-1.6,0
		c-0.2,0.1-0.5,0.2-0.7,0.4c-0.2,0.1-0.3,0.3-0.5,0.5l0-0.3c0-0.1,0-0.2,0-0.3l0-0.2h-0.8l0,0.3c0,0.1,0,0.2,0,0.3
		c0,0.1,0,0.2,0,0.4l0,0.4c0,0.1,0,0.2,0,0.3v4.4h0.8v-3.1c0-0.4,0.1-0.8,0.2-1.1c0.1-0.3,0.2-0.6,0.4-0.8c0.2-0.2,0.4-0.4,0.6-0.5
		c0.5-0.2,1.1-0.2,1.4,0c0.2,0.1,0.3,0.3,0.4,0.4c0.1,0.2,0.2,0.4,0.2,0.6c0,0.2,0.1,0.5,0.1,0.7v3.6h0.8v-3.1
		c0-0.4,0.1-0.8,0.2-1.1c0.1-0.3,0.2-0.6,0.4-0.8c0.2-0.2,0.4-0.4,0.6-0.5c0.5-0.2,1.1-0.2,1.4,0c0.2,0.1,0.3,0.3,0.4,0.5
		c0.1,0.2,0.2,0.4,0.2,0.6c0,0.2,0.1,0.5,0.1,0.7v3.6h0.8v-3.6c0-0.3,0-0.6-0.1-0.9C463,238.4,462.8,238.1,462.7,237.9z"/>
	<path class="st0" d="M471,242.7c0-0.1,0-0.2,0-0.4l0-0.4c0-0.1,0-0.2,0-0.3v-4.4h-0.8v3.1c0,0.4-0.1,0.8-0.2,1.1
		c-0.1,0.3-0.3,0.6-0.4,0.8c-0.2,0.2-0.4,0.4-0.6,0.5c-0.5,0.2-1.2,0.2-1.5,0c-0.2-0.1-0.3-0.3-0.5-0.5c-0.1-0.2-0.2-0.4-0.2-0.6
		c0-0.2-0.1-0.5-0.1-0.7v-3.6H466v3.6c0,0.3,0,0.6,0.1,0.9c0.1,0.3,0.2,0.6,0.4,0.9c0.2,0.3,0.4,0.5,0.7,0.6
		c0.3,0.2,0.7,0.2,1.1,0.2c0.3,0,0.5,0,0.8-0.1c0.3-0.1,0.5-0.2,0.7-0.4c0.2-0.1,0.4-0.3,0.5-0.5l0,0.3c0,0.1,0,0.2,0,0.3l0,0.2h0.5
		l0.3-0.1l0-0.3C471,242.9,471,242.8,471,242.7z"/>
	<path class="st0" d="M477.1,240.3c-0.2-0.1-0.4-0.2-0.6-0.3c-0.2-0.1-0.4-0.1-0.7-0.2c-0.2-0.1-0.4-0.1-0.6-0.2
		c-0.2-0.1-0.3-0.1-0.4-0.2c-0.1-0.1-0.2-0.1-0.2-0.3c-0.1-0.1-0.1-0.3-0.1-0.5c0-0.2,0-0.3,0.1-0.4c0.1-0.1,0.2-0.2,0.3-0.3
		c0.1-0.1,0.3-0.1,0.4-0.2c0.4-0.1,0.9-0.1,1.2,0.1c0.2,0.1,0.4,0.3,0.5,0.5l0.1,0.2l0.7-0.4l-0.2-0.2c-0.4-0.6-1.1-0.9-1.9-0.9
		c-0.2,0-0.5,0-0.7,0.1c-0.2,0.1-0.4,0.2-0.6,0.3c-0.2,0.1-0.3,0.3-0.5,0.5c-0.1,0.2-0.2,0.5-0.2,0.8c0,0.3,0,0.5,0.1,0.7
		c0.1,0.2,0.2,0.4,0.4,0.5c0.2,0.1,0.3,0.2,0.5,0.3c0.2,0.1,0.4,0.1,0.6,0.2c0.2,0,0.4,0.1,0.6,0.2c0.2,0.1,0.4,0.1,0.5,0.2
		c0.1,0.1,0.3,0.2,0.4,0.3c0.1,0.1,0.1,0.3,0.1,0.5c0,0.2,0,0.3-0.1,0.5c-0.1,0.1-0.2,0.3-0.3,0.3c-0.1,0.1-0.3,0.2-0.4,0.2
		s-0.3,0.1-0.5,0.1c-0.7,0-1.2-0.2-1.6-0.7l-0.1-0.2l-0.6,0.4l0.1,0.2c0.2,0.3,0.6,0.6,0.9,0.8c0.4,0.2,0.8,0.3,1.2,0.3
		c0.3,0,0.5,0,0.8-0.1c0.2-0.1,0.5-0.2,0.7-0.4c0.2-0.2,0.3-0.4,0.5-0.6c0.1-0.2,0.2-0.5,0.2-0.8c0-0.3-0.1-0.5-0.2-0.8
		C477.4,240.6,477.3,240.4,477.1,240.3z"/>
	<path class="st0" d="M480.1,235.4c-0.1,0.1-0.2,0.2-0.2,0.4c0,0.2,0.1,0.3,0.2,0.4c0.1,0.1,0.2,0.2,0.4,0.2c0.1,0,0.2,0,0.4-0.1
		c0.1-0.1,0.2-0.2,0.2-0.4c0-0.2-0.1-0.3-0.2-0.4C480.7,235.2,480.3,235.2,480.1,235.4z"/>
	<rect x="480.1" y="237.2" class="st0" width="0.8" height="6.1"/>
	<path class="st0" d="M488,242.2c-0.2,0.2-0.4,0.3-0.7,0.4c-0.6,0.2-1.3,0.2-1.8-0.1c-0.3-0.1-0.5-0.3-0.7-0.5
		c-0.2-0.2-0.4-0.5-0.5-0.8c-0.1-0.3-0.2-0.6-0.2-1c0-0.3,0.1-0.7,0.2-1c0.1-0.3,0.3-0.6,0.5-0.8c0.2-0.2,0.4-0.4,0.7-0.5
		c0.5-0.2,1.2-0.3,1.8,0c0.3,0.1,0.5,0.3,0.7,0.5l0.2,0.2l0.6-0.5l-0.2-0.2c-0.2-0.3-0.6-0.5-0.9-0.6c-0.8-0.3-1.7-0.3-2.4,0
		c-0.4,0.2-0.7,0.4-1,0.7c-0.3,0.3-0.5,0.6-0.7,1c-0.2,0.4-0.2,0.8-0.2,1.3c0,0.5,0.1,0.9,0.2,1.3c0.2,0.4,0.4,0.7,0.7,1
		c0.3,0.3,0.6,0.5,1,0.7c0.4,0.2,0.8,0.2,1.2,0.2c0.4,0,0.7-0.1,1.1-0.2c0.4-0.1,0.7-0.3,1-0.6l0.2-0.2l-0.5-0.5L488,242.2z"/>
	<path class="st0" d="M498.9,242.2c-0.2,0.2-0.4,0.3-0.7,0.4c-0.6,0.2-1.3,0.2-1.8-0.1c-0.3-0.1-0.5-0.3-0.7-0.5
		c-0.2-0.2-0.4-0.5-0.5-0.8c-0.1-0.3-0.2-0.6-0.2-1c0-0.3,0.1-0.7,0.2-1c0.1-0.3,0.3-0.6,0.5-0.8c0.2-0.2,0.4-0.4,0.7-0.5
		c0.5-0.2,1.2-0.3,1.8,0c0.3,0.1,0.5,0.3,0.7,0.5l0.2,0.2l0.6-0.5l-0.2-0.2c-0.2-0.3-0.6-0.5-0.9-0.6c-0.8-0.3-1.7-0.3-2.4,0
		c-0.4,0.2-0.7,0.4-1,0.7c-0.3,0.3-0.5,0.6-0.7,1c-0.2,0.4-0.2,0.8-0.2,1.3c0,0.5,0.1,0.9,0.2,1.3c0.2,0.4,0.4,0.7,0.7,1
		c0.3,0.3,0.6,0.5,1,0.7c0.4,0.2,0.8,0.2,1.2,0.2c0.4,0,0.7-0.1,1.1-0.2c0.4-0.1,0.7-0.3,1-0.6l0.2-0.2l-0.5-0.5L498.9,242.2z"/>
	<path class="st0" d="M506.6,237.9c-0.3-0.3-0.6-0.5-1-0.7c-0.8-0.3-1.8-0.3-2.6,0c-0.4,0.2-0.7,0.4-1,0.7c-0.3,0.3-0.5,0.6-0.7,1
		c-0.2,0.4-0.2,0.8-0.2,1.3c0,0.5,0.1,0.9,0.2,1.3c0.2,0.4,0.4,0.7,0.7,1c0.3,0.3,0.6,0.5,1,0.7c0.4,0.2,0.8,0.2,1.3,0.2
		c0.5,0,0.9-0.1,1.3-0.2c0.4-0.2,0.7-0.4,1-0.7c0.3-0.3,0.5-0.6,0.7-1c0.2-0.4,0.2-0.8,0.2-1.3c0-0.5-0.1-0.9-0.2-1.3
		C507.1,238.5,506.9,238.2,506.6,237.9z M504.3,237.7c0.4,0,0.7,0.1,1,0.2c0.3,0.1,0.5,0.3,0.8,0.5c0.2,0.2,0.4,0.5,0.5,0.8
		c0.1,0.3,0.2,0.6,0.2,1c0,0.3-0.1,0.7-0.2,1c-0.1,0.3-0.3,0.6-0.5,0.8c-0.2,0.2-0.5,0.4-0.8,0.5c-0.6,0.3-1.4,0.3-2,0
		c-0.3-0.1-0.5-0.3-0.8-0.5c-0.2-0.2-0.4-0.5-0.5-0.8c-0.1-0.3-0.2-0.6-0.2-1c0-0.3,0.1-0.7,0.2-1c0.1-0.3,0.3-0.6,0.5-0.8
		c0.2-0.2,0.5-0.4,0.8-0.5C503.6,237.8,503.9,237.7,504.3,237.7z"/>
	<path class="st0" d="M515.1,237.9c-0.3-0.3-0.6-0.5-1-0.7c-0.8-0.3-1.8-0.3-2.6,0c-0.4,0.2-0.7,0.4-1,0.7c-0.3,0.3-0.5,0.6-0.7,1
		c-0.2,0.4-0.2,0.8-0.2,1.3c0,0.5,0.1,0.9,0.2,1.3c0.2,0.4,0.4,0.7,0.7,1c0.3,0.3,0.6,0.5,1,0.7c0.4,0.2,0.8,0.2,1.3,0.2
		c0.5,0,0.9-0.1,1.3-0.2c0.4-0.2,0.7-0.4,1-0.7c0.3-0.3,0.5-0.6,0.7-1c0.2-0.4,0.2-0.8,0.2-1.3c0-0.5-0.1-0.9-0.2-1.3
		C515.6,238.5,515.4,238.2,515.1,237.9z M511.8,242.5c-0.3-0.1-0.5-0.3-0.8-0.5c-0.2-0.2-0.4-0.5-0.5-0.8c-0.1-0.3-0.2-0.6-0.2-1
		c0-0.3,0.1-0.7,0.2-1c0.1-0.3,0.3-0.6,0.5-0.8c0.2-0.2,0.5-0.4,0.8-0.5c0.3-0.1,0.6-0.2,1-0.2c0.4,0,0.7,0.1,1,0.2
		c0.3,0.1,0.6,0.3,0.8,0.5c0.2,0.2,0.4,0.5,0.5,0.8c0.1,0.3,0.2,0.6,0.2,1c0,0.3-0.1,0.7-0.2,1c-0.1,0.3-0.3,0.6-0.5,0.8
		c-0.2,0.2-0.5,0.4-0.8,0.5C513.2,242.8,512.4,242.8,511.8,242.5z"/>
	<path class="st0" d="M523.8,237.9c-0.3-0.3-0.6-0.5-1-0.7c-0.9-0.4-2-0.3-2.9,0.2c-0.3,0.2-0.5,0.4-0.7,0.6v-0.9h-0.8v9h0.8v-3.8
		c0,0,0,0,0,0c0.2,0.2,0.4,0.4,0.7,0.6c0.2,0.2,0.5,0.3,0.8,0.4c0.7,0.2,1.5,0.1,2.1-0.1c0.4-0.2,0.7-0.4,1-0.7
		c0.3-0.3,0.5-0.6,0.6-1c0.1-0.4,0.2-0.8,0.2-1.3c0-0.5-0.1-0.9-0.2-1.3C524.2,238.6,524,238.2,523.8,237.9z M520.6,242.5
		c-0.3-0.1-0.5-0.3-0.7-0.5c-0.2-0.2-0.4-0.5-0.5-0.8c-0.1-0.3-0.2-0.6-0.2-1c0-0.3,0.1-0.7,0.2-1c0.1-0.3,0.3-0.6,0.5-0.8
		c0.2-0.2,0.5-0.4,0.7-0.5c0.3-0.1,0.6-0.2,0.9-0.2c0.4,0,0.7,0.1,0.9,0.2c0.3,0.1,0.5,0.3,0.7,0.5c0.2,0.2,0.3,0.5,0.5,0.8
		c0.1,0.3,0.2,0.6,0.2,1c0,0.3-0.1,0.7-0.2,1c-0.1,0.3-0.3,0.6-0.5,0.8c-0.2,0.2-0.4,0.4-0.7,0.5C522,242.8,521.2,242.8,520.6,242.5
		z"/>
	<path class="st0" d="M531.7,237.9c-0.2-0.3-0.5-0.5-0.9-0.7c-0.7-0.3-1.6-0.4-2.4,0c-0.4,0.2-0.7,0.4-0.9,0.7
		c-0.3,0.3-0.5,0.6-0.6,1c-0.1,0.4-0.2,0.8-0.2,1.3c0,0.5,0.1,0.9,0.2,1.3c0.1,0.4,0.4,0.8,0.6,1c0.3,0.3,0.6,0.5,1,0.7
		c0.4,0.2,0.8,0.2,1.2,0.2c0.5,0,1-0.1,1.4-0.3c0.4-0.2,0.8-0.5,1.1-0.9l0.1-0.2l-0.6-0.5l-0.2,0.2c-0.2,0.3-0.5,0.5-0.8,0.7
		c-0.3,0.2-0.7,0.2-1.1,0.2c-0.4,0-0.7-0.1-1-0.2c-0.3-0.1-0.5-0.3-0.7-0.6c-0.2-0.2-0.3-0.5-0.4-0.8c-0.1-0.2-0.1-0.5-0.1-0.7h5
		v-0.5c0-0.4-0.1-0.7-0.2-1.1C532.1,238.5,531.9,238.2,531.7,237.9z M528.6,238c0.5-0.3,1.3-0.3,1.8-0.1c0.3,0.1,0.5,0.3,0.6,0.4
		c0.2,0.2,0.3,0.4,0.4,0.7c0.1,0.2,0.1,0.4,0.2,0.7h-4.2c0-0.1,0.1-0.3,0.1-0.4c0.1-0.3,0.2-0.5,0.4-0.7
		C528.1,238.3,528.3,238.1,528.6,238z"/>
	<path class="st0" d="M537.5,237h-0.1c-0.5,0-0.9,0.1-1.3,0.4c-0.2,0.1-0.3,0.3-0.4,0.4l0-0.2c0-0.1,0-0.2,0-0.3l0-0.2h-0.8l0,0.3
		c0,0.1,0,0.2,0,0.3c0,0.1,0,0.2,0,0.4l0,0.4c0,0.1,0,0.2,0,0.3v4.4h0.8v-3.2c0-0.3,0-0.6,0.1-0.9c0.1-0.3,0.2-0.5,0.3-0.8
		c0.1-0.2,0.3-0.4,0.5-0.5c0.2-0.1,0.5-0.2,0.8-0.2l0.4,0.1V237l-0.2,0C537.6,237,537.6,237,537.5,237z"/>
	<path class="st0" d="M544,242.4c0-0.2,0-0.5,0-0.7v-2.5c0-0.8-0.2-1.4-0.6-1.7c-0.4-0.4-1-0.6-1.7-0.6c-0.3,0-0.7,0.1-1.1,0.2
		c-0.4,0.1-0.7,0.3-1,0.6l-0.2,0.1l0.4,0.6l0.2-0.2c0.2-0.2,0.4-0.3,0.7-0.4c0.3-0.1,0.5-0.2,0.8-0.2c0.5,0,0.9,0.1,1.1,0.4
		c0.3,0.2,0.4,0.6,0.4,1.2v0.2h-0.7c-0.3,0-0.6,0-1,0.1c-0.4,0-0.7,0.1-1.1,0.3c-0.3,0.1-0.6,0.4-0.9,0.6c-0.2,0.3-0.4,0.7-0.4,1.1
		c0,0.3,0.1,0.6,0.2,0.8c0.1,0.2,0.3,0.4,0.5,0.6c0.2,0.1,0.4,0.3,0.7,0.3c0.2,0.1,0.5,0.1,0.7,0.1c0.5,0,1-0.1,1.4-0.4
		c0.2-0.1,0.4-0.3,0.5-0.5c0,0.1,0,0.1,0,0.2c0,0.1,0,0.2,0,0.3l0,0.2h0.7l0-0.3C544,242.8,544,242.6,544,242.4z M543.2,240.2v0.3
		c0,0.2,0,0.5-0.1,0.8c-0.1,0.3-0.2,0.5-0.3,0.7c-0.2,0.2-0.3,0.4-0.6,0.5c-0.3,0.2-0.8,0.3-1.4,0.1c-0.2,0-0.3-0.1-0.4-0.2
		c-0.1-0.1-0.2-0.2-0.3-0.3c-0.1-0.1-0.1-0.3-0.1-0.5c0-0.3,0.1-0.5,0.2-0.7c0.2-0.2,0.4-0.3,0.6-0.4c0.3-0.1,0.6-0.2,0.9-0.2
		c0.3,0,0.6-0.1,0.9-0.1H543.2z"/>
	<path class="st0" d="M549,242.6c-0.4,0.1-0.9,0.1-1.1-0.1c-0.1-0.1-0.2-0.3-0.2-0.6v-4h1.6v-0.7h-1.6v-1.6h-0.8v1.6h-1.2v0.7h1.2v4
		c0,0.4,0.1,0.8,0.3,1.1c0.2,0.3,0.6,0.5,1.1,0.5c0.1,0,0.3,0,0.4,0c0.1,0,0.3-0.1,0.4-0.1l0.2-0.1l-0.1-0.7L549,242.6z"/>
	<path class="st0" d="M551.5,235.4c-0.1,0.1-0.2,0.2-0.2,0.4c0,0.2,0.1,0.3,0.2,0.4c0.1,0.1,0.2,0.2,0.4,0.2c0.1,0,0.2,0,0.4-0.2
		c0.1-0.1,0.2-0.2,0.2-0.4c0-0.2-0.1-0.3-0.2-0.4C552,235.2,551.6,235.2,551.5,235.4z"/>
	<rect x="551.4" y="237.2" class="st0" width="0.8" height="6.1"/>
	<polygon class="st0" points="556.9,242.1 555,237.2 554.1,237.2 556.5,243.3 557.2,243.3 559.6,237.2 558.7,237.2 	"/>
	<path class="st0" d="M566.8,239.9c0-0.4-0.1-0.7-0.2-1.1c-0.1-0.4-0.3-0.7-0.5-0.9c-0.2-0.3-0.5-0.5-0.9-0.7
		c-0.7-0.3-1.6-0.4-2.4,0c-0.4,0.2-0.7,0.4-0.9,0.7c-0.3,0.3-0.5,0.6-0.6,1c-0.1,0.4-0.2,0.8-0.2,1.3c0,0.5,0.1,0.9,0.2,1.3
		c0.1,0.4,0.4,0.8,0.6,1c0.3,0.3,0.6,0.5,1,0.7c0.4,0.2,0.8,0.2,1.2,0.2c0.5,0,1-0.1,1.4-0.3c0.4-0.2,0.8-0.5,1.1-0.9l0.1-0.2
		l-0.6-0.5l-0.2,0.2c-0.2,0.3-0.5,0.5-0.8,0.7c-0.3,0.2-0.7,0.2-1.1,0.2c-0.4,0-0.7-0.1-1-0.2c-0.3-0.1-0.5-0.3-0.7-0.6
		c-0.2-0.2-0.3-0.5-0.4-0.8c-0.1-0.2-0.1-0.5-0.1-0.7h5V239.9z M563,238c0.3-0.2,0.6-0.2,1-0.2c0.3,0,0.6,0.1,0.9,0.2
		c0.3,0.1,0.5,0.2,0.6,0.4c0.2,0.2,0.3,0.4,0.4,0.7c0.1,0.2,0.1,0.4,0.2,0.7h-4.2c0-0.1,0.1-0.3,0.1-0.4c0.1-0.2,0.2-0.5,0.4-0.7
		C562.5,238.3,562.7,238.1,563,238z"/>
</g>
<g>
	<g>
		<path class="st3" d="M305.6,87c-4.2,0-7.8,2.1-9.2,5c2.2-2.1,5.5-3.4,9.2-3.4c3.7,0,7,1.3,9.2,3.4C313.4,89.1,309.8,87,305.6,87z"
			/>
		<path class="st3" d="M305.6,83.2c-5.5,0-10.2,2.7-12,6.5c2.9-2.7,7.2-4.4,12-4.4c4.8,0,9.2,1.7,12,4.4
			C315.8,85.9,311.2,83.2,305.6,83.2z"/>
		<path class="st3" d="M320.8,86.7c-2.3-4.8-8.2-8.2-15.1-8.2c-6.9,0-12.8,3.4-15.1,8.2c3.6-3.4,9-5.6,15.1-5.6
			C311.7,81.1,317.2,83.3,320.8,86.7z"/>
	</g>
	<g>
		<path class="st3" d="M305.6,119c4.2,0,7.8-2.1,9.2-5c-2.2,2.1-5.5,3.4-9.2,3.4c-3.7,0-7-1.3-9.2-3.4
			C297.9,116.9,301.4,119,305.6,119z"/>
		<path class="st3" d="M305.6,122.8c5.5,0,10.2-2.7,12-6.5c-2.9,2.7-7.2,4.4-12,4.4c-4.8,0-9.2-1.7-12-4.4
			C295.4,120.1,300.1,122.8,305.6,122.8z"/>
		<path class="st3" d="M290.5,119.3c2.3,4.8,8.2,8.2,15.1,8.2c6.9,0,12.8-3.4,15.1-8.2c-3.6,3.4-9,5.6-15.1,5.6
			C299.6,124.9,294.1,122.7,290.5,119.3z"/>
	</g>
	<path class="st3" d="M301.9,103.8c0-0.1-0.1-0.3-0.1-0.6c0-0.3,0-0.5,0-0.6l0-0.4c0-0.1,0-0.2,0-0.3c0-0.2,0.1-0.5,0.1-0.7
		c0-0.2,0.1-0.4,0.1-0.6c0.2-0.6,0.4-1,0.7-1.5c0.3-0.4,0.7-0.7,1.2-0.9c0.1-0.1,0.2-0.1,0.3-0.1c0.1,0,0.3-0.1,0.5-0.1
		c0,0,0.1,0,0.1,0c0.1,0,0.2,0,0.3,0c0.2,0,0.4,0,0.5,0c0.2,0,0.3,0,0.5,0c0.2,0,0.3,0.1,0.4,0.1c0.1,0,0.2,0.1,0.3,0.1
		c0.5,0.2,0.9,0.5,1.2,0.9c0.3,0.4,0.6,0.8,0.8,1.4c0.1,0.2,0.1,0.3,0.1,0.5c0,0.2,0.1,0.4,0.1,0.5l0,0c0,0,0,0,0,0.1
		c0,0.1,0,0.2,0,0.3c0,0.1,0,0.3,0.1,0.4l0,0.3c0,0.1,0,0.2,0,0.4c0,0.2,0,0.3,0,0.4c0,0.1,0,0.2,0,0.4v0.3c0,0.1,0,0.2,0,0.3
		c0,0.1,0,0.1,0,0.2c-0.1,0.2-0.1,0.5-0.2,0.7c0,0.2-0.1,0.4-0.2,0.6c-0.2,0.5-0.5,0.9-0.8,1.3c-0.3,0.3-0.7,0.6-1.3,0.8
		c-0.1,0.1-0.3,0.1-0.4,0.1c-0.2,0-0.3,0.1-0.5,0.1h-0.2l-0.1,0c-0.1,0-0.1,0-0.2,0c-0.1,0-0.2,0-0.2,0c-0.1,0-0.1,0-0.2,0
		c0,0-0.1,0-0.1,0c0,0-0.1,0-0.1,0c-0.2,0-0.4-0.1-0.5-0.2c-0.2-0.1-0.3-0.1-0.5-0.2c-0.5-0.3-0.9-0.6-1.1-1
		c-0.2-0.4-0.5-0.9-0.7-1.5c0-0.2-0.1-0.3-0.1-0.5c0-0.2-0.1-0.3-0.1-0.5L301.9,103.8L301.9,103.8z"/>
</g>
<g>
	<g>
		<path class="st4" d="M305.6,225c-4.2,0-7.8,2.1-9.2,5c2.2-2.1,5.5-3.4,9.2-3.4c3.7,0,7,1.3,9.2,3.4
			C313.4,227.1,309.8,225,305.6,225z"/>
		<path class="st4" d="M305.6,221.2c-5.5,0-10.2,2.7-12,6.5c2.9-2.7,7.2-4.4,12-4.4c4.8,0,9.2,1.7,12,4.4
			C315.8,223.9,311.2,221.2,305.6,221.2z"/>
		<path class="st4" d="M320.8,224.7c-2.3-4.8-8.2-8.2-15.1-8.2c-6.9,0-12.8,3.4-15.1,8.2c3.6-3.4,9-5.6,15.1-5.6
			C311.7,219.1,317.2,221.3,320.8,224.7z"/>
	</g>
	<g>
		<path class="st4" d="M305.6,257c4.2,0,7.8-2.1,9.2-5c-2.2,2.1-5.5,3.4-9.2,3.4c-3.7,0-7-1.3-9.2-3.4
			C297.9,254.9,301.4,257,305.6,257z"/>
		<path class="st4" d="M305.6,260.8c5.5,0,10.2-2.7,12-6.5c-2.9,2.7-7.2,4.4-12,4.4c-4.8,0-9.2-1.7-12-4.4
			C295.4,258.1,300.1,260.8,305.6,260.8z"/>
		<path class="st4" d="M290.5,257.3c2.3,4.8,8.2,8.2,15.1,8.2c6.9,0,12.8-3.4,15.1-8.2c-3.6,3.4-9,5.6-15.1,5.6
			C299.6,262.9,294.1,260.7,290.5,257.3z"/>
	</g>
	<path class="st4" d="M302,241.8c0-0.1-0.1-0.3-0.1-0.6c0-0.3,0-0.5,0-0.6l0-0.4c0-0.1,0-0.2,0-0.3c0-0.2,0.1-0.5,0.1-0.7
		c0-0.2,0.1-0.4,0.1-0.6c0.2-0.5,0.4-1,0.7-1.4c0.3-0.4,0.7-0.7,1.2-0.9c0.1,0,0.2-0.1,0.3-0.1c0.1,0,0.3-0.1,0.4-0.1
		c0,0,0.1,0,0.1,0c0.1,0,0.2,0,0.3,0c0.2,0,0.3,0,0.5,0c0.2,0,0.3,0,0.4,0c0.1,0,0.3,0.1,0.4,0.1c0.1,0,0.2,0.1,0.3,0.1
		c0.5,0.2,0.9,0.5,1.1,0.8c0.3,0.4,0.5,0.8,0.8,1.3c0.1,0.2,0.1,0.3,0.1,0.5c0,0.2,0.1,0.4,0.1,0.5l0,0c0,0,0,0,0,0.1
		c0,0.1,0,0.2,0,0.3c0,0.1,0,0.3,0.1,0.4l0,0.2c0,0.1,0,0.2,0,0.4c0,0.2,0,0.3,0,0.4c0,0.1,0,0.2,0,0.3v0.3c0,0.1,0,0.2,0,0.3
		c0,0.1,0,0.1,0,0.2c-0.1,0.2-0.1,0.5-0.2,0.7c0,0.2-0.1,0.4-0.2,0.6c-0.2,0.5-0.5,0.9-0.8,1.2c-0.3,0.3-0.7,0.6-1.2,0.8
		c-0.1,0.1-0.3,0.1-0.4,0.1c-0.2,0-0.3,0.1-0.5,0.1h-0.2l-0.1,0c-0.1,0-0.1,0-0.2,0c-0.1,0-0.2,0-0.2,0c-0.1,0-0.1,0-0.2,0
		c0,0-0.1,0-0.1,0c0,0-0.1,0-0.1,0c-0.2,0-0.3-0.1-0.5-0.1c-0.2-0.1-0.3-0.1-0.4-0.2c-0.5-0.3-0.8-0.6-1-1c-0.2-0.4-0.4-0.8-0.6-1.4
		c0-0.2-0.1-0.3-0.1-0.5c0-0.2-0.1-0.3-0.1-0.5L302,241.8L302,241.8z"/>
</g>
</svg>
