<svg version="1" xmlns="http://www.w3.org/2000/svg" width="744" height="744" viewBox="0 0 558.000000 558.000000"><path d="M257.7 61.6c-.2.2-3 .6-6.2 1-33.8 3.5-70.7 18.4-100.7 40.6-37.6 27.9-66 70-77.8 115.3-1.6 6.1-2.6 10.6-4.5 20.5-1.3 6.6-2 19.1-2 35.5.1 18.2.3 21.3 3.1 36.5 13.6 74.9 67.6 137.3 140.3 161.9 23.2 7.9 40.1 10.5 67.1 10.6 23.5 0 35.4-1.5 56.5-7 54.6-14.4 104.2-54.3 131.2-105.5 11.7-22.2 20-48.9 23-74 1.8-14.7.8-48.5-1.8-61.2-11.6-58.2-39.9-102.7-86.6-136.2-5.1-3.6-9.5-6.6-9.8-6.6-.2 0-3.3-1.7-6.8-3.9C361.2 75.9 332 66.2 303 62.5c-9-1.1-44.4-1.8-45.3-.9zM205 187.5c29.8 2.9 54 20.7 62.5 45.9 3.6 10.7 3.6 14.3-.1 17.6-3 2.6-3.2 2.6-19.5 2.9-16.1.2-20.6-.4-23.3-3.2-.6-.6-2.5-3.9-4.1-7.1-6.3-12.5-15.2-18-29.1-17.9-8.8 0-17.8 3.8-23.7 9.9-11 11.3-15.9 35.4-11.7 58.2 1.4 8 8.1 21.2 12.8 25.3 10.1 8.9 28.3 10.4 39.7 3.2 6.9-4.4 9.4-7.9 15.1-21.2 2.9-6.9 6.5-8.1 24.4-7.7 17.8.4 19.4.8 21.6 5.4 1.6 3.4 1.6 3.9-.6 11.6-6.5 22.9-20.9 39.3-42.6 48.5-17.8 7.6-45.6 8.6-64.9 2.4-18.1-5.7-34.6-18.4-43.9-33.8-9.8-16.3-12.9-28.7-12.9-51.5 0-10.6.5-14.4 3.1-24.7 3.7-14.5 10.3-28.3 17.1-35.5.9-.9 3.4-3.5 5.6-5.9 7.9-8.3 27.2-19 37.2-20.5 2.1-.3 5.2-.9 6.8-1.3 1.7-.4 5.9-.9 9.5-1 3.6-.1 6.6-.3 6.7-.5.3-.2 6 .1 14.3.9zm178.5 0c18.6 2.1 32.7 7.8 42.1 17.1 10.7 10.6 17.9 27.9 14.4 34.4-2.1 3.9-6.3 4.8-23 4.6-12.5-.1-16-.5-17.9-1.8-2.4-1.7-7.1-8-7.1-9.6 0-1.1-5-5.7-7.9-7.2-10.2-5.3-30.6-4.6-36.8 1.2-1.3 1.2-2.8 3.9-3.5 6-1 3.4-.9 4.1 1.5 7.7 1.5 2.2 4 4.7 5.6 5.6 6.3 3.2 19.5 7.3 28.6 8.9 1.7.3 4.1.7 5.5 1 1.4.3 3.6.8 5 1.1 20.2 4.3 31.8 9 41.6 16.9 10.8 8.6 15.9 20.8 15 35.6-.6 9.6-.8 10.6-3.3 17.5-4 11-10.3 18.9-20.2 25.3-6.2 3.9-18.1 9-23 9.8-1.8.3-4.3.8-5.5 1.1-8.2 2-28 3.3-36.1 2.3-3.3-.4-8.5-1.1-11.5-1.5-6.7-.8-21.4-5.7-29.5-9.7-7.6-3.9-17.1-13.4-21.4-21.6-3.9-7.5-5-11-5.8-17.9-.5-4.8-.3-5.5 2.5-8.2l3-3 17.5.2c20.3.2 20 .1 24.9 10.4 5.2 11 15.6 16.6 31.2 16.7 9.5.1 13-.8 19.8-5.1 6.6-4.1 9.1-12.2 5.7-18.3-3.8-6.6-11.9-10.5-32.9-15.4-11.4-2.7-26.3-6.6-35-9-6.6-1.9-16.5-7.2-21-11.2-14.1-12.7-17.2-34.4-7.7-54.4 7.7-16.5 28.6-27.8 55.2-29.9 8.6-.7 21.9-.5 30 .4z"/></svg>