<?xml version="1.0" encoding="utf-8"?>
<!-- Generator: Adobe Illustrator 21.1.0, SVG Export Plug-In . SVG Version: 6.00 Build 0)  -->
<svg version="1.1"
	 id="svg2447" inkscape:output_extension="org.inkscape.output.svg.inkscape" inkscape:version="0.46" sodipodi:docname="Icon_sound_loudspeaker2.svg" sodipodi:version="0.32" xmlns:cc="http://creativecommons.org/ns#" xmlns:dc="http://purl.org/dc/elements/1.1/" xmlns:inkscape="http://www.inkscape.org/namespaces/inkscape" xmlns:rdf="http://www.w3.org/1999/02/22-rdf-syntax-ns#" xmlns:sodipodi="http://sodipodi.sourceforge.net/DTD/sodipodi-0.dtd" xmlns:svg="http://www.w3.org/2000/svg"
	 xmlns="http://www.w3.org/2000/svg" xmlns:xlink="http://www.w3.org/1999/xlink" x="0px" y="0px" viewBox="0 0 220 205.9"
	 style="enable-background:new 0 0 220 205.9;" xml:space="preserve">
<style type="text/css">
	.st0{fill:#FFFFFF;}
	.st1{fill:none;}
</style>
<sodipodi:namedview  bordercolor="#666666" borderopacity="1.0" gridtolerance="10.0" guidetolerance="10.0" id="base" inkscape:current-layer="svg2447" inkscape:cx="110" inkscape:cy="102.965" inkscape:pageopacity="0.50196078" inkscape:pageshadow="2" inkscape:window-height="480" inkscape:window-width="640" inkscape:zoom="2.4571457" objecttolerance="10.0" pagecolor="#ff8080" showgrid="false">
	</sodipodi:namedview>
<defs>
	
	
		<inkscape:perspective  id="perspective2469" inkscape:persp3d-origin="1240 : 1169.3333 : 1" inkscape:vp_x="0 : 1754 : 1" inkscape:vp_y="0 : 1000 : 0" inkscape:vp_z="2480 : 1754 : 1" sodipodi:type="inkscape:persp3d">
		</inkscape:perspective>
</defs>
<g id="Outline" transform="matrix(1.6293558,0,0,1.6293558,-779.58657,-1107.0881)">
	<path id="path2454" class="st0" d="M536.2,798.1l-27.7-27.7l-19.5-0.1c-2.7,0-4.3-1.6-4.3-4v-47.3c0-2.1,1.6-3.9,3.9-3.9l20-0.1
		l28.2-28.2c2.5-2.5,7.9-1,7.9,3.7v104.4C544.6,800.4,538.8,800.8,536.2,798.1z"/>
	<path id="path2456" class="st0" d="M590.6,685.6c0.1,0,0.1,0,0.2,0c0,0.1,0,0.1,0.9,0.1c0.8,0.3,0.8,0.3,1.2,0.5
		c0.3,0.2,0.6,0.4,0.9,0.6c0.1,0.1,0.3,0.3,0.5,0.5c0.2,0.4,0.4,0.6,0.7,1c0.9,1.9,0.9,1.9,2.3,4.9c0.6,1.5,1.2,3,1.9,4.5
		c0.9,2.5,0.9,2.5,1.9,5.3c0.9,3,0.9,3,1.9,6.3c0.3,1.2,0.6,2.5,0.9,3.8c0.3,1.5,0.6,2.9,0.9,4.3c0.3,1.8,0.6,3.5,0.9,5.3
		c0.5,3.2,0.5,3.2,0.9,7.3c0.2,2.6,0.2,2.6,0.5,6.3c0.1,2.9,0.1,2.9,0.1,2.9c0,2.5,0,4.9,0,7.4c-0.4,6.3-0.4,6.3-0.6,8.9
		c-0.5,4.1-0.5,4.1-0.9,7.4c-0.5,2.8-0.5,2.8-1.4,7.6c-0.4,1.4-0.6,2.7-0.9,4.1c-0.9,3.5-0.9,3.5-1.9,6.7c-0.4,0.9-0.6,1.9-0.9,2.9
		c-0.6,1.7-1.3,3.3-1.9,5c-0.5,1.1-0.9,2.2-1.4,3.3c-0.6,1.4-1.3,2.6-1.9,4c-0.2,0.3-0.4,0.6-0.6,0.9c-0.1,0.2-0.2,0.3-0.4,0.5
		c-0.4,0.2-0.8,0.5-1.1,0.8c-0.4,0.2-0.8,0.4-1.2,0.5c-0.3,0.1-0.6,0.1-0.9,0.1c-0.3,0-0.6-0.1-0.9-0.1c-0.5-0.1-0.5-0.1-1.2-0.4
		c-0.6-0.3-0.6-0.3-1.1-0.6c-0.3-0.4-0.6-0.6-0.9-1c-0.2-0.3-0.4-0.6-0.5-0.9c-0.2-0.6-0.2-0.6-0.4-1.2c0-0.5,0-1,0-1.4
		c0.1-0.3,0.1-0.5,0.2-0.8c0.5-1.1,0.5-1.1,2.3-5.1c0.6-1.6,1.2-3.2,1.9-4.7c0.9-2.7,0.9-2.7,1.9-5.6c0.9-3.3,0.9-3.3,1.9-7
		c0.9-4.3,0.9-4.3,1.4-6.9c0.5-3,0.5-3,0.9-6.5c0.1-1.6,0.3-3.2,0.5-4.9c0.1-1.3,0.2-2.6,0.2-3.8c0.1-1.4,0.1-2.8,0.1-4.1
		c0-1.1,0-2.2,0-3.3c-0.1-1.2-0.1-2.5-0.1-3.7c-0.1-2.1-0.1-2.1-0.6-7.5c-0.2-1.2-0.4-2.5-0.5-3.8c-0.4-1.9-0.6-3.8-0.9-5.7
		c-0.5-2.3-0.5-2.3-1.4-6.5c-0.9-3.5-0.9-3.5-1.9-6.7c-0.4-0.9-0.6-1.9-0.9-2.8c-0.5-1.3-0.9-2.6-1.4-3.8c-0.5-1.1-0.9-2.2-1.4-3.3
		c-0.8-1.6-1.6-3.3-2.3-4.9c-0.1-0.4-0.2-0.7-0.2-1.1c0-0.4,0-0.7,0-1.1c0.1-0.3,0.1-0.6,0.2-0.9c0.4-0.8,0.4-0.8,0.6-1.4
		c0.2-0.4,0.5-0.6,0.8-0.9c0.3-0.2,0.6-0.4,0.8-0.6c0.5-0.2,0.5-0.2,1.1-0.4C589.8,685.7,590.2,685.7,590.6,685.6z"/>
	<path id="path2458" class="st0" d="M574.2,792.3c-0.9-0.2-0.9-0.2-1.6-0.5c-0.4-0.2-0.7-0.5-1.1-0.6c-0.7-0.7-0.7-0.7-1-1.1
		c-0.2-0.4-0.4-0.8-0.5-1.1c-0.1-0.4-0.2-0.7-0.2-1.1c0-0.4,0-0.7,0-1c0-0.2,0.1-0.5,0.1-0.7c0.1-0.2,0.1-0.5,0.2-0.7
		c0.6-1.4,1.2-2.6,1.9-4c0.9-2.3,0.9-2.3,1.9-4.8c0.3-0.9,0.6-1.8,0.9-2.8c0.5-1.6,0.9-3.2,1.4-4.8c0.9-3.9,0.9-3.9,1.4-6.2
		c0.3-1.9,0.6-3.7,0.9-5.6c0.5-3.9,0.5-3.9,0.7-6.4c0.1-1.8,0.2-3.6,0.3-5.3c0-1.9,0-3.8,0-5.7c-0.1-1.6-0.2-3.1-0.2-4.7
		c-0.1-0.9-0.2-1.8-0.2-2.8c-0.5-3.9-0.5-3.9-0.9-7c-0.5-2.6-0.5-2.6-1.4-6.9c-0.9-3.6-0.9-3.6-1.9-6.8c-0.9-2.8-0.9-2.8-1.9-5.3
		c-0.9-2.3-0.9-2.3-1.9-4.3c-0.5-1-0.9-1.9-1.4-2.9c-0.1-0.3-0.2-0.6-0.2-0.9c-0.1-0.4-0.1-0.7-0.1-1.1c0.1-0.9,0.1-0.9,0.2-1.3
		c0.2-0.6,0.2-0.6,0.6-1.4c0.2-0.2,0.3-0.4,0.5-0.6c1-0.8,1-0.8,1.3-0.9c0.3-0.1,0.6-0.2,0.9-0.4c0.5-0.1,0.9-0.1,1.4-0.2
		c0.3,0.1,0.6,0.1,1,0.1c0.3,0.1,0.5,0.2,0.8,0.2c1.1,0.6,1.1,0.6,1.4,0.9c0.1,0.1,0.3,0.3,0.5,0.5c0.2,0.3,0.4,0.6,0.6,0.9
		c0.4,0.6,0.6,1.3,1,1.9c0.6,1.4,1.2,2.8,1.9,4.2c0.9,2.3,0.9,2.3,1.9,4.9c0.3,0.9,0.6,1.9,0.9,2.8c0.3,1.1,0.6,2.1,0.9,3.2
		c0.3,1.2,0.6,2.4,0.9,3.6c0.3,1.4,0.6,2.8,0.9,4.2c0.3,1.8,0.6,3.5,0.9,5.3c0.1,1.1,0.3,2.2,0.5,3.3c0.5,4.4,0.5,4.4,0.7,7.6
		c0.1,1.5,0.1,3,0.2,4.5c0,1.2,0,2.4,0,3.6c-0.1,1.2-0.1,2.5-0.1,3.8c-0.1,1.2-0.2,2.5-0.2,3.7c-0.2,2.1-0.5,4.3-0.7,6.5
		c-0.2,1-0.4,2-0.5,3.1c-0.3,1.6-0.6,3.3-0.9,5c-0.4,1.4-0.6,2.8-0.9,4.1c-0.3,1.2-0.6,2.3-0.9,3.5c-0.3,1-0.6,2-0.9,3.1
		c-0.9,2.8-0.9,2.8-1.9,5.3c-0.5,1.1-0.9,2.3-1.4,3.5c-0.9,2.1-0.9,2.1-1.9,3.9c-0.2,0.2-0.3,0.5-0.5,0.8c-0.1,0.1-0.2,0.2-0.3,0.2
		c0,0.1,0,0.1-0.1,0.2c0,0-0.1,0-0.1,0c-0.5,0.5-0.5,0.5-1.1,0.8c-0.5,0.2-0.5,0.2-1.2,0.5c-0.2,0.1-0.4,0.1-0.7,0.1
		C574.8,792.2,574.5,792.2,574.2,792.3z"/>
	<path id="path2460" class="st0" d="M557.6,786.3c-0.5-0.2-0.9-0.3-1.4-0.5c-0.3-0.2-0.6-0.4-0.9-0.5c-0.5-0.4-0.5-0.4-0.9-0.9
		c-0.4-0.5-0.4-0.5-0.6-1c-0.1-0.2-0.2-0.4-0.2-0.6c-0.1-0.4-0.1-0.6-0.2-1c0-0.2,0-0.5,0-0.8c0.1-0.7,0.1-0.7,0.4-1.5
		c0.3-0.6,0.6-1.3,0.9-1.9c0.5-1.1,0.9-2.2,1.4-3.2c0.9-2.5,0.9-2.5,1.9-5.3c0.3-1.1,0.6-2.2,0.9-3.2c0.3-1.3,0.6-2.5,0.9-3.8
		c0.2-0.8,0.3-1.5,0.5-2.3c0.2-1.4,0.5-2.8,0.7-4.2c0.5-3.9,0.5-3.9,0.7-6.8c0.1-1.2,0.1-2.3,0.2-3.5c0-1.7,0-3.5,0-5.2
		c-0.1-1.5-0.2-2.9-0.2-4.4c-0.2-1.5-0.3-3-0.5-4.5c-0.2-1.1-0.3-2.2-0.5-3.2c-0.3-1.6-0.6-3.2-0.9-4.8c-0.3-1.3-0.6-2.5-0.9-3.8
		c-0.3-1.1-0.6-2.1-0.9-3.2c-0.3-0.9-0.6-1.9-0.9-2.8c-0.9-2.5-0.9-2.5-1.9-4.6c-0.5-1-0.9-1.9-1.4-2.9c-0.2-0.4-0.4-0.8-0.5-1.2
		c-0.1-0.8-0.1-0.8-0.1-1.4c0.1-0.3,0.1-0.5,0.1-0.8c0.1-0.2,0.1-0.5,0.2-0.8c0.2-0.4,0.4-0.6,0.5-1c0.1-0.2,0.3-0.4,0.4-0.5
		c0.3-0.2,0.5-0.4,0.8-0.6c0.9-0.5,0.9-0.5,1.4-0.7c0.4-0.1,0.6-0.1,1-0.2c0.2,0,0.5,0,0.9,0c0.7,0.1,0.7,0.1,1.4,0.4
		c0.4,0.2,0.8,0.5,1.2,0.7c0.5,0.4,0.6,0.6,0.8,0.8c0.7,1.2,0.7,1.2,1.6,3.1c0.3,0.7,0.6,1.4,0.9,2.1c0.6,1.6,1.2,3.2,1.9,4.8
		c0.9,2.8,0.9,2.8,1.9,5.9c0.3,1.2,0.6,2.5,0.9,3.7c0.3,1.5,0.6,2.9,0.9,4.4c0.1,0.9,0.3,1.8,0.5,2.7c0.2,1.8,0.5,3.6,0.7,5.3
		c0.1,1.4,0.2,2.8,0.4,4.1c0.1,1.4,0.1,2.8,0.2,4.2c0,1.1,0,2.3,0,3.5c-0.1,1.2-0.1,2.3-0.1,3.6c-0.1,1.1-0.2,2.2-0.2,3.4
		c-0.2,1.4-0.4,2.9-0.5,4.3c-0.5,3.2-0.5,3.2-0.9,5.9c-0.5,2.1-0.9,4.2-1.4,6.3c-0.9,3.3-0.9,3.3-1.9,6.3c-0.3,0.9-0.6,1.7-0.9,2.6
		c-0.5,1.2-0.9,2.3-1.4,3.5c-0.5,1-0.9,2-1.4,3c-0.3,0.5-0.6,1-0.9,1.5c-0.2,0.2-0.5,0.5-0.6,0.7c-0.4,0.2-0.6,0.4-1,0.6
		c-0.2,0.1-0.6,0.2-0.9,0.4c-0.2,0.1-0.4,0.1-0.6,0.1C558.6,786.3,558.1,786.3,557.6,786.3z"/>
	<path id="path2462" class="st1" d="M534.7,782.8l-19.3-19.3v-41.5l19.3-19.3L534.7,782.8z"/>
	<path id="path2464" class="st1" d="M494.4,760.6v-35.7h11.2v35.7H494.4z"/>
</g>
</svg>
